<svg width="221" height="54" viewBox="0 0 221 54" fill="none" xmlns="http://www.w3.org/2000/svg">
<path d="M52.0448 26.5104C52.9985 25.4432 53.7126 24.1841 54.1392 22.8179C54.5658 21.4517 54.6949 20.01 54.5179 18.5897C54.2717 16.9957 53.6598 15.4803 52.7302 14.1622C51.8006 12.8441 50.5784 11.7591 49.1595 10.9921L32.75 1.8349C31.0869 0.862863 29.1953 0.350586 27.269 0.350586C25.3427 0.350586 23.4511 0.862863 21.788 1.8349L6.19178 10.0341C4.62913 10.9307 3.31659 12.2053 2.37454 13.741C1.43249 15.2767 0.891067 17.0244 0.799927 18.8237H0.799927V24.2935L1.70228 23.7476L6.15836 21.3636L6.37002 21.2411V19.5701C6.37002 19.5701 6.37002 19.481 6.37002 19.4253C6.36343 18.5259 6.59365 17.6407 7.03755 16.8585C7.48144 16.0763 8.12337 15.4247 8.89884 14.9692L24.3837 6.8257L24.5842 6.7143C25.3871 6.24546 26.3002 5.99839 27.23 5.99839C28.1598 5.99839 29.0729 6.24546 29.8758 6.7143L30.1655 6.87026L46.4747 15.9495C47.0639 16.2706 47.5775 16.7141 47.981 17.2502C48.3845 17.7863 48.6686 18.4026 48.8141 19.0576C48.9844 19.7728 48.9651 20.52 48.758 21.2253C48.5509 21.9307 48.1632 22.5697 47.6333 23.0792L47.377 23.2909L39.7906 19.1913L32.6609 15.3814C30.7822 14.3955 28.6887 13.8902 26.5672 13.9109H26.1438C24.1644 13.9483 22.2217 14.4521 20.4735 15.3814L11.851 20.0714L5.61249 23.5805L1.39036 25.9757C1.27005 26.0451 1.17014 26.1449 1.10068 26.2652C1.03122 26.3855 0.994645 26.5219 0.994645 26.6608C0.994645 26.7997 1.03122 26.9361 1.10068 27.0564C1.17014 27.1767 1.27005 27.2765 1.39036 27.3459L5.51223 29.6408L20.9191 38.2299C22.7015 39.201 24.6989 39.7099 26.7287 39.7099C28.7585 39.7099 30.7559 39.201 32.5383 38.2299L47.4662 29.7968L47.689 29.9862C48.2251 30.557 48.6273 31.2401 48.8663 31.9859C49.1052 32.7316 49.1749 33.5213 49.0704 34.2974C48.9747 35.07 48.7042 35.8106 48.2796 36.463C47.8549 37.1154 47.2872 37.6625 46.6195 38.0628L30.1543 46.5516L29.9204 46.6741C29.1174 47.143 28.2044 47.3901 27.2746 47.3901C26.3448 47.3901 25.4317 47.143 24.6288 46.6741L24.5062 46.6073L8.90998 38.0739C8.13167 37.6207 7.48689 36.9699 7.04087 36.1874C6.59485 35.4049 6.36343 34.5185 6.37002 33.6179V32.0137L6.04695 31.8354L1.59088 29.4514L0.799927 28.9724V34.2417C0.897505 36.0265 1.43858 37.7588 2.3742 39.2819C3.30981 40.8049 4.61043 42.0706 6.15836 42.9645L21.7546 51.5424C23.4164 52.5124 25.3059 53.0235 27.23 53.0235C29.1541 53.0235 31.0437 52.5124 32.7054 51.5424L49.2597 42.9979C50.6397 42.1962 51.8263 41.1005 52.7353 39.7887C53.6442 38.4769 54.2532 36.981 54.519 35.4073C54.7849 33.8336 54.701 32.2208 54.2734 30.6831C53.8458 29.1455 53.0849 27.7209 52.0448 26.5104ZM41.6621 26.5773L29.7421 33.2614C28.7949 33.7694 27.7367 34.0353 26.6619 34.0353C25.587 34.0353 24.5288 33.7694 23.5816 33.2614L11.5391 26.5773L23.1026 20.3276C24.0816 19.8223 25.1647 19.5515 26.2664 19.5367H26.5226C27.6834 19.5215 28.8305 19.7891 29.8647 20.3165H29.9315L37.0501 24.1153L41.6621 26.5773Z" fill="#F2F1E7"/>
<path d="M52.0448 26.5104C52.9985 25.4432 53.7126 24.1841 54.1392 22.8179C54.5658 21.4517 54.6949 20.01 54.5179 18.5897C54.2717 16.9957 53.6598 15.4803 52.7302 14.1622C51.8006 12.8441 50.5784 11.7591 49.1595 10.9921L32.75 1.8349C31.0869 0.862863 29.1953 0.350586 27.269 0.350586C25.3427 0.350586 23.4511 0.862863 21.788 1.8349L6.19178 10.0341C4.62913 10.9307 3.31659 12.2053 2.37454 13.741C1.43249 15.2767 0.891067 17.0244 0.799927 18.8237H0.799927V24.2935L1.70228 23.7476L6.15836 21.3636L6.37002 21.2411V19.5701C6.37002 19.5701 6.37002 19.481 6.37002 19.4253C6.36343 18.5259 6.59365 17.6407 7.03755 16.8585C7.48144 16.0763 8.12337 15.4247 8.89884 14.9692L24.3837 6.8257L24.5842 6.7143C25.3871 6.24546 26.3002 5.99839 27.23 5.99839C28.1598 5.99839 29.0729 6.24546 29.8758 6.7143L30.1655 6.87026L46.4747 15.9495C47.0639 16.2706 47.5775 16.7141 47.981 17.2502C48.3845 17.7863 48.6686 18.4026 48.8141 19.0576C48.9844 19.7728 48.9651 20.52 48.758 21.2253C48.5509 21.9307 48.1632 22.5697 47.6333 23.0792L47.377 23.2909L39.7906 19.1913L32.6609 15.3814C30.7822 14.3955 28.6887 13.8902 26.5672 13.9109H26.1438C24.1644 13.9483 22.2217 14.4521 20.4735 15.3814L11.851 20.0714L5.61249 23.5805L1.39036 25.9757C1.27005 26.0451 1.17014 26.1449 1.10068 26.2652C1.03122 26.3855 0.994645 26.5219 0.994645 26.6608C0.994645 26.7997 1.03122 26.9361 1.10068 27.0564C1.17014 27.1767 1.27005 27.2765 1.39036 27.3459L5.51223 29.6408L20.9191 38.2299C22.7015 39.201 24.6989 39.7099 26.7287 39.7099C28.7585 39.7099 30.7559 39.201 32.5383 38.2299L47.4662 29.7968L47.689 29.9862C48.2251 30.557 48.6273 31.2401 48.8663 31.9859C49.1052 32.7316 49.1749 33.5213 49.0704 34.2974C48.9747 35.07 48.7042 35.8106 48.2796 36.463C47.8549 37.1154 47.2872 37.6625 46.6195 38.0628L30.1543 46.5516L29.9204 46.6741C29.1174 47.143 28.2044 47.3901 27.2746 47.3901C26.3448 47.3901 25.4317 47.143 24.6288 46.6741L24.5062 46.6073L8.90998 38.0739C8.13167 37.6207 7.48689 36.9699 7.04087 36.1874C6.59485 35.4049 6.36343 34.5185 6.37002 33.6179V32.0137L6.04695 31.8354L1.59088 29.4514L0.799927 28.9724V34.2417C0.897505 36.0265 1.43858 37.7588 2.3742 39.2819C3.30981 40.8049 4.61043 42.0706 6.15836 42.9645L21.7546 51.5424C23.4164 52.5124 25.3059 53.0235 27.23 53.0235C29.1541 53.0235 31.0437 52.5124 32.7054 51.5424L49.2597 42.9979C50.6397 42.1962 51.8263 41.1005 52.7353 39.7887C53.6442 38.4769 54.2532 36.981 54.519 35.4073C54.7849 33.8336 54.701 32.2208 54.2734 30.6831C53.8458 29.1455 53.0849 27.7209 52.0448 26.5104ZM41.6621 26.5773L29.7421 33.2614C28.7949 33.7694 27.7367 34.0353 26.6619 34.0353C25.587 34.0353 24.5288 33.7694 23.5816 33.2614L11.5391 26.5773L23.1026 20.3276C24.0816 19.8223 25.1647 19.5515 26.2664 19.5367H26.5226C27.6834 19.5215 28.8305 19.7891 29.8647 20.3165H29.9315L37.0501 24.1153L41.6621 26.5773Z" fill="#F2F1E7"/>
<path d="M54.5736 18.5788C54.3266 16.985 53.7144 15.4699 52.7848 14.1519C51.8553 12.834 50.6336 11.7488 49.2152 10.9812L32.75 1.83506C31.0882 0.865118 29.1987 0.354004 27.2746 0.354004C25.3505 0.354004 23.4609 0.865118 21.7992 1.83506L6.20292 10.0342C4.63819 10.9295 3.32344 12.2035 2.37939 13.7393C1.43533 15.2751 0.892226 17.0235 0.799927 18.8238H0.799927V24.2937L1.70228 23.7478L6.15836 21.3638L6.37002 21.2413V19.5702C6.37002 19.5702 6.37002 19.4811 6.37002 19.4254C6.36343 18.5261 6.59365 17.6408 7.03755 16.8586C7.48144 16.0765 8.12337 15.4249 8.89884 14.9693L24.3837 6.82586L24.5842 6.71446C25.3871 6.24562 26.3002 5.99856 27.23 5.99856C28.1598 5.99856 29.0729 6.24562 29.8758 6.71446L30.1655 6.87043L46.4747 15.9497C47.0639 16.2708 47.5775 16.7143 47.981 17.2504C48.3845 17.7865 48.6686 18.4028 48.8141 19.0578C48.9844 19.7729 48.9651 20.5201 48.758 21.2255C48.5509 21.9308 48.1632 22.5699 47.6333 23.0794L47.377 23.2911L41.6844 26.6331L29.7644 33.3172C28.8172 33.8253 27.759 34.0911 26.6841 34.0911C25.6093 34.0911 24.5511 33.8253 23.6039 33.3172L11.5613 26.6331L23.136 20.3835C24.115 19.8782 25.1982 19.6074 26.2998 19.5925H26.556C27.7168 19.5778 28.8637 19.8454 29.8981 20.3723H29.9649L32.6052 15.4038C30.7265 14.4179 28.633 13.9127 26.5115 13.9333H26.0881C24.105 13.9694 22.1583 14.4733 20.4067 15.4038L11.851 20.0604L5.61249 23.5807L1.39036 25.9758C1.27005 26.0452 1.17014 26.1451 1.10068 26.2654C1.03122 26.3856 0.994645 26.5221 0.994645 26.661C0.994645 26.7999 1.03122 26.9363 1.10068 27.0566C1.17014 27.1768 1.27005 27.2767 1.39036 27.3461L5.51223 29.6521L20.9191 38.23C22.7001 39.1992 24.6955 39.707 26.7231 39.707C28.7508 39.707 30.7462 39.1992 32.5272 38.23L47.455 29.7969C51.9334 27.0899 52.0448 26.5106 52.0448 26.5106C53.0019 25.443 53.719 24.1825 54.1476 22.8142C54.5761 21.4459 54.7062 20.0016 54.529 18.5788" fill="#F2F1E7"/>
<path d="M89.2531 36.0019V20.1271H94.5892V35.7791C94.5892 38.4973 96.4942 40.0792 99.3349 40.0792C103 40.0792 105.172 37.684 105.217 34.5982V20.116H110.553V44.1119H106.264L105.852 40.6251C105.083 41.9436 103.969 43.028 102.631 43.7619C101.293 44.4959 99.7796 44.8518 98.2543 44.7915C92.5505 44.7915 89.2531 41.2155 89.2531 36.013" fill="#F2F1E7"/>
<path d="M114.096 13.4318C114.069 12.964 114.138 12.4957 114.299 12.0556C114.459 11.6154 114.708 11.2127 115.03 10.8722C115.352 10.5316 115.74 10.2602 116.17 10.0748C116.6 9.88935 117.064 9.7937 117.532 9.7937C118.001 9.7937 118.465 9.88935 118.895 10.0748C119.325 10.2602 119.713 10.5316 120.035 10.8722C120.356 11.2127 120.605 11.6154 120.766 12.0556C120.927 12.4957 120.996 12.964 120.969 13.4318C120.996 13.8995 120.927 14.3678 120.766 14.808C120.605 15.2481 120.356 15.6508 120.035 15.9914C119.713 16.332 119.325 16.6033 118.895 16.7887C118.465 16.9742 118.001 17.0698 117.532 17.0698C117.064 17.0698 116.6 16.9742 116.17 16.7887C115.74 16.6033 115.352 16.332 115.03 15.9914C114.708 15.6508 114.459 15.2481 114.299 14.808C114.138 14.3678 114.069 13.8995 114.096 13.4318ZM114.864 20.1159H120.2V44.1007H114.864V20.1159Z" fill="#F2F1E7"/>
<path d="M129.926 10.1677H124.59V44.1007H129.926V10.1677Z" fill="#F2F1E7"/>
<path d="M146.803 32.2031C146.803 24.2825 152.006 19.4031 158.701 19.4031C165.396 19.4031 170.019 24.1488 170.131 31.9358V33.2058H152.151C152.518 37.4168 155.136 40.2686 159.213 40.2686C160.439 40.3544 161.658 40.0327 162.681 39.3537C163.705 38.6748 164.475 37.6766 164.873 36.5144H170.075C168.85 41.6723 164.828 44.7916 159.169 44.7916C151.839 44.7916 146.814 39.5445 146.814 32.2143L146.803 32.2031ZM164.639 29.4515C163.959 26.0092 161.831 23.8814 158.712 23.8814C155.593 23.8814 153.142 25.9646 152.373 29.4515H164.639Z" fill="#F2F1E7"/>
<path d="M171.924 31.9358C171.924 24.0597 177.216 19.4031 184.179 19.4031C190.74 19.4031 195.174 23.4358 195.631 29.4292H190.384C190.234 27.899 189.504 26.4841 188.344 25.4751C187.184 24.4662 185.681 23.9397 184.145 24.004C180.068 24.004 177.361 27.0787 177.361 31.9692C177.361 37.2162 180.346 40.2464 184.334 40.2464C187.599 40.2464 189.905 38.1631 190.395 34.6763H195.642C195.007 40.8702 190.707 44.7693 184.323 44.7693C176.525 44.7693 171.924 39.1992 171.924 31.9135" fill="#F2F1E7"/>
<path d="M198.75 44.1119V10.1677H204.086V22.7004C205.016 21.6273 206.171 20.7716 207.468 20.1941C208.766 19.6166 210.175 19.3313 211.595 19.3584C216.708 19.3584 220.05 22.8007 220.05 28.1814V44.1119H214.691V28.5156C214.726 27.9079 214.629 27.2999 214.407 26.733C214.186 26.1661 213.844 25.6538 213.406 25.2308C212.969 24.8079 212.445 24.4843 211.871 24.2822C211.297 24.08 210.686 24.0041 210.079 24.0595C206.459 24.0595 204.108 26.4547 204.064 29.6296V44.1119H198.75Z" fill="#F2F1E7"/>
<path d="M79.0708 27.8138C82.9588 26.8669 85.5879 24.0596 85.5879 20.439C85.5879 15.6821 81.5662 12.4292 75.8179 12.4292H60.7898V44.1119H76.0741C82.0898 44.1119 86.2563 40.5804 86.2563 35.5117C86.2563 31.4901 83.4489 28.4933 79.0597 27.8249L79.0708 27.8138ZM76.3526 39.2213H66.1705V17.2752H76.0296C76.5739 17.2425 77.119 17.3235 77.6304 17.5128C78.1418 17.7021 78.6082 17.9957 79 18.375C79.3918 18.7542 79.7004 19.2108 79.9063 19.7157C80.1122 20.2206 80.2109 20.7628 80.196 21.3079C80.2083 21.901 80.0968 22.4901 79.8687 23.0377C79.6405 23.5852 79.3007 24.0792 78.8709 24.4881C78.4411 24.8969 77.9308 25.2116 77.3725 25.4121C76.8142 25.6126 76.2202 25.6945 75.6285 25.6526H70.6154L69.1115 30.3538H75.8625C78.7589 30.3538 80.753 32.1585 80.753 34.743C80.7861 35.3312 80.6958 35.9198 80.4879 36.4709C80.2799 37.0221 79.9589 37.5237 79.5455 37.9434C79.1321 38.3631 78.6355 38.6916 78.0875 38.9079C77.5395 39.1241 76.9524 39.2233 76.3638 39.1991" fill="#F2F1E7"/>
<path d="M145.812 24.6499V20.127H139.607V11.939L134.271 13.4429V36.7816C134.271 41.5273 137.078 44.1118 142.28 44.1118H145.355V39.5778H142.637C140.643 39.5778 139.607 38.4637 139.607 36.414V24.6499H145.812Z" fill="#F2F1E7"/>
</svg>
