<svg width="233" height="45" viewBox="0 0 233 45" fill="none" xmlns="http://www.w3.org/2000/svg">
<path d="M68.1019 22.6675C68.1019 16.9679 68.1019 11.2683 68.1019 5.5687C68.1019 4.99223 67.9651 4.42553 68.9324 4.44507C74.0034 4.57209 79.0842 4.22034 84.1552 4.64048C88.4736 4.95926 92.5169 6.88112 95.4908 10.0286C98.4647 13.1761 100.154 17.3217 100.228 21.6513C100.433 28.4908 98.1273 34.1969 92.2551 38.0954C89.4898 39.9064 86.2589 40.8771 82.9534 40.8899C78.3318 40.968 73.72 40.8899 69.0985 40.9583C68.1996 40.9583 68.1214 40.626 68.1214 39.8737C68.1214 34.1383 68.1214 28.3931 68.1214 22.6577L68.1019 22.6675ZM76.4949 22.6577C76.4949 26.1068 76.4949 29.5558 76.4949 33.0049C76.4949 33.3566 76.2702 33.9136 76.9835 33.894C79.348 33.8354 81.7222 34.1187 84.0575 33.5032C88.8353 32.233 91.747 27.9632 91.6005 22.3939C91.4539 16.8246 88.2979 12.7013 83.1488 11.7633C81.2466 11.5729 79.3337 11.5108 77.4231 11.5777C76.6415 11.5777 76.4461 11.7829 76.4461 12.5548C76.4461 15.9257 76.4461 19.2868 76.4461 22.6577" fill="#F2F1E7"/>
<path d="M39.4835 33.4054C39.4835 36.6493 39.4835 39.903 39.4835 43.1761C39.4835 44.2314 39.0829 44.6906 38.0179 44.6906C25.837 44.6646 13.6464 44.6515 1.44607 44.6515C0.341975 44.6515 0 44.1434 0 43.1273C0 33.2198 0 23.3058 0 13.3852C0 12.3104 0.478765 11.8903 1.51446 11.9001C4.84628 11.9001 8.17809 11.9001 11.5001 11.9001C11.5001 18.593 11.549 25.286 11.5001 31.9789C11.5001 33.1318 11.803 33.4054 12.9267 33.3957C21.7887 33.3957 30.641 33.3957 39.503 33.3957L39.4835 33.4054Z" fill="#F2F1E7"/>
<path d="M11.5098 11.9392C11.5098 8.77351 11.5098 5.60779 11.5098 2.45185C11.5098 0.996013 11.8225 0.68335 13.249 0.68335H49.4007C50.8076 0.68335 51.0226 0.917847 51.0226 2.36391C51.0226 12.1346 51.0226 21.9054 51.0226 31.6761C51.0226 33.0928 50.7392 33.3664 49.3518 33.3664H39.4834C39.4834 26.6735 39.4834 19.9708 39.4834 13.2778C39.4834 12.1053 39.1512 11.8611 38.0373 11.8611C29.1753 11.8611 20.3132 11.8611 11.4512 11.8611L11.5098 11.9392Z" fill="#F2F1E7"/>
<path d="M182.81 37.6656C179.537 41.5739 175.599 42.3751 171.232 41.1049C166.864 39.8347 164.392 36.4345 163.494 32.0279C162.565 27.2695 163.152 22.7359 166.425 18.8862C168.011 17.1371 170.107 15.9315 172.417 15.4405C174.727 14.9494 177.132 15.1978 179.293 16.1504C180.629 16.8206 181.765 17.8317 182.586 19.0817C182.803 18.6608 182.875 18.1799 182.791 17.7138C182.791 13.6785 182.791 9.64315 182.791 5.60784C182.791 4.74802 183.006 4.46467 183.895 4.49398C185.849 4.56237 187.803 4.49398 189.757 4.49398C190.412 4.49398 190.734 4.61123 190.734 5.36357C190.734 16.9712 190.734 28.5788 190.734 40.1864C190.734 40.8606 190.519 41.0169 189.884 40.9974C187.842 40.9974 185.8 40.9388 183.768 40.9974C182.937 40.9974 182.791 40.7043 182.791 40.0203C182.791 39.3364 182.791 38.7013 182.791 37.734L182.81 37.6656ZM177.182 21.9445C173.557 21.9445 171.183 24.4946 171.173 28.4322C171.164 32.3698 173.538 35.047 177.182 35.0568C180.827 35.0666 183.123 32.4676 183.123 28.5006C183.123 24.5337 180.788 21.9543 177.182 21.9445Z" fill="#F2F1E7"/>
<path d="M232.66 33.4153C232.417 34.8832 231.806 36.2654 230.883 37.4325C229.96 38.5997 228.756 39.5136 227.384 40.0887C225.077 41.2255 222.533 41.7979 219.961 41.7589C217.389 41.7198 214.863 41.0703 212.591 39.864C207.628 37.2552 206.299 32.6044 206.553 27.3868C206.768 22.8825 208.595 19.2087 212.67 16.9028C218.19 13.7762 226.349 14.9487 230.257 19.3944C232.572 22.0422 233.188 25.1884 232.954 28.5788C232.827 30.6307 232.856 30.6307 230.843 30.6307C225.723 30.6307 220.603 30.6307 215.483 30.6307C214.331 30.6307 214.282 31.0215 214.506 31.9302C215.288 34.6953 217.946 36.1511 221.346 35.6235C222.019 35.6237 222.681 35.4547 223.272 35.132C223.863 34.8093 224.363 34.3433 224.727 33.7769C224.932 33.4153 225.235 33.4153 225.577 33.4153H232.709H232.66ZM219.841 25.6476C221.297 25.6476 222.772 25.5597 224.189 25.6476C225.342 25.7453 225.293 25.1688 225.166 24.4067C224.707 21.9738 223.212 20.7329 220.408 20.4984C217.604 20.2639 215.454 21.5928 214.741 23.7814C214.643 24.0941 214.575 24.4263 214.497 24.7585C214.35 25.3936 214.555 25.6378 215.249 25.6085C216.783 25.5597 218.317 25.6085 219.851 25.6085" fill="#F2F1E7"/>
<path d="M116.692 15.1929C121.323 15.2906 125.485 16.6194 128.123 20.6352C129.564 22.6972 130.4 25.1204 130.539 27.6321C130.677 30.1437 130.111 32.644 128.905 34.8516C126.58 39.5415 122.359 41.3882 117.356 41.6129C112.95 41.8083 108.846 40.7628 105.885 37.2552C102.212 32.8974 101.762 27.8753 103.931 22.7456C106.1 17.616 110.351 15.6032 115.607 15.1929C115.978 15.1929 116.36 15.1929 116.731 15.1929H116.692ZM110.712 28.4127C110.712 31.6565 112.226 33.9331 114.845 34.6659C119.193 35.8873 122.759 32.917 122.603 28.2075C122.496 25.0613 121.03 22.8824 118.519 22.1594C114.19 20.9087 110.702 23.7032 110.702 28.4127" fill="#F2F1E7"/>
<path d="M133.077 28.4419C133.077 20.9478 138.187 15.5739 145.779 15.2026C150.137 14.9877 154.211 15.8572 157.289 19.1793C161.041 23.2244 161.617 28.0511 159.986 33.1319C158.403 38.0172 154.68 40.5674 149.707 41.4174C146.984 41.8795 144.188 41.6476 141.578 40.7433C136.243 38.9357 133.097 34.3239 133.077 28.4029V28.4419ZM146.932 34.8808C150.547 34.8808 152.931 32.3111 152.931 28.4029C152.931 24.4946 150.567 21.8858 146.981 21.876C143.395 21.8662 141.001 24.4164 141.001 28.354C141.001 32.2916 143.327 34.8808 146.932 34.8808Z" fill="#F2F1E7"/>
<path d="M202.723 22.6869C202.723 28.393 202.723 34.0894 202.723 39.7955C202.723 40.6846 202.576 41.0266 201.589 40.9777C199.635 40.8898 197.681 40.9191 195.727 40.9777C195.014 40.9777 194.828 40.7725 194.828 40.069C194.828 28.5396 194.828 17.0101 194.828 5.48069C194.828 4.6111 195.131 4.45477 195.903 4.50362C197.857 4.50362 199.733 4.57201 201.648 4.50362C202.557 4.50362 202.733 4.78697 202.733 5.62725C202.733 11.3334 202.733 17.0297 202.733 22.7358" fill="#F2F1E7"/>
</svg>
