<svg width="184" height="184" viewBox="0 0 184 184" fill="none" xmlns="http://www.w3.org/2000/svg">
<rect width="184" height="184" rx="92" fill="#83BFCB"/>
<g clip-path="url(#clip0_3_952)">
<path d="M121.765 60.6449H57.925V130.185H121.765V60.6449Z" stroke="#F2F1E7" stroke-width="3.23" stroke-linecap="round" stroke-linejoin="round"/>
<path d="M102.385 108.535H77.3052V130.195H102.385V108.535Z" stroke="#F2F1E7" stroke-width="3.23" stroke-linecap="round" stroke-linejoin="round"/>
<path d="M112.075 53.8049H67.6152V60.6449H112.075V53.8049Z" stroke="#F2F1E7" stroke-width="3.23" stroke-linecap="round" stroke-linejoin="round"/>
<path d="M67.6152 72.0449H112.075" stroke="#F2F1E7" stroke-width="3.23" stroke-linecap="round" stroke-linejoin="round"/>
<path d="M67.6152 78.8949H112.075" stroke="#F2F1E7" stroke-width="3.23" stroke-linecap="round" stroke-linejoin="round"/>
<path d="M67.6152 85.735H112.075" stroke="#F2F1E7" stroke-width="3.23" stroke-linecap="round" stroke-linejoin="round"/>
<path d="M67.6152 92.575H112.075" stroke="#F2F1E7" stroke-width="3.23" stroke-linecap="round" stroke-linejoin="round"/>
<path d="M89.8452 108.535V130.195" stroke="#F2F1E7" stroke-width="3.23" stroke-linecap="round" stroke-linejoin="round"/>
<path d="M68.1851 108.535V124.495" stroke="#F2F1E7" stroke-width="3.23" stroke-linecap="round" stroke-linejoin="round"/>
<path d="M111.505 108.535V124.495" stroke="#F2F1E7" stroke-width="3.23" stroke-linecap="round" stroke-linejoin="round"/>
<path d="M134.755 78.8949H122.215V130.195H134.755V78.8949Z" stroke="#F2F1E7" stroke-width="3.23" stroke-linecap="round" stroke-linejoin="round"/>
<path d="M58.3651 100.555H49.2451V130.195H58.3651V100.555Z" stroke="#F2F1E7" stroke-width="3.23" stroke-linecap="round" stroke-linejoin="round"/>
</g>
<defs>
<clipPath id="clip0_3_952">
<rect width="88.73" height="79.61" fill="white" transform="translate(47.635 52.1949)"/>
</clipPath>
</defs>
</svg>
