<svg width="184" height="184" viewBox="0 0 184 184" fill="none" xmlns="http://www.w3.org/2000/svg">
<rect width="184" height="184" rx="92" fill="#83BFCB"/>
<g clip-path="url(#clip0_3_970)">
<path d="M139.59 139.205H44.41L62.15 127.875H121.84L139.59 139.205Z" stroke="#F2F1E7" stroke-width="4.53" stroke-linecap="round" stroke-linejoin="round"/>
<path d="M62.9601 127.065V85.125" stroke="#F2F1E7" stroke-width="4.53" stroke-linecap="round" stroke-linejoin="round"/>
<path d="M77.48 127.065V85.125" stroke="#F2F1E7" stroke-width="4.53" stroke-linecap="round" stroke-linejoin="round"/>
<path d="M92 127.065V85.125" stroke="#F2F1E7" stroke-width="4.53" stroke-linecap="round" stroke-linejoin="round"/>
<path d="M106.52 127.065V85.125" stroke="#F2F1E7" stroke-width="4.53" stroke-linecap="round" stroke-linejoin="round"/>
<path d="M119.42 127.065V85.125" stroke="#F2F1E7" stroke-width="4.53" stroke-linecap="round" stroke-linejoin="round"/>
<path d="M135.56 75.445H45.2101L92.0001 44.795L135.56 75.445Z" stroke="#F2F1E7" stroke-width="4.53" stroke-linecap="round" stroke-linejoin="round"/>
<path d="M130.72 75.4451H51.67V85.1251H130.72V75.4451Z" stroke="#F2F1E7" stroke-width="4.58" stroke-linecap="round" stroke-linejoin="round"/>
<path d="M93.66 65.155C93.6689 64.9035 93.6275 64.6528 93.5382 64.4176C93.4489 64.1823 93.3135 63.9672 93.14 63.785C92.6331 63.3275 92.0325 62.9862 91.38 62.785C90.7237 62.5679 90.0852 62.3004 89.47 61.985C88.7812 61.6697 88.1995 61.1601 87.7963 60.5188C87.393 59.8775 87.1858 59.1324 87.2 58.375C87.1682 57.3909 87.5278 56.4344 88.2 55.715C88.9158 55.0128 89.8595 54.5906 90.86 54.525V52.375H92.42V54.525C92.9305 54.5787 93.4252 54.7338 93.8751 54.981C94.325 55.2283 94.721 55.5628 95.04 55.965C95.1659 56.1263 95.2796 56.2968 95.38 56.475C95.5128 56.7529 95.5724 57.0602 95.5533 57.3676C95.5342 57.6751 95.4369 57.9725 95.2707 58.2319C95.1045 58.4912 94.8748 58.7039 94.6035 58.8496C94.3321 58.9954 94.028 59.0696 93.72 59.065H93.61C93.6465 58.3784 93.453 57.6992 93.06 57.135C92.8853 56.905 92.6578 56.7204 92.3967 56.5968C92.1357 56.4732 91.8487 56.4143 91.56 56.425C91.0396 56.4004 90.5302 56.5797 90.14 56.925C89.9566 57.1172 89.8149 57.3452 89.7237 57.5947C89.6325 57.8442 89.5938 58.1098 89.61 58.375C89.5983 58.6276 89.6394 58.88 89.7307 59.1158C89.8219 59.3517 89.9613 59.566 90.14 59.745C90.6568 60.194 91.2588 60.5341 91.91 60.745C92.5964 60.9796 93.2648 61.2637 93.91 61.595C94.3523 61.8299 94.7569 62.1299 95.11 62.485C95.4331 62.8154 95.6879 63.2062 95.86 63.635C96.044 64.1236 96.1323 64.643 96.12 65.165C96.141 65.6544 96.0633 66.143 95.8915 66.6017C95.7197 67.0604 95.4573 67.4798 95.12 67.835C94.3558 68.5578 93.3603 68.9864 92.31 69.045V70.945H90.66V69.025C89.52 68.9668 88.446 68.4727 87.66 67.645L87.55 67.525C87.324 67.2536 87.1813 66.9226 87.1393 66.5719C87.0972 66.2212 87.1575 65.8658 87.3129 65.5487C87.4683 65.2315 87.7122 64.9661 88.0151 64.7844C88.318 64.6028 88.667 64.5127 89.02 64.525C88.975 65.2145 89.197 65.8948 89.64 66.425C89.8664 66.6559 90.14 66.8352 90.442 66.9508C90.7439 67.0665 91.0673 67.1156 91.39 67.095C92.0017 67.1375 92.6063 66.9443 93.08 66.555C93.2726 66.3736 93.4241 66.1529 93.5241 65.9079C93.6242 65.663 93.6705 65.3994 93.66 65.135" fill="#F2F1E7"/>
</g>
<defs>
<clipPath id="clip0_3_970">
<rect width="99.72" height="98.95" fill="white" transform="translate(42.14 42.525)"/>
</clipPath>
</defs>
</svg>
