<svg width="184" height="184" viewBox="0 0 184 184" fill="none" xmlns="http://www.w3.org/2000/svg">
<rect width="184" height="184" rx="92" fill="#83BFCB"/>
<g clip-path="url(#clip0_3_890)">
<path d="M98.6601 36.695H66.9401C61.3897 36.695 56.8901 41.1945 56.8901 46.745V137.255C56.8901 142.805 61.3897 147.305 66.9401 147.305H98.6601C104.211 147.305 108.71 142.805 108.71 137.255V46.745C108.71 41.1945 104.211 36.695 98.6601 36.695Z" stroke="#F2F1E7" stroke-width="3.09" stroke-miterlimit="10"/>
<path d="M122.23 116.365H88.7301L79.9901 122.555V116.365H74.7501C73.4559 116.365 72.2146 115.851 71.2994 114.936C70.3843 114.021 69.8701 112.779 69.8701 111.485V76.375C69.8701 75.0807 70.3843 73.8395 71.2994 72.9243C72.2146 72.0091 73.4559 71.495 74.7501 71.495H122.23C123.524 71.495 124.766 72.0091 125.681 72.9243C126.596 73.8395 127.11 75.0807 127.11 76.375V111.485C127.11 112.779 126.596 114.021 125.681 114.936C124.766 115.851 123.524 116.365 122.23 116.365Z" fill="#83BFCB" stroke="#F2F1E7" stroke-width="3.09" stroke-miterlimit="10"/>
<path d="M90.3403 101.855C90.3506 101.502 90.2905 101.15 90.1634 100.821C90.0364 100.491 89.8449 100.19 89.6003 99.935C88.8887 99.3062 88.0495 98.8388 87.1403 98.565C86.2192 98.2579 85.3232 97.8801 84.4603 97.435C83.5054 96.9825 82.7023 96.2626 82.1485 95.3626C81.5947 94.4627 81.3139 93.4214 81.3403 92.365C81.2874 90.9849 81.7836 89.64 82.7203 88.625C83.719 87.611 85.0511 86.9929 86.4703 86.885V85.005C86.4703 84.7146 86.5856 84.4361 86.791 84.2308C86.9963 84.0254 87.2748 83.91 87.5653 83.91C87.8557 83.91 88.1342 84.0254 88.3395 84.2308C88.5449 84.4361 88.6603 84.7146 88.6603 85.005V86.925C89.3755 86.9982 90.0691 87.2126 90.7008 87.5559C91.3326 87.8993 91.8898 88.3646 92.3403 88.925C92.4978 89.1284 92.6415 89.3423 92.7703 89.565C92.975 89.9552 93.0748 90.392 93.0597 90.8324C93.0446 91.2728 92.9152 91.7016 92.6842 92.0769C92.4532 92.4521 92.1285 92.7608 91.7421 92.9727C91.3557 93.1845 90.9209 93.2921 90.4803 93.285H90.3303C90.3829 92.3211 90.1118 91.3673 89.5603 90.575C89.3157 90.2525 88.9974 89.9934 88.632 89.8194C88.2666 89.6454 87.8648 89.5616 87.4603 89.575C86.7099 89.5311 85.9727 89.7864 85.4103 90.285C85.1576 90.5507 84.9617 90.865 84.8344 91.2089C84.7072 91.5527 84.6514 91.9189 84.6703 92.285C84.6372 92.642 84.6797 93.002 84.7952 93.3415C84.9106 93.6809 85.0964 93.9922 85.3403 94.255C86.0678 94.8694 86.9111 95.3319 87.8203 95.615C88.7641 95.9457 89.6831 96.3434 90.5703 96.805C91.1898 97.1351 91.7561 97.5565 92.2503 98.055C92.7165 98.5182 93.0869 99.0686 93.3403 99.675C93.5999 100.361 93.7255 101.091 93.7103 101.825C93.7375 102.513 93.6258 103.2 93.3818 103.845C93.1379 104.489 92.7666 105.077 92.2903 105.575C91.2161 106.591 89.8166 107.193 88.3403 107.275V108.975C88.3403 109.264 88.2254 109.541 88.021 109.746C87.8166 109.95 87.5393 110.065 87.2503 110.065C86.9612 110.065 86.6839 109.95 86.4795 109.746C86.2751 109.541 86.1603 109.264 86.1603 108.975V107.285C84.5775 107.19 83.0901 106.497 82.0003 105.345L81.8103 105.145C81.5157 104.767 81.3326 104.315 81.2817 103.838C81.2307 103.362 81.3139 102.881 81.5219 102.449C81.7299 102.018 82.0544 101.653 82.4587 101.396C82.8631 101.139 83.3312 101 83.8103 100.995C83.7466 101.964 84.0582 102.92 84.6803 103.665C84.9975 103.988 85.3804 104.239 85.8031 104.401C86.2258 104.564 86.6784 104.633 87.1303 104.605C87.987 104.666 88.8347 104.398 89.5003 103.855C89.7729 103.6 89.9874 103.29 90.1289 102.945C90.2704 102.599 90.3357 102.228 90.3203 101.855" fill="#F2F1E7"/>
<path d="M90.3403 101.855C90.3506 101.502 90.2905 101.15 90.1634 100.821C90.0364 100.491 89.8449 100.19 89.6003 99.935C88.8887 99.3062 88.0495 98.8388 87.1403 98.565C86.2192 98.2579 85.3232 97.8801 84.4603 97.435C83.5054 96.9825 82.7023 96.2626 82.1485 95.3626C81.5947 94.4627 81.3139 93.4214 81.3403 92.365C81.2874 90.9849 81.7836 89.64 82.7203 88.625C83.719 87.611 85.0511 86.9929 86.4703 86.885V85.005C86.4703 84.7146 86.5856 84.4361 86.791 84.2308C86.9963 84.0254 87.2748 83.91 87.5653 83.91C87.8557 83.91 88.1342 84.0254 88.3395 84.2308C88.5449 84.4361 88.6603 84.7146 88.6603 85.005V86.925C89.3755 86.9982 90.0691 87.2126 90.7008 87.5559C91.3326 87.8993 91.8898 88.3646 92.3403 88.925C92.4978 89.1284 92.6415 89.3423 92.7703 89.565C92.975 89.9552 93.0748 90.392 93.0597 90.8324C93.0446 91.2728 92.9152 91.7016 92.6842 92.0769C92.4532 92.4521 92.1285 92.7608 91.7421 92.9727C91.3557 93.1845 90.9209 93.2921 90.4803 93.285H90.3303C90.3829 92.3211 90.1118 91.3673 89.5603 90.575C89.3157 90.2525 88.9974 89.9934 88.632 89.8194C88.2666 89.6454 87.8648 89.5616 87.4603 89.575C86.7099 89.5311 85.9727 89.7864 85.4103 90.285C85.1576 90.5507 84.9617 90.865 84.8344 91.2089C84.7072 91.5527 84.6514 91.9189 84.6703 92.285C84.6372 92.642 84.6797 93.002 84.7952 93.3415C84.9106 93.6809 85.0964 93.9922 85.3403 94.255C86.0678 94.8694 86.9111 95.3319 87.8203 95.615C88.7641 95.9457 89.6831 96.3434 90.5703 96.805C91.1898 97.1351 91.7561 97.5565 92.2503 98.055C92.7165 98.5182 93.0869 99.0686 93.3403 99.675C93.5999 100.361 93.7255 101.091 93.7103 101.825C93.7375 102.513 93.6258 103.2 93.3818 103.845C93.1379 104.489 92.7666 105.077 92.2903 105.575C91.2161 106.591 89.8166 107.193 88.3403 107.275V108.975C88.3403 109.264 88.2254 109.541 88.021 109.746C87.8166 109.95 87.5393 110.065 87.2503 110.065C86.9612 110.065 86.6839 109.95 86.4795 109.746C86.2751 109.541 86.1603 109.264 86.1603 108.975V107.285C84.5775 107.19 83.0901 106.497 82.0003 105.345L81.8103 105.145C81.5157 104.767 81.3326 104.315 81.2817 103.838C81.2307 103.362 81.3139 102.881 81.5219 102.449C81.7299 102.018 82.0544 101.653 82.4587 101.396C82.8631 101.139 83.3312 101 83.8103 100.995C83.7466 101.964 84.0582 102.92 84.6803 103.665C84.9975 103.988 85.3804 104.239 85.8031 104.401C86.2258 104.564 86.6784 104.633 87.1303 104.605C87.987 104.666 88.8347 104.398 89.5003 103.855C89.7765 103.602 89.9947 103.292 90.1397 102.947C90.2847 102.602 90.3532 102.229 90.3403 101.855V101.855Z" stroke="#F2F1E7" stroke-width="1.16" stroke-miterlimit="10"/>
<path d="M103.72 104.355V88.355C103.72 87.9943 103.863 87.6484 104.119 87.3933C104.374 87.1383 104.72 86.995 105.08 86.995H110.08C111.786 86.879 113.482 87.3251 114.91 88.265C115.472 88.7162 115.916 89.2965 116.205 89.9564C116.494 90.6163 116.619 91.3363 116.57 92.055C116.583 92.8777 116.342 93.6843 115.88 94.365C115.382 95.0783 114.687 95.6309 113.88 95.955C114.818 96.1811 115.646 96.7298 116.22 97.505C116.786 98.3006 117.078 99.259 117.05 100.235C117.087 100.986 116.955 101.736 116.662 102.428C116.37 103.121 115.925 103.738 115.36 104.235C113.967 105.26 112.256 105.76 110.53 105.645H105.08C104.72 105.645 104.374 105.502 104.119 105.247C103.863 104.992 103.72 104.646 103.72 104.285V104.355ZM106.97 93.465C106.961 93.6503 106.989 93.8355 107.054 94.0093C107.118 94.1832 107.218 94.342 107.346 94.4759C107.475 94.6098 107.629 94.7161 107.8 94.7882C107.971 94.8603 108.155 94.8966 108.34 94.895H110.16C111.006 94.9464 111.844 94.7025 112.53 94.205C112.807 93.9672 113.025 93.668 113.165 93.3311C113.306 92.9942 113.366 92.6291 113.34 92.265C113.374 91.8931 113.32 91.5185 113.183 91.1711C113.046 90.8238 112.829 90.5135 112.55 90.265C111.819 89.7969 110.956 89.5793 110.09 89.645H108.34C107.98 89.645 107.634 89.7883 107.379 90.0433C107.123 90.2984 106.98 90.6443 106.98 91.005L106.97 93.465ZM106.97 98.585V101.695C106.958 101.882 106.984 102.069 107.048 102.246C107.111 102.422 107.21 102.583 107.339 102.719C107.467 102.855 107.623 102.963 107.795 103.037C107.967 103.11 108.153 103.147 108.34 103.145H110.58C111.444 103.197 112.295 102.926 112.97 102.385C113.26 102.12 113.487 101.794 113.635 101.431C113.784 101.068 113.851 100.677 113.83 100.285C113.83 98.345 112.83 97.345 110.83 97.285H108.34C107.98 97.285 107.634 97.4283 107.379 97.6833C107.123 97.9384 106.98 98.2843 106.98 98.645" fill="#F2F1E7"/>
<path d="M106.96 98.645V101.755C106.956 101.938 106.989 102.12 107.057 102.289C107.124 102.459 107.226 102.614 107.355 102.743C107.483 102.873 107.637 102.976 107.806 103.045C107.976 103.114 108.157 103.148 108.34 103.145H110.58C111.443 103.197 112.295 102.926 112.97 102.385C113.259 102.12 113.487 101.794 113.635 101.431C113.784 101.068 113.85 100.677 113.83 100.285C113.83 98.345 112.83 97.345 110.83 97.285H108.34C108.16 97.2823 107.981 97.3156 107.813 97.3827C107.646 97.4499 107.494 97.5496 107.365 97.6762C107.237 97.8027 107.135 97.9536 107.065 98.1199C106.996 98.2862 106.96 98.4647 106.96 98.645V98.645Z" stroke="#F2F1E7" stroke-width="1.16" stroke-miterlimit="10"/>
<path d="M109.39 88.305V84.395" stroke="#F2F1E7" stroke-width="3.09" stroke-miterlimit="10" stroke-linecap="round"/>
<path d="M109.39 104.455V108.505" stroke="#F2F1E7" stroke-width="3.09" stroke-miterlimit="10" stroke-linecap="round"/>
<path d="M89.1701 43.845H76.4301C75.0298 43.845 73.6868 43.2887 72.6966 42.2985C71.7064 41.3083 71.1501 39.9654 71.1501 38.565V36.695H94.4501V38.565C94.4501 39.9654 93.8939 41.3083 92.9037 42.2985C91.9135 43.2887 90.5705 43.845 89.1701 43.845Z" stroke="#F2F1E7" stroke-width="3.09" stroke-miterlimit="10"/>
<path d="M58.0601 141.115H107.54" stroke="#F2F1E7" stroke-width="3.09" stroke-miterlimit="10"/>
</g>
<defs>
<clipPath id="clip0_3_890">
<rect width="73.32" height="113.71" fill="white" transform="translate(55.3401 35.145)"/>
</clipPath>
</defs>
</svg>
