<svg width="126" height="93" viewBox="0 0 126 93" fill="none" xmlns="http://www.w3.org/2000/svg">
<path d="M85.5176 76.6302C85.5196 76.5316 85.4985 76.4339 85.4559 76.345C85.4133 76.256 85.3504 76.1784 85.2723 76.1182C85.0898 75.9767 84.863 75.9049 84.6323 75.9156H84.1524C84.0884 75.9156 84.0564 75.9156 84.0564 76.0116V77.1848C84.0564 77.2594 84.0564 77.2914 84.1951 77.2914H84.6643C84.8829 77.2986 85.0974 77.2308 85.2723 77.0995C85.3477 77.0466 85.4094 76.9763 85.452 76.8947C85.4947 76.813 85.5172 76.7223 85.5176 76.6302Z" fill="#F2F1E7"/>
<path d="M84.643 74.9023C84.3362 74.898 84.0318 74.9574 83.7491 75.0767C83.4663 75.196 83.2115 75.3727 83.0005 75.5956C82.5648 76.0333 82.3202 76.6258 82.3202 77.2434C82.3202 77.861 82.5648 78.4535 83.0005 78.8912C83.3262 79.2121 83.7393 79.4298 84.1881 79.5172C84.6369 79.6046 85.1015 79.5577 85.5237 79.3824C85.946 79.2071 86.3073 78.9112 86.5623 78.5317C86.8172 78.1522 86.9547 77.7059 86.9574 77.2487C86.962 76.9412 86.9039 76.636 86.7865 76.3518C86.6691 76.0675 86.495 75.8102 86.2748 75.5956C86.0651 75.374 85.8119 75.1981 85.5312 75.0788C85.2504 74.9596 84.948 74.8995 84.643 74.9023ZM85.7095 78.4646C85.7095 78.4646 85.7095 78.4646 85.6455 78.4646H85.2829H85.2189C85.2189 78.4646 85.2189 78.4646 85.2936 78.4646C85.3682 78.4646 85.3469 78.4112 85.2936 78.3579L84.675 77.4834H84.6003H83.9924V78.3472C83.9924 78.3472 83.9924 78.4219 84.0671 78.4432C84.1417 78.4646 84.1524 78.4432 84.1524 78.4432C84.1524 78.4432 84.1524 78.4432 84.0884 78.4432H83.7258H83.6618C83.6618 78.4432 83.6618 78.4432 83.7364 78.4432C83.8111 78.4432 83.8217 78.4432 83.8217 78.3472V75.9902C83.8217 75.9902 83.8218 75.9155 83.7364 75.8942C83.6511 75.8729 83.6618 75.8942 83.6618 75.8942C83.6618 75.8942 83.6618 75.8942 83.7258 75.8942H84.5683C84.8386 75.8825 85.1051 75.9613 85.3256 76.1182C85.4181 76.1855 85.4934 76.2737 85.5453 76.3756C85.5972 76.4776 85.6242 76.5904 85.6242 76.7048C85.628 76.8011 85.612 76.8972 85.5772 76.9871C85.5423 77.077 85.4893 77.1588 85.4216 77.2274C85.2637 77.3862 85.0572 77.4876 84.835 77.5153L85.4856 78.4112L85.5602 78.4859H85.6242L85.7095 78.4646Z" fill="#F2F1E7"/>
<path d="M67.8982 43.6954H69.0608C70.6771 43.6564 72.2315 43.0655 73.4656 42.0209C75.0576 40.6815 76.2956 38.971 77.0705 37.0401C78.6548 33.818 79.4448 30.2633 79.3742 26.6734C79.1822 23.6515 77.9593 22.1405 75.7053 22.1405H75.588C74.9616 22.134 74.3491 22.3253 73.8377 22.6873C73.3264 23.0492 72.9424 23.5633 72.7403 24.1563L66.0638 39.2266C65.4816 40.2251 65.3132 41.4118 65.5945 42.5328C65.9145 43.3079 66.6824 43.6954 67.8982 43.6954Z" fill="#F2F1E7"/>
<path d="M79.2996 0.692345H46.0768C33.9996 0.876259 22.4792 5.80301 14.0036 14.4087C5.52799 23.0144 0.777222 34.6084 0.777222 46.687C0.777222 58.7657 5.52799 70.3597 14.0036 78.9653C22.4792 87.571 33.9996 92.4978 46.0768 92.6817H79.2996C85.3987 92.7746 91.4553 91.6535 97.117 89.3837C102.779 87.114 107.932 83.7408 112.278 79.4606C116.624 75.1804 120.075 70.0786 122.431 64.4521C124.787 58.8256 126 52.7868 126 46.687C126 40.5873 124.787 34.5484 122.431 28.9219C120.075 23.2954 116.624 18.1936 112.278 13.9134C107.932 9.63319 102.779 6.26006 97.117 3.99029C91.4553 1.72053 85.3987 0.599468 79.2996 0.692345ZM53.6066 45.9138L53.6706 45.7538C54.0678 45.1409 54.5739 44.6059 55.1638 44.1753C55.896 43.6038 56.4902 42.8748 56.9022 42.0422L65.0079 23.751C65.3178 23.0819 65.3672 22.3215 65.1466 21.6179C64.9388 21.1173 64.905 20.5615 65.0506 20.0394L65.1359 19.8901C65.2431 19.6301 65.4298 19.4107 65.6693 19.2632C65.9087 19.1157 66.1887 19.0477 66.4691 19.0689H75.8867C81.5749 19.0689 85.354 20.3452 87.224 22.8978C89.094 25.4504 89.094 28.8669 87.224 33.1472C85.4195 37.1828 82.4477 40.5855 78.6917 42.9168C74.8242 45.4193 70.3075 46.7321 65.7012 46.6923H54.2145C53.5675 46.6923 53.3648 46.4186 53.6066 45.8711V45.9138ZM22.0903 45.7111C22.207 45.1215 22.4837 44.5754 22.8902 44.1326C23.3838 43.5287 23.6649 42.7791 23.6901 41.9996V23.783C23.6649 23.0034 23.3838 22.2538 22.8902 21.6499C22.4832 21.2075 22.2064 20.6612 22.0903 20.0714V19.8901C22.0903 19.3426 22.4138 19.0689 23.0608 19.0689H32.5104C33.1574 19.0689 33.4809 19.3426 33.4809 19.8901V20.0501C33.3469 20.6493 33.0433 21.1972 32.6064 21.6286C32.0732 22.2147 31.7635 22.9699 31.7318 23.7617V31.1528H41.928V23.7617C41.905 22.9853 41.6319 22.2372 41.1494 21.6286C40.752 21.1824 40.4829 20.6369 40.3708 20.0501V19.8901C40.3708 19.3426 40.6837 19.0689 41.3094 19.0689H50.7589C51.4095 19.0689 51.7295 19.3355 51.7295 19.8901V20.0501C51.593 20.6531 51.2813 21.2022 50.8336 21.6286C50.2894 22.2096 49.9716 22.9664 49.9377 23.7617V42.0635C49.9716 42.8588 50.2894 43.6157 50.8336 44.1966C51.2783 44.6253 51.5895 45.1735 51.7295 45.7751V45.9351C51.7295 46.479 51.4095 46.7563 50.7589 46.7563H41.3627C40.737 46.7563 40.4241 46.4826 40.4241 45.9351V45.7751C40.5363 45.1883 40.8053 44.6428 41.2027 44.1966C41.6859 43.5884 41.9591 42.84 41.9813 42.0635V34.5124H31.7425V42.0635C31.7764 42.8588 32.0942 43.6157 32.6384 44.1966C33.0831 44.6253 33.3943 45.1735 33.5343 45.7751V45.9351C33.5343 46.4826 33.2107 46.7563 32.5637 46.7563H23.0715C22.4244 46.7563 22.1009 46.4826 22.1009 45.9351L22.0903 45.7111ZM48.7538 78.7739C48.1111 78.8347 47.4678 78.6639 46.9399 78.2924C46.4119 77.9209 46.034 77.373 45.8742 76.7475L41.8746 64.1943L37.8218 76.6835C37.7011 77.2849 37.3759 77.826 36.9015 78.2148C36.4271 78.6037 35.8328 78.8163 35.2194 78.8166C34.5937 78.8594 33.9713 78.6945 33.4489 78.3473C32.9694 77.9251 32.6028 77.3899 32.3824 76.7902L24.7459 55.9073C24.3825 55.0948 23.8519 54.3679 23.1888 53.7742C22.4778 53.0987 22.1222 52.5654 22.1222 52.1744V52.0144C22.1222 51.4669 22.4458 51.1932 23.0928 51.1932H33.7582C34.4053 51.1932 34.7288 51.4669 34.7288 52.0144V52.1744C34.6877 52.5705 34.4923 52.9345 34.1848 53.1876C33.8248 53.545 33.5161 53.9506 33.2676 54.3928C33.1283 54.6172 33.0441 54.8715 33.0219 55.1347C32.9997 55.3979 33.04 55.6626 33.1396 55.9073L36.5739 69.1004L39.9548 58.435L39.1336 55.9393C38.8178 55.1529 38.3033 54.462 37.6405 53.9342C36.8228 53.2231 36.4139 52.6579 36.4139 52.2384V52.0784C36.4139 51.5309 36.7374 51.2571 37.3845 51.2571H47.8473C48.4979 51.2571 48.8178 51.5345 48.8178 52.0784V52.2384C48.7951 52.4298 48.7309 52.6139 48.6295 52.7779C48.5282 52.9418 48.3923 53.0817 48.2312 53.1876C47.8303 53.5188 47.472 53.8986 47.1647 54.3181C47.0177 54.5529 46.9268 54.8184 46.8991 55.094C46.8713 55.3696 46.9075 55.6479 47.0047 55.9073L50.5456 68.9511L54.7478 55.9179C54.8406 55.6769 54.8764 55.4176 54.8523 55.1604C54.8283 54.9033 54.745 54.6551 54.6091 54.4354C54.337 53.9949 54.011 53.5901 53.6386 53.2303C53.4815 53.1076 53.3506 52.9548 53.2535 52.7808C53.1564 52.6068 53.0952 52.4151 53.0733 52.217V52.0571C53.0733 51.5096 53.3968 51.2358 54.0439 51.2358H60.4431C61.0902 51.2358 61.4137 51.5096 61.4137 52.0571V52.217C61.4089 52.3961 61.3665 52.5722 61.2893 52.7339C61.2122 52.8955 61.1019 53.0392 60.9657 53.1556C60.6671 53.44 60.3116 53.8169 59.8992 54.2861C59.4705 54.7565 59.1469 55.3127 58.95 55.9179L51.7188 76.6835C51.5437 77.3166 51.1597 77.8718 50.6292 78.2591C50.0987 78.6463 49.4528 78.8428 48.7965 78.8166L48.7538 78.7739ZM86.4028 78.9659C85.9969 79.373 85.4624 79.6268 84.8904 79.684C84.3184 79.7413 83.7443 79.5984 83.2658 79.2798C82.7873 78.9612 82.434 78.4866 82.2662 77.9368C82.0984 77.387 82.1264 76.796 82.3454 76.2645C82.5645 75.733 82.961 75.2938 83.4675 75.0219C83.974 74.75 84.559 74.662 85.1231 74.7731C85.6871 74.8842 86.1952 75.1873 86.5608 75.631C86.9264 76.0746 87.1268 76.6313 87.128 77.2061C87.1342 77.5335 87.073 77.8587 86.9482 78.1614C86.8235 78.4641 86.6378 78.738 86.4028 78.9659ZM88.5359 65.2822C86.7313 69.3178 83.7596 72.7205 80.0035 75.0517C76.1361 77.5542 71.6194 78.867 67.013 78.8273H55.537C54.89 78.8273 54.6874 78.5535 54.9291 78.006L54.9931 77.8461C55.3901 77.233 55.8962 76.698 56.4863 76.2676C57.2183 75.6958 57.8124 74.9668 58.2247 74.1345L66.3305 55.8433C66.6403 55.1742 66.6897 54.4137 66.4691 53.7102C66.2605 53.2098 66.2267 52.6537 66.3731 52.1317L66.4371 51.9717C66.5443 51.7117 66.731 51.4923 66.9704 51.3448C67.2099 51.1973 67.4899 51.1293 67.7703 51.1505H77.1879C82.8761 51.1505 86.6552 52.4268 88.5252 54.9794C90.3952 57.532 90.3952 60.9485 88.5252 65.2289L88.5359 65.2822ZM112.672 45.2845C112.644 45.6796 112.486 46.0544 112.224 46.3511C111.945 46.5778 111.59 46.6886 111.232 46.6603H90.733C90.0859 46.6603 89.7624 46.3866 89.7624 45.8391V45.6791C89.8796 45.0897 90.1563 44.5437 90.5623 44.1006C91.0559 43.4967 91.337 42.7471 91.3622 41.9676V23.783C91.337 23.0034 91.0559 22.2538 90.5623 21.6499C90.1559 21.2071 89.8791 20.661 89.7624 20.0714V19.8901C89.7624 19.3426 90.0859 19.0689 90.733 19.0689H100.268C100.915 19.0689 101.238 19.3426 101.238 19.8901V20.0501C101.105 20.6658 100.789 21.227 100.332 21.6606C99.7877 22.2416 99.4698 22.9984 99.436 23.7937V40.901C99.4127 41.5963 99.5865 42.284 99.9372 42.8848C100.098 43.1503 100.327 43.367 100.602 43.5117C100.876 43.6564 101.185 43.7236 101.494 43.706H105.185C106.273 43.7085 107.338 43.3894 108.246 42.7888C108.867 42.2193 109.377 41.5394 109.749 40.7837C110.084 40.0815 110.48 39.4105 110.933 38.7786C111.066 38.5321 111.254 38.3204 111.484 38.161C111.714 38.0016 111.979 37.8989 112.256 37.8614H112.842C112.979 37.8499 113.116 37.8699 113.244 37.9198C113.371 37.9697 113.486 38.0483 113.578 38.1493C113.659 38.2563 113.714 38.3795 113.742 38.5103C113.77 38.6411 113.768 38.7763 113.738 38.9066L112.672 45.2845Z" fill="#F2F1E7"/>
<path d="M77.0599 54.2756H76.9426C76.3166 54.272 75.7056 54.466 75.1962 54.8298C74.6869 55.1936 74.3052 55.7088 74.1056 56.302L67.429 71.3509C66.8469 72.3495 66.6785 73.5361 66.9597 74.6572C67.2726 75.4322 68.0405 75.8197 69.2635 75.8197H70.4687C72.0813 75.7783 73.6316 75.1876 74.8628 74.1453C76.4548 72.8059 77.6929 71.0953 78.4677 69.1645C80.0513 65.942 80.8412 62.3876 80.7715 58.7977C80.5795 55.7758 79.3565 54.2649 77.1026 54.2649" fill="#F2F1E7"/>
</svg>
