<svg width="184" height="184" viewBox="0 0 184 184" fill="none" xmlns="http://www.w3.org/2000/svg">
<rect width="184" height="184" rx="92" fill="#83BFCB"/>
<g clip-path="url(#clip0_3_929)">
<path d="M140.59 105.095H43.41V111.165H140.59V105.095Z" stroke="#F2F1E7" stroke-width="3.23" stroke-linecap="round" stroke-linejoin="round"/>
<path d="M46.8 105.095C46.8 93.6178 51.3594 82.6106 59.475 74.495C67.5906 66.3793 78.5978 61.82 90.0751 61.82C101.552 61.82 112.559 66.3793 120.675 74.495C128.791 82.6106 133.35 93.6178 133.35 105.095" stroke="#F2F1E7" stroke-width="3.23" stroke-linecap="round" stroke-linejoin="round"/>
<path d="M90.1101 61.815C94.197 61.815 97.5101 58.5019 97.5101 54.415C97.5101 50.3281 94.197 47.015 90.1101 47.015C86.0232 47.015 82.7101 50.3281 82.7101 54.415C82.7101 58.5019 86.0232 61.815 90.1101 61.815Z" stroke="#F2F1E7" stroke-width="3.23" stroke-linecap="round" stroke-linejoin="round"/>
<path d="M65.86 111.165L71.41 115.725C73.8084 117.676 76.8084 118.736 79.9 118.725H91.98C93.0183 118.725 94.0141 119.138 94.7483 119.872C95.4825 120.606 95.895 121.602 95.895 122.64C95.895 123.678 95.4825 124.674 94.7483 125.408C94.0141 126.143 93.0183 126.555 91.98 126.555H93.63C96.1419 126.554 98.5812 125.712 100.56 124.165L116.17 112.005C116.994 111.405 118.017 111.147 119.027 111.284C120.037 111.421 120.954 111.943 121.588 112.741C122.222 113.539 122.523 114.551 122.428 115.565C122.334 116.58 121.851 117.518 121.08 118.185L101.86 133.715C99.2444 135.829 95.9833 136.983 92.62 136.985H70.48C65.7702 136.985 61.1393 135.776 57.03 133.475L45.5 127.015" stroke="#F2F1E7" stroke-width="3.23" stroke-linecap="round" stroke-linejoin="round"/>
</g>
<defs>
<clipPath id="clip0_3_929">
<rect width="100.4" height="93.19" fill="white" transform="translate(41.8 45.405)"/>
</clipPath>
</defs>
</svg>
