<svg width="215" height="98" viewBox="0 0 215 98" fill="none" xmlns="http://www.w3.org/2000/svg">
<path d="M8.66779 93.7779C8.67013 93.5561 8.63042 93.3359 8.55078 93.129C8.4577 92.9028 8.3118 92.7022 8.12529 92.5439C7.88233 92.3433 7.60957 92.1818 7.31686 92.0653C6.93896 91.8977 6.54753 91.7625 6.14676 91.661C5.58971 91.5092 5.04552 91.3136 4.51927 91.076C4.02578 90.8596 3.56412 90.5769 3.14706 90.2357C2.76054 89.9172 2.43909 89.5271 2.20035 89.0868C1.95751 88.6211 1.83674 88.1014 1.84932 87.5764C1.8421 87.0552 1.96262 86.5403 2.20035 86.0765C2.43373 85.6264 2.76439 85.234 3.16834 84.9277C3.6089 84.5957 4.10637 84.347 4.63628 84.1937C5.23028 84.0191 5.84678 83.9331 6.46588 83.9384C7.11651 83.9267 7.76427 84.0274 8.38058 84.2363C8.91785 84.4258 9.4129 84.7185 9.83788 85.0979C10.2513 85.4547 10.5817 85.8976 10.8059 86.3955C11.0301 86.8935 11.1426 87.4345 11.1356 87.9806H8.66779C8.65911 87.7042 8.60521 87.4311 8.50823 87.1721C8.41882 86.9344 8.27703 86.7199 8.09338 86.5445C7.89827 86.3598 7.66625 86.2184 7.4126 86.1297C7.10452 86.025 6.78058 85.9746 6.45524 85.9808C6.15321 85.9746 5.85197 86.014 5.56172 86.0978C5.32189 86.1674 5.09789 86.283 4.90221 86.4382C4.7294 86.5787 4.59113 86.757 4.49799 86.9594C4.40505 87.163 4.35785 87.3845 4.35971 87.6083C4.35574 87.849 4.4223 88.0857 4.55118 88.289C4.68972 88.5013 4.87083 88.6824 5.08304 88.8209C5.35024 88.9964 5.63554 89.1426 5.93402 89.257C6.30301 89.398 6.67941 89.5188 7.06157 89.6187C7.62911 89.7818 8.1809 89.9954 8.71034 90.2569C9.18488 90.4887 9.62226 90.7898 10.0081 91.1505C10.3605 91.4831 10.6458 91.8804 10.8484 92.3206C11.0518 92.7828 11.1534 93.2835 11.1463 93.7885C11.1607 94.3036 11.0503 94.8146 10.8243 95.2777C10.5983 95.7408 10.2635 96.1423 9.84852 96.4478C9.40541 96.761 8.90749 96.9883 8.38058 97.118C7.78085 97.2802 7.1616 97.359 6.54034 97.352C6.12668 97.3536 5.71371 97.318 5.30642 97.2456C4.90159 97.1705 4.50582 97.0528 4.12569 96.8946C3.74954 96.7417 3.39254 96.5453 3.06197 96.3095C2.7428 96.0797 2.45959 95.8036 2.22162 95.4905C1.98099 95.1681 1.79419 94.8089 1.66849 94.4267C1.5291 94.0048 1.4608 93.5627 1.46638 93.1184H3.97677C3.97017 93.4831 4.03898 93.8452 4.17888 94.1821C4.29406 94.4514 4.47293 94.6886 4.7001 94.8735C4.93846 95.0608 5.21409 95.195 5.50853 95.2671C5.85578 95.3571 6.21356 95.4001 6.57225 95.3947C6.87419 95.3992 7.17518 95.3598 7.46578 95.2777C7.70339 95.2129 7.92698 95.1047 8.12529 94.9586C8.30076 94.8267 8.44284 94.6554 8.54014 94.4586C8.63832 94.2602 8.68928 94.0418 8.68906 93.8204" fill="#F2F1E7"/>
<path d="M28.9317 86.1828H24.9109V97.1817H22.3792V86.1828H18.4009V84.1191H28.9317V86.1828Z" fill="#F2F1E7"/>
<path d="M45.4937 84.1191V92.7779C45.5052 93.4389 45.4044 94.0971 45.1959 94.7245C45.0128 95.2608 44.7152 95.7508 44.3236 96.1605C43.9325 96.5597 43.4561 96.8652 42.9302 97.054C42.3296 97.2682 41.6955 97.3727 41.058 97.3625C40.4519 97.3699 39.8497 97.2653 39.2816 97.054C38.7683 96.8634 38.3034 96.562 37.92 96.1711C37.5492 95.7553 37.2701 95.266 37.101 94.7351C36.8863 94.1089 36.7819 93.4503 36.7925 92.7885V84.1191H39.2284V92.7779C39.1896 93.4485 39.3526 94.1154 39.6964 94.6925C39.8428 94.9041 40.0409 95.0747 40.2717 95.1883C40.5025 95.3018 40.7585 95.3545 41.0155 95.3414C41.2968 95.3628 41.579 95.3126 41.8357 95.1954C42.0924 95.0782 42.3153 94.8979 42.4834 94.6713C42.8487 94.1021 43.0238 93.4317 42.9833 92.7566V84.1191H45.4937Z" fill="#F2F1E7"/>
<path d="M54.1951 97.1819V84.1193H57.5777C58.3833 84.1095 59.1827 84.2614 59.9285 84.5661C60.6076 84.8469 61.2201 85.2673 61.7262 85.8C62.237 86.3461 62.6314 86.9903 62.8857 87.6935C63.1638 88.4714 63.3007 89.2927 63.2899 90.1187V91.1825C63.3016 92.0086 63.1647 92.8301 62.8857 93.6078C62.6351 94.3079 62.2483 94.9515 61.7475 95.5012C61.26 96.0567 60.6575 96.4995 59.9817 96.7989C59.2604 97.0972 58.4859 97.2456 57.7054 97.2351L54.1951 97.1819ZM56.7267 86.1617V95.1502H57.6947C58.1313 95.1582 58.5641 95.0673 58.9605 94.8842C59.3338 94.7049 59.6584 94.4386 59.9073 94.1077C60.1827 93.7343 60.3849 93.3119 60.5029 92.8632C60.645 92.3217 60.713 91.7635 60.7051 91.2037V90.14C60.714 89.5872 60.646 89.0359 60.5029 88.5019C60.3932 88.0423 60.1944 87.6086 59.9179 87.2254C59.6566 86.8816 59.3176 86.6045 58.9286 86.417C58.5036 86.2303 58.0416 86.143 57.5777 86.1617H56.7267Z" fill="#F2F1E7"/>
<path d="M72.2571 84.1191H79.8095V86.1615H77.2566V95.1606H79.8095V97.1817H72.2571V95.1606H74.7462V86.1615H72.2571V84.1191Z" fill="#F2F1E7"/>
<path d="M98.2651 91.6184C98.2741 92.4037 98.1629 93.1857 97.9354 93.9373C97.7376 94.6001 97.4124 95.218 96.978 95.7563C96.5631 96.2631 96.0397 96.6703 95.4463 96.9477C94.8092 97.2391 94.115 97.3845 93.4146 97.3731C92.7208 97.386 92.0332 97.2405 91.4041 96.9477C90.824 96.6634 90.3178 96.2483 89.9256 95.735C89.5088 95.1917 89.1984 94.5746 89.0107 93.916C88.7936 93.166 88.6861 92.3886 88.6916 91.6078V89.7143C88.6858 88.93 88.7933 88.149 89.0107 87.3954C89.1969 86.7331 89.5074 86.1122 89.9256 85.5658C90.3071 85.0686 90.7939 84.6617 91.3509 84.3744C91.9758 84.0803 92.6602 83.9347 93.3507 83.949C94.0549 83.935 94.7531 84.0804 95.3931 84.3744C95.9866 84.6564 96.5098 85.067 96.9248 85.5765C97.3588 86.119 97.6839 86.7402 97.8822 87.4061C98.1095 88.1577 98.2207 88.9397 98.212 89.725L98.2651 91.6184ZM95.7122 89.6931C95.723 89.2015 95.6874 88.71 95.6058 88.2251C95.5356 87.8191 95.3991 87.4274 95.2016 87.0657C95.0301 86.7589 94.7852 86.4994 94.4889 86.3104C94.1683 86.118 93.799 86.0219 93.4252 86.0339C93.0507 86.0148 92.6793 86.1114 92.3615 86.3104C92.0804 86.5014 91.8533 86.7615 91.702 87.0657C91.5243 87.4311 91.4059 87.8225 91.3509 88.2251C91.2771 88.7109 91.2416 89.2017 91.2446 89.6931V91.6184C91.2419 92.1062 91.2775 92.5935 91.3509 93.0757C91.4097 93.4822 91.5317 93.877 91.7126 94.2458C91.8613 94.5575 92.0886 94.8251 92.3721 95.0223C92.6891 95.2233 93.0611 95.32 93.4358 95.2989C93.81 95.3139 94.1801 95.2177 94.4996 95.0223C94.7972 94.8303 95.0421 94.5671 95.2123 94.2564C95.4037 93.8893 95.5365 93.4945 95.6058 93.0863C95.7004 92.6028 95.7467 92.1111 95.7441 91.6184L95.7122 89.6931Z" fill="#F2F1E7"/>
<path d="M12.6354 49.3035C9.56394 49.3176 6.62304 50.5476 4.45614 52.7245C2.28923 54.9014 1.07272 57.8479 1.07275 60.9194V78.3538H6.88068V60.9194C6.88068 59.379 7.49259 57.9018 8.58179 56.8126C9.67099 55.7234 11.1483 55.1115 12.6886 55.1115C14.229 55.1115 15.7062 55.7234 16.7954 56.8126C17.8846 57.9018 18.4965 59.379 18.4965 60.9194V78.3538H24.3364V60.9194C24.3364 59.3868 24.0332 57.8693 23.4441 56.4545C22.855 55.0396 21.9918 53.7553 20.9042 52.6755C19.8165 51.5958 18.5259 50.7419 17.1068 50.1632C15.6876 49.5845 14.168 49.2923 12.6354 49.3035Z" fill="#F2F1E7"/>
<path d="M12.6354 49.3035C9.56394 49.3176 6.62304 50.5476 4.45614 52.7245C2.28923 54.9014 1.07272 57.8479 1.07275 60.9194V78.3538H6.88068V60.9194C6.88068 59.379 7.49259 57.9018 8.58179 56.8126C9.67099 55.7234 11.1483 55.1115 12.6886 55.1115C14.229 55.1115 15.7062 55.7234 16.7954 56.8126C17.8846 57.9018 18.4965 59.379 18.4965 60.9194V78.3538H24.3364V60.9194C24.3364 59.3868 24.0332 57.8693 23.4441 56.4545C22.855 55.0396 21.9918 53.7553 20.9042 52.6755C19.8165 51.5958 18.5259 50.7419 17.1068 50.1632C15.6876 49.5845 14.168 49.2923 12.6354 49.3035Z" fill="#F2F1E7" stroke="#2C285B" stroke-width="0.25" stroke-miterlimit="10"/>
<path d="M107.583 49.3035H101.775V78.3538H107.583V49.3035Z" fill="#F2F1E7"/>
<path d="M107.583 49.3035H101.775V78.3538H107.583V49.3035Z" fill="#F2F1E7" stroke="#2C285B" stroke-width="0.25" stroke-miterlimit="10"/>
<path d="M140.506 49.3035H134.698V72.5458C134.698 74.0862 135.31 75.5635 136.399 76.6527C137.488 77.7419 138.965 78.3538 140.506 78.3538H142.41V72.5458C141.896 72.5458 141.404 72.3419 141.041 71.9788C140.678 71.6157 140.474 71.1233 140.474 70.6098L140.506 49.3035Z" fill="#F2F1E7"/>
<path d="M140.506 49.3035H134.698V72.5458C134.698 74.0862 135.31 75.5635 136.399 76.6527C137.488 77.7419 138.965 78.3538 140.506 78.3538H142.41V72.5458C141.896 72.5458 141.404 72.3419 141.041 71.9788C140.678 71.6157 140.474 71.1233 140.474 70.6098L140.506 49.3035Z" fill="#F2F1E7" stroke="#2C285B" stroke-width="0.25" stroke-miterlimit="10"/>
<path d="M94.0316 60.9195V78.354H99.8608V60.9195C99.8608 57.8374 98.6364 54.8815 96.457 52.7021C94.2776 50.5227 91.3217 49.2983 88.2396 49.2983C85.1575 49.2983 82.2016 50.5227 80.0222 52.7021C77.8428 54.8815 76.6184 57.8374 76.6184 60.9195V78.354H82.4263V60.9195C82.4263 59.3778 83.0388 57.8991 84.129 56.8089C85.2192 55.7187 86.6978 55.1063 88.2396 55.1063C89.7814 55.1063 91.26 55.7187 92.3502 56.8089C93.4404 57.8991 94.0528 59.3778 94.0528 60.9195" fill="#F2F1E7"/>
<path d="M94.0316 60.9195V78.354H99.8608V60.9195C99.8608 57.8374 98.6364 54.8815 96.457 52.7021C94.2776 50.5227 91.3217 49.2983 88.2396 49.2983C85.1575 49.2983 82.2016 50.5227 80.0222 52.7021C77.8428 54.8815 76.6184 57.8374 76.6184 60.9195V78.354H82.4263V60.9195C82.4263 59.3778 83.0388 57.8991 84.129 56.8089C85.2192 55.7187 86.6978 55.1063 88.2396 55.1063C89.7814 55.1063 91.26 55.7187 92.3502 56.8089C93.4404 57.8991 94.0528 59.3778 94.0528 60.9195H94.0316Z" fill="#F2F1E7" stroke="#2C285B" stroke-width="0.25" stroke-miterlimit="10"/>
<path d="M173.428 60.9194H167.62V78.3539H173.428V60.9194Z" fill="#F2F1E7"/>
<path d="M173.428 60.9194H167.62V78.3539H173.428V60.9194Z" fill="#F2F1E7" stroke="#2C285B" stroke-width="0.25" stroke-miterlimit="10"/>
<path d="M190.862 60.9194H185.054V78.3539H190.862V60.9194Z" fill="#F2F1E7"/>
<path d="M190.862 60.9194H185.054V78.3539H190.862V60.9194Z" fill="#F2F1E7" stroke="#2C285B" stroke-width="0.25" stroke-miterlimit="10"/>
<path d="M179.236 49.3035C176.155 49.3035 173.201 50.5273 171.022 52.7057C168.844 54.8841 167.62 57.8386 167.62 60.9193H173.428C173.428 60.1566 173.578 59.4014 173.87 58.6967C174.162 57.9921 174.59 57.3518 175.129 56.8125C175.668 56.2732 176.309 55.8454 177.013 55.5535C177.718 55.2616 178.473 55.1114 179.236 55.1114C179.999 55.1114 180.754 55.2616 181.458 55.5535C182.163 55.8454 182.803 56.2732 183.343 56.8125C183.882 57.3518 184.31 57.9921 184.602 58.6967C184.894 59.4014 185.044 60.1566 185.044 60.9193H190.852C190.852 57.8386 189.628 54.8841 187.45 52.7057C185.271 50.5273 182.317 49.3035 179.236 49.3035Z" fill="#F2F1E7"/>
<path d="M179.236 49.3035C176.155 49.3035 173.201 50.5273 171.022 52.7057C168.844 54.8841 167.62 57.8386 167.62 60.9193H173.428C173.428 60.1566 173.578 59.4014 173.87 58.6967C174.162 57.9921 174.59 57.3518 175.129 56.8125C175.668 56.2732 176.309 55.8454 177.013 55.5535C177.718 55.2616 178.473 55.1114 179.236 55.1114C179.999 55.1114 180.754 55.2616 181.458 55.5535C182.163 55.8454 182.803 56.2732 183.343 56.8125C183.882 57.3518 184.31 57.9921 184.602 58.6967C184.894 59.4014 185.044 60.1566 185.044 60.9193H190.852C190.852 57.8386 189.628 54.8841 187.45 52.7057C185.271 50.5273 182.317 49.3035 179.236 49.3035Z" fill="#F2F1E7" stroke="#2C285B" stroke-width="0.25" stroke-miterlimit="10"/>
<path d="M63.0452 78.3538C64.5715 78.3538 66.0829 78.053 67.4929 77.4686C68.9029 76.8842 70.1838 76.0276 71.2626 74.9478C72.3414 73.8681 73.1968 72.5863 73.7799 71.1758C74.363 69.7652 74.6625 68.2536 74.6611 66.7273H68.8531C68.8531 68.2691 68.2407 69.7477 67.1505 70.8379C66.0603 71.9281 64.5817 72.5405 63.0399 72.5405C61.4981 72.5405 60.0195 71.9281 58.9293 70.8379C57.8391 69.7477 57.2266 68.2691 57.2266 66.7273H51.4187C51.4173 68.2545 51.7171 69.767 52.3009 71.1782C52.8847 72.5894 53.741 73.8717 54.8209 74.9516C55.9008 76.0315 57.1831 76.8878 58.5943 77.4716C60.0055 78.0554 61.518 78.3552 63.0452 78.3538Z" fill="#F2F1E7"/>
<path d="M63.0452 78.3538C64.5715 78.3538 66.0829 78.053 67.4929 77.4686C68.9029 76.8842 70.1838 76.0276 71.2626 74.9478C72.3414 73.8681 73.1968 72.5863 73.7799 71.1758C74.363 69.7652 74.6625 68.2536 74.6611 66.7273H68.8531C68.8531 68.2691 68.2407 69.7477 67.1505 70.8379C66.0603 71.9281 64.5817 72.5405 63.0399 72.5405C61.4981 72.5405 60.0195 71.9281 58.9293 70.8379C57.8391 69.7477 57.2266 68.2691 57.2266 66.7273H51.4187C51.4173 68.2545 51.7171 69.767 52.3009 71.1782C52.8847 72.5894 53.741 73.8717 54.8209 74.9516C55.9008 76.0315 57.1831 76.8878 58.5943 77.4716C60.0055 78.0554 61.518 78.3552 63.0452 78.3538Z" fill="#F2F1E7" stroke="#2C285B" stroke-width="0.25" stroke-miterlimit="10"/>
<path d="M49.4828 60.9195C49.4828 57.8374 48.2585 54.8815 46.0791 52.7021C43.8997 50.5227 40.9438 49.2983 37.8617 49.2983C34.7795 49.2983 31.8236 50.5227 29.6442 52.7021C27.4648 54.8815 26.2405 57.8374 26.2405 60.9195V66.7274H49.4828V60.9195ZM32.059 60.9195C32.059 59.3792 32.671 57.9019 33.7601 56.8127C34.8493 55.7235 36.3266 55.1116 37.867 55.1116C39.4073 55.1116 40.8846 55.7235 41.9738 56.8127C43.063 57.9019 43.6749 59.3792 43.6749 60.9195H32.059Z" fill="#F2F1E7"/>
<path d="M49.4828 60.9195C49.4828 57.8374 48.2585 54.8815 46.0791 52.7021C43.8997 50.5227 40.9438 49.2983 37.8617 49.2983C34.7795 49.2983 31.8236 50.5227 29.6442 52.7021C27.4648 54.8815 26.2405 57.8374 26.2405 60.9195V66.7274H49.4828V60.9195ZM32.059 60.9195C32.059 59.3792 32.671 57.9019 33.7601 56.8127C34.8493 55.7235 36.3266 55.1116 37.867 55.1116C39.4073 55.1116 40.8846 55.7235 41.9738 56.8127C43.063 57.9019 43.6749 59.3792 43.6749 60.9195H32.059Z" fill="#F2F1E7" stroke="#2C285B" stroke-width="0.25" stroke-miterlimit="10"/>
<path d="M37.867 78.3538C40.0401 78.3489 42.168 77.7329 44.0076 76.5761C45.8472 75.4193 47.3243 73.7684 48.2702 71.8119L43.2601 68.8016C42.7811 70.0717 41.8707 71.1331 40.6883 71.8C39.5059 72.4668 38.1267 72.6968 36.7919 72.4496C35.4571 72.2024 34.2517 71.4938 33.3865 70.4478C32.5213 69.4017 32.0514 68.0848 32.0591 66.7273H26.2405C26.2391 68.2545 26.5389 69.767 27.1226 71.1782C27.7064 72.5894 28.5628 73.8717 29.6427 74.9516C30.7226 76.0315 32.0048 76.8878 33.4161 77.4716C34.8273 78.0554 36.3398 78.3552 37.867 78.3538Z" fill="#F2F1E7"/>
<path d="M37.867 78.3538C40.0401 78.3489 42.168 77.7329 44.0076 76.5761C45.8472 75.4193 47.3243 73.7684 48.2702 71.8119L43.2601 68.8016C42.7811 70.0717 41.8707 71.1331 40.6883 71.8C39.5059 72.4668 38.1267 72.6968 36.7919 72.4496C35.4571 72.2024 34.2517 71.4938 33.3865 70.4478C32.5213 69.4017 32.0514 68.0848 32.0591 66.7273H26.2405C26.2391 68.2545 26.5389 69.767 27.1226 71.1782C27.7064 72.5894 28.5628 73.8717 29.6427 74.9516C30.7226 76.0315 32.0048 76.8878 33.4161 77.4716C34.8273 78.0554 36.3398 78.3552 37.867 78.3538Z" fill="#F2F1E7" stroke="#2C285B" stroke-width="0.25" stroke-miterlimit="10"/>
<path d="M147.941 60.9195C147.216 60.9153 146.498 61.0545 145.827 61.329C145.156 61.6034 144.546 62.0079 144.032 62.519C143.518 63.03 143.11 63.6377 142.831 64.307C142.553 64.9763 142.41 65.6941 142.41 66.419V66.7381C142.41 68.2707 142.713 69.7882 143.302 71.203C143.891 72.6179 144.754 73.9022 145.842 74.982C146.93 76.0617 148.22 76.9156 149.639 77.4943C151.058 78.073 152.578 78.3652 154.111 78.354C156.156 78.3411 158.161 77.783 159.919 76.7371V78.354H165.726V60.9195H147.941ZM156.759 71.9291C155.956 72.3326 155.07 72.5463 154.171 72.5535C153.272 72.5607 152.383 72.3614 151.573 71.9708C150.764 71.5803 150.054 71.0089 149.5 70.3009C148.946 69.5928 148.562 68.7669 148.377 67.8869C148.352 67.7444 148.359 67.5982 148.397 67.4585C148.434 67.3189 148.502 67.1892 148.596 67.0786C148.689 66.9681 148.805 66.8793 148.937 66.8187C149.068 66.758 149.211 66.7269 149.356 66.7275H159.887V67.0147C159.896 68.054 159.608 69.0744 159.056 69.9548C158.503 70.8353 157.71 71.5389 156.77 71.9822" fill="#F2F1E7"/>
<path d="M147.941 60.9195C147.216 60.9153 146.498 61.0545 145.827 61.329C145.156 61.6034 144.546 62.0079 144.032 62.519C143.518 63.03 143.11 63.6377 142.831 64.307C142.553 64.9763 142.41 65.6941 142.41 66.419V66.7381C142.41 68.2707 142.713 69.7882 143.302 71.203C143.891 72.6179 144.754 73.9022 145.842 74.982C146.93 76.0617 148.22 76.9156 149.639 77.4943C151.058 78.073 152.578 78.3652 154.111 78.354C156.156 78.3411 158.161 77.783 159.919 76.7371V78.354H165.726V60.9195H147.941ZM156.759 71.9291C155.956 72.3326 155.07 72.5463 154.171 72.5535C153.272 72.5607 152.383 72.3614 151.573 71.9708C150.764 71.5803 150.054 71.0089 149.5 70.3009C148.946 69.5928 148.562 68.7669 148.377 67.8869C148.352 67.7444 148.359 67.5982 148.397 67.4585C148.434 67.3189 148.502 67.1892 148.596 67.0786C148.689 66.9681 148.805 66.8793 148.937 66.8187C149.068 66.758 149.211 66.7269 149.356 66.7275H159.887V67.0147C159.887 68.0479 159.594 69.06 159.04 69.9323C158.486 70.8046 157.695 71.5009 156.759 71.9397V71.9291Z" fill="#F2F1E7" stroke="#2C285B" stroke-width="0.25" stroke-miterlimit="10"/>
<path d="M154.111 49.3035C151.938 49.3083 149.81 49.9243 147.97 51.0812C146.13 52.238 144.653 53.8889 143.707 55.8454L148.718 58.8557C149.197 57.5855 150.107 56.5242 151.289 55.8573C152.472 55.1904 153.851 54.9605 155.186 55.2077C156.52 55.4548 157.726 56.1634 158.591 57.2095C159.456 58.2556 159.926 59.5725 159.919 60.93H165.726C165.728 59.4037 165.428 57.892 164.845 56.4815C164.262 55.071 163.407 53.7892 162.328 52.7094C161.249 51.6297 159.968 50.7731 158.558 50.1887C157.148 49.6043 155.637 49.3035 154.111 49.3035Z" fill="#F2F1E7"/>
<path d="M154.111 49.3035C151.938 49.3083 149.81 49.9243 147.97 51.0812C146.13 52.238 144.653 53.8889 143.707 55.8454L148.718 58.8557C149.197 57.5855 150.107 56.5242 151.289 55.8573C152.472 55.1904 153.851 54.9605 155.186 55.2077C156.52 55.4548 157.726 56.1634 158.591 57.2095C159.456 58.2556 159.926 59.5725 159.919 60.93H165.726C165.728 59.4037 165.428 57.892 164.845 56.4815C164.262 55.071 163.407 53.7892 162.328 52.7094C161.249 51.6297 159.968 50.7731 158.558 50.1887C157.148 49.6043 155.637 49.3035 154.111 49.3035Z" fill="#F2F1E7" stroke="#2C285B" stroke-width="0.25" stroke-miterlimit="10"/>
<path d="M121.135 55.1116C122.302 55.1155 123.441 55.4722 124.401 56.1347C125.362 56.7972 126.099 57.7346 126.518 58.824L131.485 55.8455" stroke="#2C285B" stroke-width="0.25" stroke-miterlimit="10"/>
<path d="M57.2266 60.9195C57.2266 59.3777 57.8391 57.8991 58.9293 56.8089C60.0195 55.7187 61.4981 55.1063 63.0399 55.1063C64.5816 55.1063 66.0603 55.7187 67.1505 56.8089C68.2407 57.8991 68.8531 59.3777 68.8531 60.9195V66.7274H74.6611V60.9195C74.6611 57.8374 73.4367 54.8815 71.2573 52.7021C69.0779 50.5227 66.122 49.2983 63.0399 49.2983C59.9578 49.2983 57.0019 50.5227 54.8225 52.7021C52.6431 54.8815 51.4187 57.8374 51.4187 60.9195V66.7274H57.2266V60.9195Z" fill="#F2F1E7"/>
<path d="M57.2266 60.9195C57.2266 59.3777 57.8391 57.8991 58.9293 56.8089C60.0195 55.7187 61.4981 55.1063 63.0399 55.1063C64.5816 55.1063 66.0603 55.7187 67.1505 56.8089C68.2407 57.8991 68.8531 59.3777 68.8531 60.9195V66.7274H74.6611V60.9195C74.6611 57.8374 73.4367 54.8815 71.2573 52.7021C69.0779 50.5227 66.122 49.2983 63.0399 49.2983C59.9578 49.2983 57.0019 50.5227 54.8225 52.7021C52.6431 54.8815 51.4187 57.8374 51.4187 60.9195V66.7274H57.2266V60.9195Z" fill="#F2F1E7" stroke="#2C285B" stroke-width="0.25" stroke-miterlimit="10"/>
<path d="M1.6897 45.602H98.9672C98.9124 41.4924 98.3333 37.4066 97.244 33.4436H3.40229C2.31656 37.407 1.74105 41.4928 1.6897 45.602Z" fill="#F2F1E7"/>
<path d="M4.34888 30.4012H96.2972C95.2592 27.2259 93.8939 24.1672 92.2231 21.2744H8.43358C6.75973 24.1633 5.3908 27.2185 4.34888 30.3905" fill="#F2F1E7"/>
<path d="M12.6355 15.2007H88.011C86.2516 13.0076 84.3047 10.9718 82.1924 9.11621H18.4647C16.3496 10.9722 14.3992 13.008 12.6355 15.2007Z" fill="#F2F1E7"/>
<path d="M66.7364 0H33.9099C31.6084 0.841218 29.3751 1.8583 27.2297 3.04225H73.4166C71.2709 1.85887 69.0377 0.8418 66.7364 0" fill="#F2F1E7"/>
<path d="M202.468 55.1008C204.006 55.1036 205.481 55.7167 206.567 56.8056C207.654 57.8945 208.265 59.3702 208.265 60.9087V66.7166C208.265 68.2551 207.654 69.7308 206.567 70.8197C205.481 71.9086 204.006 72.5217 202.468 72.5246V78.3325C205.545 78.3325 208.497 77.1098 210.674 74.9334C212.85 72.757 214.073 69.8052 214.073 66.7273V60.9087C214.073 57.8308 212.85 54.879 210.674 52.7026C208.497 50.5262 205.545 49.3035 202.468 49.3035V55.1008Z" fill="#F2F1E7"/>
<path d="M202.468 55.1008C204.006 55.1036 205.481 55.7167 206.567 56.8056C207.654 57.8945 208.265 59.3702 208.265 60.9087V66.7166C208.265 68.2551 207.654 69.7308 206.567 70.8197C205.481 71.9086 204.006 72.5217 202.468 72.5246V78.3325C205.545 78.3325 208.497 77.1098 210.674 74.9334C212.85 72.757 214.073 69.8052 214.073 66.7273V60.9087C214.073 57.8308 212.85 54.879 210.674 52.7026C208.497 50.5262 205.545 49.3035 202.468 49.3035V55.1008Z" fill="#F2F1E7" stroke="#2C285B" stroke-width="0.25" stroke-miterlimit="10"/>
<path d="M198.606 78.3218V76.705V66.7273V60.9087V50.9097V49.3035H192.798V78.3218H198.606Z" fill="#F2F1E7"/>
<path d="M198.606 78.3218V76.705V66.7273V60.9087V50.9097V49.3035H192.798V78.3218H198.606Z" fill="#F2F1E7" stroke="#2C285B" stroke-width="0.25" stroke-miterlimit="10"/>
<path d="M202.468 78.3218H198.606V72.5139H202.468" fill="#F2F1E7"/>
<path d="M202.468 49.3035H198.606V55.1008H202.468" fill="#F2F1E7"/>
</svg>
