<svg width="184" height="184" viewBox="0 0 184 184" fill="none" xmlns="http://www.w3.org/2000/svg">
<rect width="184" height="184" rx="92" fill="#83BFCB"/>
<path d="M62.5549 112.854V107.854C62.5549 101.454 66.8549 96.2739 72.1649 96.2739L74.6473 111.508L70.3349 116.694C67.4649 120.194 62.5549 117.694 62.5549 112.854Z" stroke="#F2F1E7" stroke-width="3.23" stroke-miterlimit="10"/>
<path d="M121.445 112.854V107.854C121.445 101.454 117.145 96.2739 111.835 96.2739L109.507 111.694L113.665 116.694C116.535 120.194 121.445 117.694 121.445 112.854Z" stroke="#F2F1E7" stroke-width="3.23" stroke-miterlimit="10"/>
<path d="M100.765 117.984H83.2349C80.9713 117.985 78.7937 117.117 77.1509 115.56C75.5081 114.002 74.5253 111.874 74.4049 109.614L69.6049 76.614C68.9086 63.5936 72.4869 50.7025 79.7949 39.904L84.1349 33.484C85.0054 32.1991 86.1774 31.147 87.5485 30.4198C88.9196 29.6926 90.4479 29.3124 91.9999 29.3124C93.5519 29.3124 95.0803 29.6926 96.4513 30.4198C97.8224 31.147 98.9944 32.1991 99.8649 33.484L104.205 39.904C111.509 50.6969 115.087 63.5804 114.395 76.594L109.595 109.594C109.48 111.858 108.499 113.991 106.855 115.552C105.212 117.114 103.032 117.984 100.765 117.984V117.984Z" stroke="#F2F1E7" stroke-width="3.23" stroke-miterlimit="10"/>
<path d="M100.435 136.854L98.6248 124.414C98.5966 123.916 98.456 123.43 98.2136 122.994C97.9711 122.557 97.6331 122.181 97.2248 121.894C97.2431 124.707 96.4137 127.46 94.8448 129.794L93.8448 131.294C93.6412 131.593 93.3676 131.838 93.0478 132.007C92.7279 132.176 92.3716 132.265 92.0098 132.265C91.648 132.265 91.2917 132.176 90.9719 132.007C90.6521 131.838 90.3785 131.593 90.1748 131.294L89.1748 129.794C87.602 127.461 86.7722 124.707 86.7948 121.894C86.3865 122.181 86.0485 122.557 85.8061 122.994C85.5636 123.43 85.4231 123.916 85.3948 124.414L83.5848 136.854C83.3148 141.761 84.6563 146.621 87.4048 150.694L89.0448 153.114C89.3728 153.599 89.8146 153.996 90.3315 154.27C90.8484 154.544 91.4246 154.688 92.0098 154.688C92.595 154.688 93.1713 154.544 93.6882 154.27C94.2051 153.996 94.6469 153.599 94.9748 153.114L96.6048 150.694C99.3583 146.626 100.707 141.769 100.445 136.864" fill="#F2F1E7"/>
<path d="M92.0048 72.0639C96.4618 72.0639 100.075 68.4509 100.075 63.9939C100.075 59.537 96.4618 55.924 92.0048 55.924C87.5479 55.924 83.9348 59.537 83.9348 63.9939C83.9348 68.4509 87.5479 72.0639 92.0048 72.0639Z" stroke="#F2F1E7" stroke-width="3.23" stroke-miterlimit="10"/>
<path d="M70.2249 81.734H113.775" stroke="#F2F1E7" stroke-width="3.23" stroke-miterlimit="10"/>
</svg>
