<svg width="231" height="90" viewBox="0 0 231 90" fill="none" xmlns="http://www.w3.org/2000/svg">
<path d="M93.5716 30.1074C93.4619 31.37 93.0494 32.5888 92.3683 33.6628C92.0707 34.0951 91.7258 34.4937 91.3397 34.8513C90.99 35.1493 90.5649 35.4879 90.0644 35.8671C89.6352 36.1521 89.2476 36.4939 88.9124 36.883C88.6528 37.2887 88.5303 37.7653 88.5627 38.2442C88.5564 38.5535 88.6283 38.8596 88.772 39.1345C88.9157 39.4095 89.1265 39.6446 89.3855 39.8187C90.044 40.2431 90.8221 40.4495 91.6072 40.4079C92.7103 40.3994 93.8123 40.335 94.9087 40.2149C95.8025 40.0982 96.7021 40.0303 97.6035 40.0117C98.3371 40.0117 99.3657 40.0795 100.689 40.2149C102.012 40.3503 102.979 40.4147 103.589 40.4079C104.375 40.4495 105.153 40.2431 105.811 39.8187C106.07 39.6446 106.281 39.4095 106.425 39.1345C106.568 38.8596 106.64 38.5535 106.634 38.2442C106.666 37.7653 106.544 37.2887 106.284 36.883C105.949 36.4941 105.561 36.1523 105.132 35.8671C104.632 35.5082 104.207 35.1696 103.857 34.8513C103.471 34.4937 103.126 34.0951 102.828 33.6628C102.117 32.5965 101.677 31.3771 101.543 30.1074C101.287 28.1436 101.171 26.1648 101.193 24.185V19.7357C101.193 15.6724 101.258 12.8924 101.388 11.3957C101.507 9.99772 101.741 8.61162 102.088 7.25109C102.375 6.20338 102.538 5.12604 102.571 4.04106C102.604 3.60958 102.544 3.17619 102.397 2.76863C102.25 2.36106 102.019 1.98829 101.718 1.67417C101.285 1.25965 100.715 1.01421 100.113 0.983398C99.2148 0.983398 97.7337 1.5929 95.6698 2.8119C94.7853 3.2995 93.7362 3.84128 92.5225 4.43723C91.6358 4.82878 90.7828 5.29081 89.9718 5.81877C89.6254 6.02733 89.3351 6.3154 89.1256 6.6585C88.9161 7.0016 88.7936 7.38959 88.7684 7.78949C88.7753 8.14817 88.8782 8.49866 89.0667 8.80532C89.2119 9.07882 89.4072 9.32336 89.6427 9.52656C89.9197 9.75218 90.2118 9.9592 90.5169 10.1462C91.1783 10.5667 91.7743 11.08 92.286 11.67C92.8583 12.5311 93.2564 13.4936 93.4585 14.5041C93.841 16.3038 94.0101 18.1412 93.9625 19.9795V24.185C93.9844 26.1648 93.8675 28.1436 93.6128 30.1074" fill="#F2F1E7"/>
<path d="M110.481 39.0365C112.71 40.2924 115.237 40.9409 117.804 40.9158C120.404 40.9475 122.968 40.3178 125.25 39.0873C127.499 37.8502 129.338 35.9984 130.547 33.7542C130.842 33.3264 131.029 32.8354 131.092 32.3219C131.081 32.1418 131.026 31.9672 130.931 31.8132C130.836 31.6592 130.704 31.5304 130.547 31.4381C130.377 31.3003 130.17 31.2154 129.951 31.1943C129.365 31.2901 128.832 31.5891 128.449 32.0374C127.571 32.7203 126.569 33.2306 125.497 33.5409C124.27 33.9237 122.989 34.1156 121.702 34.1097C119.915 34.1135 118.153 33.6993 116.559 32.9009C114.904 32.0588 113.564 30.7172 112.733 29.0712C112.416 28.4153 112.151 27.7361 111.941 27.0395C111.897 26.9049 111.887 26.7617 111.912 26.6223C111.937 26.483 111.996 26.3519 112.085 26.2405C112.173 26.1291 112.288 26.0409 112.419 25.9836C112.55 25.9263 112.693 25.9017 112.836 25.912L124.17 26.7856C125.031 26.7648 125.887 26.6489 126.721 26.4402C127.405 26.0126 127.964 25.4177 128.346 24.7133C128.622 24.0332 128.741 23.3011 128.696 22.5699C128.696 19.116 127.746 16.5324 125.847 14.8191C123.948 13.1057 121.284 12.249 117.855 12.249C114.594 12.2169 111.42 13.2928 108.866 15.2965C107.964 15.9906 107.152 16.7925 106.449 17.6837C104.43 20.1958 103.341 23.3142 103.363 26.5215C103.305 29.1013 103.951 31.649 105.235 33.8964C106.482 36.0513 108.294 37.834 110.481 39.0568V39.0365ZM111.705 19.1668C112.097 18.1742 112.795 17.3284 113.7 16.7491C114.498 16.2194 115.433 15.9268 116.395 15.906C117.007 15.9016 117.612 16.038 118.162 16.3042C118.711 16.5704 119.191 16.9592 119.563 17.4399C120.303 18.3338 120.797 19.2887 120.9 21.7978C120.907 21.9475 120.883 22.0969 120.83 22.2372C120.776 22.3774 120.695 22.5056 120.59 22.6138C120.485 22.7221 120.359 22.8082 120.22 22.867C120.08 22.9258 119.93 22.956 119.779 22.9559L111.828 22.8645C111.719 22.8619 111.611 22.8376 111.511 22.7929C111.411 22.7482 111.322 22.6841 111.248 22.6044C111.174 22.5247 111.117 22.4311 111.081 22.3292C111.044 22.2272 111.029 22.119 111.036 22.0112C111.076 21.0267 111.292 20.0569 111.674 19.1465" fill="#F2F1E7"/>
<path d="M131.072 19.0043C131.5 19.2437 131.951 19.441 132.419 19.5935C132.983 19.777 133.527 20.0152 134.044 20.3045C134.513 20.6285 134.872 21.0854 135.073 21.615C135.392 22.4512 135.536 23.343 135.494 24.2358C135.494 29.2676 134.977 32.4573 133.941 33.805C133.376 34.4961 132.738 35.126 132.038 35.6843C131.616 36.0017 131.239 36.3742 130.917 36.7915C130.668 37.2341 130.553 37.7387 130.588 38.2442C130.587 38.5673 130.664 38.8861 130.812 39.1741C130.961 39.4621 131.176 39.7109 131.442 39.9C132.077 40.3641 132.854 40.5974 133.643 40.5603C134.674 40.5558 135.705 40.4913 136.729 40.3673C137.54 40.2519 138.357 40.1874 139.176 40.1742C140.064 40.1633 140.95 40.245 141.82 40.418C142.019 40.418 142.303 40.4519 142.673 40.5196C143.033 40.5196 143.373 40.5196 143.702 40.5196C144.365 40.5342 145.009 40.298 145.502 39.8593C145.746 39.6466 145.94 39.3834 146.069 39.0885C146.199 38.7936 146.262 38.4742 146.253 38.1527C146.236 37.5543 146.092 36.966 145.831 36.4258C145.55 35.8028 145.077 34.9156 144.412 33.7643C143.227 31.6502 142.608 29.2728 142.612 26.8567C142.568 25.0983 142.945 23.3546 143.712 21.7673C144.431 20.3107 145.669 19.1675 147.189 18.5573C147.892 18.225 148.662 18.0548 149.441 18.0595C150.534 18.0647 151.596 18.4213 152.465 19.0754C153.41 19.7538 154.164 20.6594 154.656 21.7064C155.197 22.8759 155.471 24.1487 155.458 25.4345C155.446 26.5932 155.245 27.7424 154.861 28.8375C154.425 30.2472 153.828 31.6035 153.082 32.8806C152.436 33.8869 151.71 34.8414 150.912 35.7351L150.614 36.1007L150.449 36.2531C149.597 37.0808 149.054 38.1697 148.91 39.3416C148.767 40.5134 149.03 41.6988 149.657 42.7037C149.881 43.0713 150.146 43.4121 150.449 43.7195C150.937 44.2198 151.524 44.6158 152.173 44.8831C152.823 45.1505 153.52 45.2834 154.224 45.2737C154.949 45.29 155.669 45.1565 156.338 44.8819C157.008 44.6072 157.612 44.1975 158.112 43.6789C158.607 43.1989 159 42.6248 159.265 41.991C159.53 41.3573 159.663 40.6771 159.654 39.9914C159.674 39.2967 159.547 38.6055 159.281 37.9619C159.016 37.3183 158.617 36.7364 158.112 36.2531C157.24 35.385 156.084 34.852 154.851 34.7497H155.417C156.218 34.7353 157.013 34.8809 157.755 35.1777C158.498 35.4744 159.171 35.9162 159.737 36.4766C160.533 37.2287 161.094 38.1915 161.351 39.2498C161.454 39.6562 161.506 40.5806 162.38 40.5806H162.894C163.657 40.6212 164.412 40.4143 165.044 39.9914C165.301 39.8091 165.515 39.5739 165.671 39.3021C165.827 39.0303 165.922 38.7283 165.949 38.4169C166.031 37.8149 165.953 37.2022 165.723 36.6391C165.334 35.9566 164.837 35.3394 164.252 34.8106C163.583 34.1793 163.048 33.4231 162.678 32.586C162.322 31.6099 162.162 30.575 162.205 29.5385C162.266 27.589 162.448 25.6451 162.75 23.7177C162.887 22.8678 162.952 22.0082 162.946 21.1477C162.946 18.1882 162.147 15.9263 160.549 14.3619C159.671 13.5609 158.638 12.9429 157.512 12.545C156.386 12.147 155.191 11.9772 153.997 12.0458C151.689 11.999 149.41 12.5713 147.405 13.7016C145.935 14.5609 144.671 15.7255 143.702 17.1148C143.641 17.1973 143.555 17.2585 143.457 17.2893C143.358 17.3201 143.253 17.3189 143.155 17.286C143.057 17.2531 142.973 17.1901 142.914 17.1062C142.855 17.0224 142.825 16.9222 142.828 16.8202C142.828 16.143 142.862 15.5403 142.931 15.012C143.013 13.9894 143.071 13.3461 143.105 13.082C143.193 12.493 143.245 11.8994 143.26 11.3042C143.272 11.0299 143.228 10.7558 143.13 10.4987C143.033 10.2415 142.883 10.0066 142.691 9.80817C142.499 9.60972 142.268 9.45184 142.012 9.34407C141.756 9.2363 141.481 9.18088 141.203 9.18115C140.432 9.22441 139.703 9.5378 139.146 10.0649C138.515 10.627 137.915 11.1282 137.346 11.5684C136.749 12.0248 136.127 12.4487 135.484 12.8382C135.114 13.0718 134.713 13.2953 134.26 13.5289L133.283 14.0267C132.524 14.3434 131.803 14.742 131.133 15.2152C130.787 15.4238 130.497 15.7118 130.287 16.0549C130.078 16.398 129.955 16.786 129.93 17.1859C129.94 17.5441 130.043 17.8938 130.228 18.2018C130.441 18.5457 130.734 18.8347 131.082 19.0449" fill="#F2F1E7"/>
<path d="M163.686 18.0696C164.013 18.2275 164.358 18.3435 164.715 18.415C165.23 18.5132 165.722 18.7062 166.165 18.9839C166.641 19.4061 166.966 19.9692 167.091 20.5889C167.386 21.7851 167.514 23.0155 167.471 24.2459C167.471 24.6048 167.437 25.3769 167.368 26.562C167.17 29.0546 167.474 31.5612 168.263 33.937C168.894 35.9234 170.069 37.6988 171.657 39.0669C173.123 40.2877 174.986 40.9443 176.903 40.9157C179.297 40.944 181.652 40.3107 183.701 39.0872C185.811 37.7871 187.521 35.9432 188.649 33.7541C188.943 33.3261 189.13 32.8352 189.194 32.3218C189.183 32.1418 189.127 31.9672 189.032 31.8131C188.937 31.6591 188.805 31.5303 188.649 31.438C188.479 31.2997 188.271 31.2148 188.052 31.1942C187.466 31.2901 186.934 31.589 186.55 32.0374C185.811 32.7022 184.967 33.2442 184.051 33.6424C183.03 34.0205 181.943 34.1965 180.852 34.1604C180.256 34.1589 179.665 34.0395 179.116 33.8092C178.566 33.579 178.069 33.2425 177.654 32.8195C176.613 31.7526 175.857 30.4472 175.453 29.0203C174.886 27.1493 174.615 25.203 174.65 23.2504C174.65 22.5732 174.671 21.8418 174.712 21.0562C174.725 20.8055 174.789 20.5599 174.9 20.3343C175.012 20.1087 175.168 19.9078 175.361 19.7436C175.553 19.5793 175.777 19.4553 176.019 19.3788C176.261 19.3024 176.516 19.2752 176.769 19.2988L181.634 19.6543C182.737 19.7791 183.854 19.6611 184.905 19.309C185.805 18.9361 186.524 18.2334 186.91 17.3484L187.785 15.6012C187.919 15.3233 188.003 15.0241 188.031 14.7174C188.031 14.0402 187.466 13.7016 186.334 13.7016L175.391 13.9961C175.391 14.1587 175.507 13.4815 175.741 11.9645C175.936 11.1064 176.053 10.2326 176.09 9.35379C176.132 8.93292 176.051 8.50898 175.856 8.13253C175.661 7.75609 175.36 7.44303 174.99 7.23069C174.725 7.10096 174.432 7.03483 174.136 7.03769C173.63 7.05036 173.144 7.23312 172.758 7.55576C172.163 8.03404 171.602 8.55342 171.081 9.10999C170.478 9.77974 169.828 10.4077 169.137 10.9893C168.005 11.8657 166.82 12.6731 165.589 13.407C165.011 13.6963 164.46 14.0362 163.943 14.4228C163.597 14.6314 163.307 14.9194 163.097 15.2625C162.888 15.6056 162.765 15.9936 162.74 16.3935C162.75 16.7517 162.853 17.1014 163.038 17.4094C163.207 17.675 163.441 17.895 163.717 18.0493" fill="#F2F1E7"/>
<path d="M25.298 14.6869C25.804 14.7266 26.3085 14.594 26.7276 14.3111C27.2953 13.8351 27.7455 13.2375 28.0441 12.5638L28.8978 10.9385C29.4588 9.73162 30.3183 8.6836 31.3971 7.89098C32.3454 7.32704 33.438 7.04489 34.5444 7.07831C37.1432 7.07831 38.4425 8.47678 38.4425 11.2737V24.1748C38.4644 26.1545 38.3476 28.1333 38.0928 30.0971C37.9835 31.3599 37.5709 32.5787 36.8894 33.6525C36.5919 34.0848 36.247 34.4834 35.8609 34.8411C35.5112 35.139 35.0861 35.4776 34.5856 35.8569C34.1562 36.1417 33.7686 36.4835 33.4336 36.8727C33.1733 37.2781 33.0508 37.755 33.0839 38.2339C33.0841 38.5289 33.1518 38.8201 33.2818 39.0857C33.4118 39.3512 33.6008 39.5844 33.8347 39.7678C34.5006 40.2462 35.3179 40.4732 36.1386 40.4078C36.6049 40.4078 37.9385 40.357 40.1396 40.2555L42.1349 40.1539C43.136 40.1539 44.1337 40.2047 45.128 40.3062C46.4582 40.374 47.4593 40.4078 48.1312 40.4078C48.952 40.4732 49.7693 40.2462 50.4351 39.7678C50.6691 39.5844 50.8581 39.3512 50.9881 39.0857C51.1181 38.8201 51.1857 38.5289 51.186 38.2339C51.2183 37.7551 51.0959 37.2784 50.8363 36.8727C50.5011 36.4837 50.1135 36.1419 49.6843 35.8569C49.1838 35.498 48.7586 35.1594 48.4089 34.8411C48.0229 34.4834 47.678 34.0848 47.3804 33.6525C46.6383 32.5978 46.1654 31.3815 46.0022 30.1073C45.747 28.1435 45.6301 26.1647 45.6525 24.185V11.2839C45.6525 8.48694 46.9347 7.08847 49.4992 7.08847C50.6591 7.04705 51.8083 7.32114 52.8213 7.88082C53.9278 8.66323 54.813 9.71237 55.3926 10.9283C56.0235 12.1135 56.4726 12.9194 56.74 13.346C56.9763 13.7426 57.2911 14.0881 57.6657 14.3618C57.8097 14.4634 57.46 15.0628 57.1206 15.3167C56.2181 16.0107 55.4062 16.8126 54.7035 17.7039C52.6837 20.2156 51.5948 23.3343 51.618 26.5417C51.5725 29.1175 52.2297 31.6579 53.5207 33.8963C54.7666 36.0518 56.5789 37.8348 58.7662 39.0568C60.9959 40.3122 63.5229 40.9607 66.0893 40.9361C68.4906 40.967 70.8527 40.3336 72.9085 39.1076C73.8058 38.5965 74.5838 37.9042 75.1918 37.0759C75.2674 36.9838 75.3654 36.9121 75.4767 36.8676C75.588 36.8231 75.7089 36.8072 75.8281 36.8214C75.9473 36.8356 76.0609 36.8795 76.1583 36.9488C76.2557 37.0182 76.3336 37.1109 76.3849 37.2181C76.634 37.9088 77.0425 38.5328 77.5781 39.0406C78.1136 39.5484 78.7615 39.926 79.4705 40.1437C80.1667 40.3332 80.8744 40.4791 81.5892 40.5805C82.4142 40.6455 83.243 40.6455 84.068 40.5805C84.858 40.6147 85.6357 40.3778 86.269 39.9101C86.5382 39.7232 86.7581 39.4754 86.9102 39.1872C87.0623 38.8991 87.1422 38.5792 87.1433 38.2543C87.178 37.7488 87.0637 37.2442 86.8141 36.8016C86.4929 36.3841 86.1158 36.0116 85.693 35.6944C84.9934 35.136 84.3556 34.5061 83.7903 33.8151C82.7617 32.4606 82.2441 29.2709 82.2372 24.2459C82.1962 23.3531 82.3396 22.4613 82.6589 21.6251C82.8596 21.0955 83.2182 20.6386 83.6874 20.3146C84.2041 20.0253 84.7484 19.7871 85.3125 19.6035C85.78 19.4511 86.2313 19.2538 86.6599 19.0144C87.0081 18.8042 87.3008 18.5152 87.5135 18.1712C87.699 17.8632 87.8016 17.5136 87.8118 17.1554C87.7867 16.7555 87.6641 16.3675 87.4546 16.0244C87.2451 15.6813 86.9548 15.3932 86.6084 15.1847C85.9385 14.7114 85.2175 14.3128 84.4588 13.9961L83.4817 13.4984C83.0292 13.2681 82.6212 13.0379 82.2578 12.8076C81.6424 12.4192 81.0485 11.9988 80.4784 11.548C79.9093 11.101 79.3093 10.5999 78.6785 10.0446C78.1212 9.51743 77.3918 9.20404 76.6214 9.16077C76.3379 9.15808 76.0567 9.21108 75.794 9.31669C75.5314 9.42231 75.2927 9.57843 75.0917 9.77598C74.8907 9.97353 74.7315 10.2086 74.6233 10.4674C74.5152 10.7263 74.4602 11.0038 74.4615 11.2839C74.4615 11.6089 74.6569 13.1936 74.7907 14.6158C74.8033 14.7247 74.7833 14.8348 74.733 14.9325C74.6828 15.0302 74.6046 15.1111 74.5081 15.1653C74.4117 15.2194 74.3012 15.2443 74.1905 15.2369C74.0798 15.2296 73.9738 15.1902 73.8856 15.1237C71.6542 13.4102 68.9515 12.4012 66.1305 12.2286C64.5719 12.2222 63.0227 12.4658 61.5432 12.9498C61.4287 12.9872 61.3065 12.9952 61.188 12.9729C61.0696 12.9507 60.9588 12.899 60.8662 12.8228C60.7735 12.7465 60.7021 12.6483 60.6586 12.5372C60.6151 12.4261 60.601 12.3059 60.6176 12.188C60.6825 11.652 60.7135 11.1126 60.7101 10.5728C60.7101 9.55018 60.6278 8.24991 60.4633 6.67198C60.3841 4.94489 59.8679 3.26496 58.9616 1.78582C58.5883 1.31011 58.1022 0.932468 57.5461 0.686216C56.99 0.439965 56.3812 0.332674 55.7732 0.373811C54.6106 0.450432 53.4574 0.630628 52.3276 0.912203C50.6614 1.2779 49.0706 1.55895 47.5553 1.75534C45.7568 1.96817 43.9462 2.06657 42.1349 2.04994C40.3339 2.06524 38.5338 1.96684 36.7455 1.75534C35.2301 1.55895 33.6393 1.2779 31.9731 0.912203C30.8409 0.625399 29.6838 0.44513 28.5172 0.373811C27.9143 0.34179 27.3125 0.455503 26.764 0.705094C26.2156 0.954685 25.7371 1.33262 25.3699 1.80614C24.4621 3.28456 23.9457 4.96491 23.8683 6.6923C23.7201 7.98767 23.6377 9.28958 23.6215 10.5931C23.5717 11.6022 23.697 12.6122 23.9917 13.5797C24.0635 13.8748 24.2271 14.1403 24.4596 14.3389C24.692 14.5375 24.9816 14.6592 25.2877 14.6869H25.298ZM59.8667 19.1261C60.1907 18.2312 60.7962 17.4623 61.5947 16.9319C62.2955 16.4951 63.1113 16.2725 63.9397 16.2919C65.2728 16.321 66.5788 16.6696 67.7453 17.3078C69.0129 18.0141 70.1333 18.9517 71.0468 20.0708L72.0753 21.3508C74.2775 24.1606 75.298 27.7008 74.9244 31.2348C74.983 31.7661 74.8365 32.2996 74.5143 32.729C74.1921 33.1583 73.7178 33.4518 73.1862 33.5509C72.1718 33.9341 71.094 34.127 70.008 34.1198C68.2212 34.1236 66.4589 33.7093 64.8654 32.911C63.2104 32.0683 61.8703 30.7269 61.0393 29.0813C59.9306 27.067 59.3474 24.8117 59.3422 22.519C59.3193 21.3658 59.5146 20.2186 59.9182 19.1363" fill="#F2F1E7"/>
<path d="M83.1732 49.6722C80.8843 48.4377 78.3139 47.8013 75.7061 47.8234C73.1198 47.8122 70.5744 48.461 68.3166 49.7068C66.0587 50.9526 64.1649 52.7532 62.8186 54.9343C61.5003 57.0766 60.8096 59.5382 60.8233 62.0451C60.815 63.5647 61.0475 65.0763 61.5124 66.5249C61.5358 66.5929 61.5343 66.6668 61.5079 66.7337C61.4816 66.8006 61.4322 66.8562 61.3684 66.8906C61.0604 67.067 60.7769 67.2821 60.525 67.5306C59.6469 68.2128 58.645 68.7231 57.5731 69.034C56.3456 69.4169 55.0652 69.6088 53.7779 69.6029C51.9911 69.6067 50.2287 69.1924 48.6352 68.3941C46.9799 67.5519 45.6396 66.2104 44.8091 64.5644C43.7001 62.5502 43.1168 60.2948 43.112 58.0021C43.0889 56.8489 43.2843 55.7016 43.688 54.6194C44.0119 53.7245 44.6175 52.9555 45.4159 52.4252C46.1167 51.9884 46.9325 51.7657 47.761 51.7852C49.0026 51.8184 50.2144 52.1684 51.2785 52.801C52.5062 53.4841 53.586 54.3987 54.4567 55.493L55.4852 56.7729C56.0482 57.5227 56.6561 58.2384 57.3057 58.9163C57.471 59.1092 57.6733 59.2678 57.9011 59.3829C58.1288 59.498 58.3774 59.5673 58.6325 59.5868C58.7877 59.5757 58.9403 59.5414 59.0851 59.4852C59.4485 59.3227 59.8496 58.615 60.2884 57.3621C60.7433 56.0308 61.1176 54.6739 61.4095 53.2988C61.6582 52.2987 61.8165 51.2789 61.8827 50.2513C61.8908 50.0365 61.8549 49.8223 61.7772 49.6215C61.6994 49.4208 61.5814 49.2376 61.4301 49.0831C61.0767 48.8107 60.6323 48.6801 60.1856 48.7174C59.9867 48.7174 59.3525 48.7817 58.2828 48.9104C58.0158 48.9317 57.7475 48.9317 57.4806 48.9104C56.6812 48.8734 55.8914 48.7229 55.1355 48.4634C54.3644 48.2416 53.5816 48.0619 52.7905 47.925C51.8308 47.7813 50.8606 47.7167 49.89 47.732C47.3348 47.7099 44.8215 48.3735 42.6184 49.6519C40.4309 50.9066 38.6124 52.7027 37.342 54.8632C36.7021 55.9309 36.2108 57.079 35.8815 58.2764C35.8361 58.4252 35.7484 58.5581 35.6288 58.6592C35.5092 58.7603 35.3628 58.8254 35.2069 58.8468C35.051 58.8681 34.8921 58.8449 34.7492 58.7798C34.6062 58.7147 34.4852 58.6105 34.4004 58.4795C33.8104 57.631 33.0844 56.883 32.2508 56.265C29.7618 54.423 26.2065 53.2209 21.585 52.6588C19.1667 52.4034 16.7635 52.0237 14.3853 51.5211C13.0925 51.3035 11.8555 50.8375 10.7443 50.1497C10.4289 49.9352 10.1707 49.6486 9.99158 49.3143C9.8125 48.98 9.71788 48.608 9.71578 48.2298C9.71779 47.2755 10.0852 46.3574 10.7443 45.6597C11.5724 44.7976 12.5993 44.1459 13.7373 43.7601C15.1221 43.2681 16.5856 43.0272 18.0571 43.049C20.2104 42.9359 22.3515 43.4328 24.2283 44.4813C25.8038 45.5476 27.0157 47.0597 27.7047 48.8189C28.0338 49.6113 28.3424 50.3088 28.6304 50.9116C28.8387 51.3954 29.1511 51.8286 29.5458 52.1814C29.8897 52.4415 30.3166 52.5713 30.7492 52.5471C31.1245 52.5753 31.5001 52.4941 31.8291 52.3135C32.1582 52.1329 32.4264 51.8609 32.6005 51.5312C33.0731 50.4492 33.3516 49.2943 33.4233 48.118L33.6599 46.1473C33.8012 45.2664 33.8837 44.3774 33.9067 43.4858C33.9556 42.8893 33.7879 42.2952 33.4336 41.8097C32.9619 41.3856 32.3434 41.1565 31.7057 41.1697C30.9753 41.1124 30.252 40.9865 29.5458 40.7939C28.7951 40.5645 28.0569 40.2966 27.3344 39.9913C26.0403 39.5323 24.7176 39.1557 23.3746 38.8638C21.8037 38.5552 20.2036 38.4156 18.6023 38.4473C15.7744 38.4332 12.9702 38.9574 10.3432 39.9913C7.9433 40.8951 5.81845 42.3921 4.17202 44.3391C2.65145 46.1355 1.82751 48.4076 1.84755 50.749C1.75355 52.7509 2.35204 54.7249 3.54462 56.3463C4.92895 57.9396 6.73976 59.1154 8.76954 59.7392C11.845 60.7471 15.0205 61.4282 18.2423 61.7708C20.3215 61.9971 22.3832 62.3603 24.4134 62.8578C25.535 63.0919 26.5892 63.5708 27.499 64.2596C27.7872 64.5149 28.0162 64.8285 28.1706 65.1791C28.3251 65.5297 28.4012 65.909 28.3938 66.2913C28.3817 67.1794 28.0541 68.0351 27.4682 68.709C26.6969 69.5684 25.7057 70.207 24.5986 70.5578C23.0047 71.0813 21.3304 71.3254 19.6514 71.279C17.0728 71.3524 14.524 70.7195 12.2871 69.4505C10.3858 68.3309 8.85882 66.685 7.89529 64.7167C7.2096 63.2675 6.7262 62.2889 6.44507 61.781C6.22345 61.3256 5.90819 60.9208 5.51939 60.5925C5.1193 60.3096 4.63202 60.1732 4.14117 60.2064C3.17435 60.2064 2.36524 60.8498 1.71384 62.1365C0.999577 63.7336 0.665324 65.4711 0.736742 67.2157C0.69269 68.4139 0.827853 69.6119 1.13787 70.7711C1.33192 71.4776 1.7199 72.1175 2.25896 72.6199C2.90096 73.1239 3.61495 73.5313 4.37773 73.8288C8.57661 75.5936 13.1036 76.4692 17.6663 76.3988C20.6525 76.4135 23.6217 75.9539 26.4602 75.0376C29.0638 74.2447 31.4208 72.8115 33.3102 70.8727C34.072 70.0817 34.6912 69.1678 35.141 68.1706C35.2078 68.0281 35.3144 67.9075 35.4484 67.823C35.5823 67.7385 35.738 67.6935 35.8969 67.6935C36.0559 67.6935 36.2115 67.7385 36.3455 67.823C36.4794 67.9075 36.5861 68.0281 36.6529 68.1706C36.8492 68.6084 37.069 69.0357 37.3112 69.4505C38.5695 71.5755 40.3806 73.3292 42.5566 74.5297C44.7863 75.7851 47.3133 76.4336 49.8797 76.409C52.4726 76.4519 55.0332 75.8362 57.316 74.6211C59.5646 73.384 61.4038 71.5322 62.6129 69.288L62.6746 69.1661L62.8083 69.4099C64.1227 71.5581 65.9892 73.3245 68.2184 74.5297C70.5102 75.7881 73.0943 76.4358 75.7163 76.409C78.326 76.441 80.8981 75.7928 83.1732 74.5297C85.414 73.2865 87.2835 71.4821 88.5935 69.2982C89.902 67.0995 90.592 64.5955 90.592 62.0451C90.592 59.4947 89.902 56.9907 88.5935 54.792C87.2788 52.6509 85.4071 50.897 83.1732 49.7129V49.6722ZM82.1446 70.0296C81.7885 70.4427 81.3377 70.7661 80.8297 70.9728C80.3217 71.1795 79.7711 71.2636 79.2236 71.2181C77.2594 71.1084 75.4153 70.2487 74.081 68.8207C72.3577 67.2146 70.9887 65.2746 70.0594 63.1219C69.1389 61.2142 68.6276 59.1391 68.5578 57.0269C68.4919 55.8371 68.8244 54.6591 69.504 53.6746C69.8266 53.2652 70.2451 52.9394 70.7235 52.7253C71.2019 52.5112 71.7259 52.4152 72.2502 52.4455C73.5826 52.4931 74.8666 52.9513 75.9221 53.7559C77.2374 54.6926 78.3995 55.8232 79.3676 57.1081C80.3576 58.371 81.1738 59.7578 81.7949 61.2324C82.5655 62.9962 82.9879 64.8891 83.0395 66.8094C83.1071 67.9678 82.7813 69.1153 82.1138 70.0702" fill="#F2F1E7"/>
<path d="M124.695 71.3401C124.407 71.0801 124.077 70.8705 123.718 70.7204C123.381 70.5612 123.055 70.3814 122.741 70.182C122.44 69.9577 122.194 69.6696 122.021 69.3389C120.985 67.4968 120.467 63.745 120.467 58.0834C120.483 55.9155 120.855 53.7645 121.568 51.7141C121.644 51.3713 121.737 51.0323 121.846 50.6983C121.979 50.2906 122.055 49.8668 122.072 49.4387C122.082 48.9805 121.941 48.5314 121.671 48.1587C121.459 47.8606 121.172 47.6223 120.838 47.4673C120.505 47.3123 120.136 47.246 119.768 47.275C118.851 47.2916 117.96 47.5859 117.217 48.1181C116.365 48.6938 115.479 49.2195 114.564 49.6926L113.669 50.1904C113.367 50.3529 113.069 50.5324 112.774 50.7288C111.78 51.2707 110.849 51.9179 109.997 52.6589C109.755 52.8598 109.557 53.1077 109.415 53.3873C109.274 53.6669 109.192 53.9721 109.174 54.2842C109.151 54.5296 109.179 54.7771 109.257 55.0113C109.335 55.2454 109.461 55.4613 109.627 55.6454C110.043 55.9934 110.516 56.2682 111.026 56.4581C111.613 56.7021 112.153 57.0459 112.62 57.4739C113.027 57.9825 113.222 58.6258 113.165 59.272C113.242 61.9126 112.685 64.5338 111.54 66.9212C111.148 67.87 110.474 68.6795 109.608 69.2434C108.742 69.8072 107.723 70.099 106.685 70.0804C105.767 70.1326 104.852 69.9264 104.047 69.4859C103.243 69.0454 102.581 68.3886 102.139 67.5916C101.116 65.7234 100.615 63.6195 100.689 61.4966C100.673 59.9739 100.738 58.4514 100.884 56.9355C101.015 55.7369 101.213 54.2165 101.481 52.3744C101.661 51.5136 101.778 50.6411 101.831 49.7637C101.866 49.1879 101.727 48.6147 101.429 48.1181C101.197 47.8006 100.886 47.5477 100.525 47.384C100.165 47.2203 99.7677 47.1512 99.3724 47.1835C98.4893 47.1793 97.6357 47.4977 96.9759 48.0775C96.2156 48.7652 95.3888 49.3776 94.5075 49.906C93.6229 50.4342 93.0813 50.7457 92.8824 50.8405C91.9254 51.3841 91.014 52.0023 90.1568 52.6893C89.9173 52.8659 89.7197 53.0918 89.5776 53.3515C89.4355 53.6111 89.3523 53.8982 89.334 54.1928C89.3442 54.551 89.4468 54.9006 89.6323 55.2086C89.9585 55.6821 90.4312 56.0384 90.9796 56.2245C91.4331 56.4409 91.8667 56.6958 92.2756 56.9863C92.6714 57.3212 92.9667 57.7569 93.1293 58.246C93.3936 59.0417 93.512 59.8776 93.479 60.7144V62.9391C93.479 67.2192 94.2778 70.5511 95.8754 72.9349C97.4731 75.3187 100.322 76.5107 104.422 76.5107C106.471 76.6165 108.5 76.0719 110.213 74.9564C111.736 73.8005 112.91 72.2547 113.607 70.4868C113.738 71.936 113.888 73.1042 114.06 73.9914C114.129 74.6589 114.39 75.2931 114.811 75.8199C114.986 75.9957 115.196 76.1342 115.428 76.2268C115.66 76.3194 115.908 76.3641 116.158 76.3583C116.892 76.3061 117.615 76.1557 118.308 75.9113L120.365 75.4136L121.959 75.1901C122.748 75.0774 123.515 74.8444 124.232 74.4993C124.585 74.3231 124.867 74.0353 125.035 73.6818C125.203 73.3282 125.246 72.9294 125.158 72.5489C125.142 72.1291 124.994 71.7245 124.736 71.3909" fill="#F2F1E7"/>
<path d="M160.899 70.8219C160.364 70.3629 159.862 69.8673 159.397 69.3388C158.749 68.5147 158.308 67.5503 158.112 66.5249C157.869 64.8431 157.769 63.1441 157.813 61.4457C157.788 60.2 157.853 58.9541 158.009 57.7176C158.139 56.8779 158.389 55.7503 158.76 54.3349C159.054 53.2881 159.224 52.2107 159.264 51.1249C159.296 50.6934 159.237 50.26 159.09 49.8524C158.943 49.4449 158.711 49.0721 158.41 48.758C157.967 48.3343 157.381 48.0882 156.764 48.0672H156.497C156.182 48.1112 155.871 48.1861 155.571 48.2907C153.71 48.7377 149.503 49.7129 146.5 50.1293C143.396 50.4934 140.275 50.6969 137.15 50.7389C136.255 50.8608 135.649 49.4995 135.751 48.6056C135.751 48.1383 135.865 47.5898 135.947 47.153C136.143 46.2949 136.26 45.4211 136.297 44.5423C136.339 44.1214 136.257 43.6975 136.062 43.321C135.867 42.9446 135.566 42.6315 135.196 42.4192C134.931 42.2894 134.638 42.2233 134.342 42.2262C133.837 42.2388 133.35 42.4216 132.964 42.7442C132.369 43.2223 131.808 43.7417 131.288 44.2985C130.681 44.9684 130.028 45.5963 129.333 46.1778C128.202 47.0543 127.017 47.8617 125.785 48.5954C125.207 48.8848 124.656 49.2248 124.139 49.6113C123.793 49.8198 123.503 50.1079 123.293 50.451C123.084 50.7941 122.961 51.1821 122.936 51.582C122.946 51.9402 123.049 52.2898 123.234 52.5978C123.404 52.863 123.637 53.0828 123.913 53.2378C124.24 53.3952 124.585 53.5113 124.942 53.5832C125.457 53.6814 125.949 53.8743 126.392 54.1521C126.867 54.5747 127.192 55.1376 127.318 55.7571C127.608 56.9505 127.732 58.1773 127.688 59.4039C127.688 59.7696 127.654 60.5416 127.585 61.72C127.39 64.2133 127.698 66.7199 128.49 69.095C129.121 71.0812 130.296 72.8565 131.884 74.2249C133.35 75.4457 135.213 76.1023 137.13 76.0737C139.629 76.0737 143.136 73.8389 144.412 71.5025C144.706 71.0745 144.893 70.5836 144.957 70.0702C144.946 69.8902 144.89 69.7155 144.795 69.5615C144.7 69.4075 144.569 69.2787 144.412 69.1864C144.242 69.0486 144.034 68.9637 143.815 68.9426C143.414 68.9426 143.023 69.3692 142.313 69.7857C141.716 70.1875 141.01 70.4024 140.287 70.4024C139.565 70.4024 138.858 70.1875 138.261 69.7857C135.926 68.1706 135.638 66.0576 135.371 64.158C135.072 62.2484 134.91 60.3203 134.888 58.3881C134.888 57.5754 134.918 56.6747 134.98 55.686C135.029 55.3299 135.216 55.0067 135.502 54.7848C135.788 54.5629 136.151 54.4598 136.513 54.4974C136.513 54.4974 145.337 54.6498 147.734 55.5133C148.277 55.7517 148.783 56.0665 149.235 56.4478C149.666 56.8804 149.99 57.4053 150.182 57.9817C150.471 59.5362 150.605 61.1149 150.583 62.6952C150.61 64.0201 150.5 65.3441 150.254 66.6468C150.046 67.6113 149.629 68.5195 149.03 69.3083C148.637 69.8593 148.146 70.3344 147.58 70.7101C147.045 71.0555 146.702 71.2621 146.551 71.3298C146.016 71.5896 145.526 71.9326 145.101 72.3456C144.783 72.7354 144.622 73.2273 144.648 73.7272C144.646 74.0495 144.721 74.3677 144.868 74.6556C145.014 74.9435 145.228 75.1928 145.492 75.383C146.125 75.85 146.903 76.0868 147.693 76.0534C148.659 76.0534 149.842 75.9891 151.241 75.8604C152.64 75.7317 153.624 75.6674 154.193 75.6674C155.281 75.6677 156.367 75.7492 157.443 75.9112L158.472 76.0128C158.835 76.0128 159.253 76.0128 159.726 76.0128C160.477 76.0308 161.208 75.778 161.783 75.3017C162.066 75.0618 162.29 74.7615 162.438 74.4236C162.586 74.0858 162.654 73.7191 162.637 73.3513C162.647 72.8931 162.506 72.4441 162.236 72.0714C161.85 71.5861 161.416 71.1403 160.94 70.7406" fill="#F2F1E7"/>
<path d="M196.712 70.3244C196.045 69.696 195.51 68.9434 195.139 68.1098C194.782 67.134 194.622 66.0989 194.666 65.0623C194.726 63.1129 194.908 61.169 195.211 59.2416C195.351 58.392 195.42 57.5324 195.416 56.6716C195.416 53.7121 194.618 51.4502 193.02 49.8858C192.145 49.0806 191.115 48.4577 189.991 48.0546C188.867 47.6514 187.673 47.4761 186.478 47.5392C184.17 47.4925 181.891 48.0647 179.886 49.195C177.926 50.3644 176.334 52.0491 175.288 54.0609C175.288 52.7064 175.329 51.5213 175.412 50.5054C175.494 49.4896 175.552 48.8463 175.586 48.5754C175.675 47.9865 175.726 47.3928 175.741 46.7977C175.753 46.5233 175.709 46.2492 175.611 45.9921C175.514 45.7349 175.364 45.5 175.172 45.3016C174.98 45.1031 174.749 44.9452 174.493 44.8375C174.237 44.7297 173.962 44.6743 173.684 44.6746C172.912 44.7206 172.182 45.0377 171.627 45.5685C170.996 46.1306 170.396 46.6317 169.827 47.0719C169.25 47.5234 168.649 47.9439 168.027 48.3316C167.656 48.5618 167.248 48.7921 166.803 49.0223L165.826 49.5201C165.067 49.8371 164.346 50.2356 163.676 50.7086C163.33 50.9172 163.039 51.2052 162.83 51.5483C162.62 51.8914 162.498 52.2794 162.473 52.6793C162.482 53.0376 162.585 53.3874 162.771 53.6952C162.984 54.0391 163.276 54.3282 163.625 54.5383C164.053 54.7776 164.504 54.9749 164.972 55.1275C165.536 55.3109 166.08 55.549 166.597 55.8386C167.067 56.162 167.425 56.6191 167.626 57.149C167.944 57.982 168.087 58.8702 168.047 59.7597C168.047 64.7915 167.53 67.9846 166.494 69.339C165.929 70.0304 165.291 70.6604 164.591 71.2183C164.169 71.5354 163.791 71.908 163.47 72.3256C163.22 72.768 163.106 73.2727 163.141 73.7782C163.14 74.1014 163.217 74.4202 163.365 74.7081C163.514 74.9961 163.729 75.245 163.995 75.434C164.628 75.9018 165.406 76.1387 166.196 76.1045C167.227 76.0995 168.258 76.0351 169.281 75.9115C170.092 75.7957 170.91 75.7312 171.729 75.7184C172.617 75.7075 173.503 75.7892 174.373 75.9622L175.226 76.0638C175.597 76.0638 175.926 76.0638 176.255 76.0638C176.92 76.0756 177.564 75.8357 178.055 75.3934C178.3 75.1811 178.494 74.918 178.623 74.623C178.753 74.328 178.815 74.0083 178.806 73.6868C178.789 73.0883 178.646 72.4999 178.384 71.9599C178.103 71.3368 177.626 70.4497 176.954 69.2984C175.77 67.1842 175.151 64.8069 175.154 62.3907C175.085 60.6236 175.441 58.8655 176.193 57.2607C176.931 55.8125 178.183 54.684 179.711 54.0913C180.414 53.759 181.184 53.5888 181.963 53.5936C183.056 53.5987 184.118 53.9553 184.987 54.6094C185.913 55.3005 186.646 56.2129 187.116 57.2607C187.658 58.4301 187.932 59.703 187.918 60.9889C187.906 62.1475 187.704 63.2966 187.322 64.3919C186.885 65.8015 186.288 67.1578 185.543 68.4349C184.913 69.4429 184.205 70.4008 183.424 71.2996C183.047 71.7342 182.703 72.1959 182.395 72.6811C182.177 73.04 182.064 73.4512 182.066 73.8696C182.066 75.3866 182.916 76.1417 184.617 76.1349C185.355 76.13 186.091 76.0654 186.818 75.9419C187.58 75.8202 188.35 75.7557 189.122 75.7489C189.89 75.7489 190.973 75.8133 192.372 75.9419C193.771 76.0706 194.768 76.1349 195.365 76.1349C196.124 76.1734 196.875 75.9665 197.504 75.5458C197.761 75.3634 197.975 75.1283 198.132 74.8565C198.288 74.5847 198.383 74.2826 198.409 73.9712C198.492 73.3693 198.414 72.7565 198.183 72.1935C197.794 71.5109 197.298 70.8937 196.712 70.365" fill="#F2F1E7"/>
<path d="M229.995 71.6549C229.805 71.1517 229.44 70.7309 228.967 70.4664C228.414 70.2327 227.819 70.1151 227.218 70.121C225.793 70.1778 224.378 70.3925 223.001 70.761C221.218 71.1877 218.819 71.8649 215.802 72.7927C213.738 73.4894 211.583 73.8897 209.404 73.9812C208.749 74.0502 208.087 73.9847 207.458 73.7889C206.83 73.5932 206.249 73.2713 205.753 72.8435C205.608 72.6747 205.497 72.4792 205.428 72.2683C205.36 72.0574 205.334 71.8352 205.352 71.6143C205.353 71.2667 205.419 70.9223 205.547 70.5985C205.657 70.2868 205.845 70.0073 206.092 69.7858C206.435 69.4821 206.876 69.3092 207.337 69.2982C207.641 69.3063 207.942 69.3576 208.232 69.4506H208.129C209.764 69.8526 211.443 70.0505 213.127 70.0398C215.706 70.0652 218.261 69.5528 220.625 68.5363C222.761 67.6592 224.637 66.2612 226.077 64.473C227.359 62.8826 228.055 60.9087 228.051 58.8757C228.064 57.1418 227.559 55.4425 226.601 53.9896C225.576 52.4541 224.207 51.1717 222.6 50.2412C224.144 50.2368 225.663 49.8565 227.023 49.1339C227.546 48.8646 227.996 48.4748 228.334 47.9973C228.673 47.5199 228.89 46.9689 228.967 46.3911C228.989 46.097 228.989 45.8016 228.967 45.5074C229.009 44.512 228.68 43.5359 228.041 42.7646C227.46 42.0811 226.713 41.5535 225.871 41.2307C225.124 40.9361 224.33 40.7778 223.526 40.7634C222.96 40.7634 222.631 40.8447 222.497 41.0072C222.355 41.4007 222.302 41.8204 222.343 42.2364C222.353 42.9168 222.302 43.5968 222.189 44.2681C222.081 44.823 221.801 45.3308 221.386 45.7207C220.504 46.4733 219.442 46.9908 218.301 47.2241C216.592 47.6369 214.835 47.8281 213.076 47.793C210.483 47.7658 207.912 48.2709 205.527 49.2761C203.389 50.1501 201.513 51.5487 200.075 53.3395C198.789 54.9092 198.085 56.8664 198.08 58.8859C198.081 60.254 198.382 61.6056 198.96 62.8486C199.539 64.0916 200.382 65.1966 201.433 66.0882L201.628 66.2405L201.875 66.4335C202.152 66.653 202.333 66.9696 202.379 67.3173C202.379 67.6492 202.129 68.0115 201.628 68.4043C199.729 70.0838 198.779 71.6786 198.779 73.1888C198.776 73.7361 198.895 74.2774 199.129 74.7735C199.827 76.2283 200.889 77.4833 202.215 78.4204C201.163 79.0294 200.271 79.8752 199.613 80.8889C198.976 81.7836 198.618 82.8431 198.584 83.9364C198.587 84.7569 198.842 85.5573 199.314 86.2322C199.867 86.9949 200.617 87.5981 201.484 87.9794C203.448 88.7384 205.549 89.0844 207.656 88.9952C210.794 88.9756 213.912 88.5034 216.912 87.5934C219.884 86.7596 222.631 85.2851 224.955 83.2761C226.623 81.8947 228.018 80.221 229.07 78.3391C229.849 76.9452 230.286 75.3897 230.345 73.7983C230.354 73.1011 230.217 72.4095 229.944 71.7667L229.995 71.6549ZM208.345 52.4658C208.586 52.1573 208.898 51.9111 209.257 51.7483C209.615 51.5856 210.008 51.5111 210.402 51.5313C211.214 51.5716 212.01 51.77 212.744 52.1152C213.479 52.4604 214.137 52.9455 214.681 53.5426C216.07 54.887 217.165 56.498 217.9 58.2764C218.499 59.6369 218.847 61.092 218.928 62.5734C218.977 63.4732 218.712 64.3624 218.177 65.0926C217.896 65.4153 217.542 65.668 217.144 65.8304C216.745 65.9927 216.314 66.0601 215.884 66.0272C214.367 65.9462 212.942 65.2827 211.914 64.1784C210.584 62.9344 209.533 61.4291 208.828 59.7595C208.134 58.2557 207.759 56.6273 207.728 54.9749C207.675 54.0663 207.92 53.1651 208.427 52.4049L208.345 52.4658ZM222.148 81.3968C221.261 82.3068 220.173 83.0021 218.969 83.4285C215.169 84.7118 211.023 84.5634 207.327 83.012C205.574 82.2006 204.17 80.8 203.367 79.0604C205.023 79.8248 206.836 80.197 208.664 80.1473C210.225 80.1421 211.782 79.9856 213.313 79.68C214.91 79.3685 216.892 78.9148 219.257 78.3188C219.931 78.1483 220.62 78.0496 221.314 78.0242C222.514 78.0242 223.114 78.5017 223.114 79.4565C222.996 80.1855 222.634 80.8543 222.086 81.3562" fill="#F2F1E7"/>
<path d="M192.937 45.6089C193.689 46.0331 194.54 46.2539 195.406 46.2489C196.265 46.2581 197.112 46.0482 197.864 45.6394C198.601 45.243 199.216 44.6567 199.643 43.943C200.086 43.2057 200.314 42.362 200.302 41.505C200.306 40.6777 200.078 39.8655 199.643 39.1584C199.203 38.4389 198.581 37.8446 197.838 37.4334C197.095 37.0221 196.257 36.808 195.406 36.8118C194.541 36.8027 193.687 37.0126 192.927 37.4213C192.19 37.8163 191.572 38.3984 191.138 39.1076C190.703 39.8318 190.474 40.6581 190.474 41.4999C190.474 42.3417 190.703 43.168 191.138 43.8922C191.573 44.608 192.19 45.1997 192.927 45.6089H192.937ZM192.176 39.6968C192.502 39.1595 192.967 38.7177 193.524 38.4168C194.094 38.1064 194.735 37.9455 195.385 37.9495C196.027 37.9475 196.659 38.1103 197.218 38.4219C197.777 38.7336 198.244 39.1834 198.574 39.7273C198.9 40.2601 199.071 40.8719 199.068 41.4948C199.077 42.1363 198.91 42.7684 198.584 43.3233C198.265 43.86 197.802 44.2994 197.247 44.5931C196.676 44.8996 196.035 45.0569 195.385 45.0502C194.733 45.0549 194.091 44.8902 193.524 44.5728C192.969 44.2656 192.504 43.821 192.176 43.2827C191.849 42.7388 191.675 42.1176 191.675 41.4846C191.675 40.8517 191.849 40.2305 192.176 39.6866" fill="#F2F1E7"/>
<path d="M196.219 43.5976C196.084 43.5174 195.971 43.4058 195.889 43.2726C195.795 43.1091 195.713 42.9394 195.643 42.7647C195.575 42.5888 195.492 42.4189 195.396 42.2567C195.321 42.1361 195.214 42.0378 195.087 41.9723C195.02 41.9382 194.947 41.9175 194.871 41.9114C194.768 41.9114 194.717 41.9926 194.717 42.1552C194.703 42.297 194.703 42.4399 194.717 42.5818C194.735 42.7054 194.78 42.8234 194.851 42.9272C194.886 42.9794 194.927 43.0271 194.974 43.0694L195.128 43.1811C195.178 43.2164 195.223 43.2573 195.262 43.303C195.279 43.356 195.279 43.4126 195.262 43.4656C195.263 43.5037 195.254 43.5415 195.236 43.5753C195.218 43.6091 195.192 43.6378 195.159 43.6586C195.08 43.71 194.986 43.7349 194.892 43.7297H194.552H194.182H193.863H193.472C193.378 43.7349 193.284 43.71 193.205 43.6586C193.173 43.6378 193.146 43.6091 193.128 43.5753C193.11 43.5415 193.101 43.5037 193.102 43.4656C193.085 43.4127 193.085 43.3559 193.102 43.303C193.141 43.257 193.186 43.216 193.236 43.1811L193.39 43.0694C193.436 43.0266 193.478 42.9789 193.513 42.9272C193.594 42.8015 193.643 42.6588 193.657 42.5107C193.673 42.2773 193.673 42.0431 193.657 41.8098V41.2409C193.673 41.0075 193.673 40.7734 193.657 40.54C193.645 40.3885 193.595 40.2422 193.513 40.1133C193.436 40.0207 193.354 39.9325 193.267 39.8492L193.154 39.7273C193.142 39.6875 193.142 39.6452 193.154 39.6054C193.153 39.5658 193.162 39.5267 193.18 39.4913C193.197 39.4559 193.224 39.4253 193.256 39.4022C193.333 39.3451 193.428 39.3164 193.524 39.321L194.017 39.3921C194.238 39.4346 194.462 39.4651 194.686 39.4835C194.785 39.4933 194.885 39.4933 194.984 39.4835L195.355 39.3921L195.745 39.3007C195.851 39.2904 195.958 39.2904 196.064 39.3007C196.24 39.3022 196.412 39.3439 196.568 39.4226C196.727 39.4971 196.864 39.6087 196.969 39.7476C197.07 39.8792 197.124 40.0398 197.124 40.2048C197.126 40.5595 196.989 40.9014 196.743 41.1596C196.374 41.4932 195.912 41.7091 195.416 41.7793C195.636 41.7734 195.853 41.8375 196.033 41.9621C196.175 42.0629 196.292 42.1951 196.373 42.3482C196.459 42.5216 196.532 42.7017 196.589 42.8866C196.619 43.002 196.66 43.1143 196.712 43.2218C196.725 43.2521 196.746 43.278 196.773 43.2961C196.801 43.3142 196.833 43.3237 196.866 43.3234C196.969 43.3234 197.021 43.2523 197.021 43.1202C196.978 42.7877 196.87 42.4667 196.702 42.1755C196.668 42.1093 196.651 42.0362 196.65 41.9621C196.65 41.9039 196.662 41.8462 196.687 41.7935C196.712 41.7407 196.749 41.6942 196.794 41.6574C196.916 41.5679 197.065 41.5246 197.216 41.5355C197.304 41.5304 197.391 41.5441 197.473 41.5757C197.555 41.6072 197.629 41.6559 197.689 41.7183C197.814 41.87 197.876 42.062 197.864 42.2567C197.904 42.6826 197.795 43.109 197.556 43.4656C197.447 43.5877 197.312 43.684 197.161 43.7474C197.01 43.8107 196.846 43.8394 196.681 43.8313C196.491 43.838 196.302 43.7923 196.136 43.6992L196.219 43.5976ZM194.655 41.4339C194.67 41.4411 194.685 41.4448 194.701 41.4448C194.718 41.4448 194.733 41.4411 194.748 41.4339C195.111 41.3847 195.461 41.2638 195.776 41.0784C195.904 41.0141 196.011 40.9169 196.087 40.797C196.164 40.6772 196.205 40.5392 196.208 40.3978C196.243 40.3337 196.258 40.2608 196.25 40.1884C196.243 40.116 196.214 40.0474 196.167 39.9914C196.046 39.9115 195.901 39.8723 195.756 39.8797H195.571C195.364 39.9066 195.169 39.9873 195.005 40.1133C194.883 40.2195 194.8 40.3623 194.768 40.5197C194.728 40.7476 194.711 40.9791 194.717 41.2104C194.71 41.2265 194.707 41.2438 194.707 41.2612C194.707 41.2787 194.71 41.2959 194.717 41.312" fill="#F2F1E7"/>
</svg>
