<svg width="54" height="54" viewBox="0 0 54 54" fill="none" xmlns="http://www.w3.org/2000/svg">
<path d="M49.8796 54H4.08088C2.99584 53.9922 1.95792 53.5559 1.19344 52.7863C0.428971 52.0167 -2.8214e-05 50.9762 1.39171e-09 49.8917V4.10827C-2.8214e-05 3.0238 0.428971 1.98331 1.19344 1.21371C1.95792 0.444105 2.99584 0.00782067 4.08088 0L49.8895 0C50.9797 0 52.0252 0.432834 52.7961 1.20328C53.5669 1.97373 54 3.01869 54 4.10827V49.8917C54 50.9813 53.5669 52.0263 52.7961 52.7967C52.0252 53.5672 50.9797 54 49.8895 54" fill="#5DC1CD"/>
<path d="M43.1013 39.0211H13.0431C12.0227 39.0211 11.044 38.6166 10.3216 37.8965C9.59923 37.1763 9.19207 36.1992 9.18945 35.1794V18.6081C9.19468 17.5901 9.60299 16.6155 10.3251 15.8975C11.0472 15.1794 12.0244 14.7764 13.0431 14.7764H43.1111C44.1315 14.779 45.1091 15.1859 45.8297 15.9079C46.5502 16.6299 46.9549 17.6081 46.9549 18.6279V35.1696C46.9523 36.1876 46.5465 37.1632 45.8262 37.8831C45.1059 38.603 44.1298 39.0086 43.1111 39.0112" fill="white"/>
<path d="M4.91113 18.1338L28.0723 29.8167L51.2434 18.1338" stroke="#5DC1CD" stroke-width="2.57" stroke-miterlimit="10"/>
</svg>
