<svg width="54" height="54" viewBox="0 0 54 54" fill="none" xmlns="http://www.w3.org/2000/svg">
<rect x="7" y="7" width="42" height="40" fill="white"/>
<path d="M46.0135 46.0049H38.0172V33.4797C38.0172 30.5187 37.9678 26.6496 33.8512 26.6496C29.7346 26.6496 29.0435 29.9067 29.0435 33.2626V46.0049H21.0472V20.2439H28.7276V23.7675H28.8362C29.6049 22.4525 30.716 21.3706 32.0512 20.6371C33.3863 19.9036 34.8955 19.546 36.4179 19.6024C44.5229 19.6024 46.0234 24.9322 46.0234 31.8709L46.0135 46.0049ZM12.0143 16.7203C11.0966 16.7203 10.1995 16.4482 9.43649 15.9385C8.67347 15.4287 8.07877 14.7042 7.72759 13.8566C7.37641 13.0089 7.28453 12.0762 7.46356 11.1763C7.64259 10.2764 8.08449 9.44986 8.73339 8.8011C9.38228 8.15233 10.209 7.71051 11.1091 7.53151C12.0091 7.35252 12.942 7.44439 13.7899 7.7955C14.6377 8.14661 15.3623 8.74119 15.8722 9.50407C16.382 10.2669 16.6541 11.1638 16.6541 12.0813C16.6541 13.3117 16.1653 14.4916 15.2951 15.3616C14.425 16.2315 13.2448 16.7203 12.0143 16.7203ZM16.0124 46.0049H8.00622V20.2439H16.0124V46.0049ZM50.0018 0.000314383H3.94881C2.91002 0.00023324 1.91303 0.409406 1.17389 1.13917C0.434745 1.86893 0.0129849 2.8605 0 3.89901L0 50.101C0.0129849 51.1395 0.434745 52.1311 1.17389 52.8608C1.91303 53.5906 2.91002 53.9998 3.94881 53.9997H50.0018C50.5204 54.0062 51.0352 53.9105 51.5168 53.7181C51.9984 53.5257 52.4373 53.2404 52.8086 52.8783C53.1799 52.5163 53.4762 52.0847 53.6806 51.6081C53.885 51.1316 53.9936 50.6195 54 50.101V3.88914C53.9844 2.84375 53.5547 1.84723 52.8052 1.11819C52.0556 0.389152 51.0475 -0.0128708 50.0018 0.000314383Z" fill="#5DC1CD"/>
</svg>
