<svg width="20" height="28" viewBox="0 0 20 28" fill="none" xmlns="http://www.w3.org/2000/svg">
<path d="M10 26.49C9.7759 26.2302 9.50822 25.9149 9.20768 25.552C8.28326 24.4358 7.05243 22.874 5.82367 21.0892C4.5929 19.3015 3.37701 17.3085 2.47197 15.3288C1.56077 13.3355 1 11.4311 1 9.8C1 4.95323 5.00457 1 10 1C14.9954 1 19 4.95323 19 9.8C19 11.4311 18.4392 13.3355 17.528 15.3288C16.623 17.3085 15.4071 19.3015 14.1763 21.0892C12.9476 22.874 11.7167 24.4358 10.7923 25.552C10.4918 25.9149 10.2241 26.2302 10 26.49ZM5.42857 9.8C5.42857 12.3032 7.49543 14.3 10 14.3C12.5046 14.3 14.5714 12.3032 14.5714 9.8C14.5714 7.29677 12.5046 5.3 10 5.3C7.49543 5.3 5.42857 7.29677 5.42857 9.8Z" stroke="#83BFCB" stroke-width="2"/>
</svg>
