<svg width="300" height="116" viewBox="0 0 300 116" fill="none" xmlns="http://www.w3.org/2000/svg">
<path d="M121.266 38.9461C121.122 40.6 120.583 42.1963 119.694 43.6031C119.305 44.1694 118.854 44.6914 118.35 45.1599C117.893 45.5502 117.338 45.9937 116.684 46.4905C116.123 46.8638 115.617 47.3115 115.179 47.821C114.84 48.3524 114.68 48.9768 114.722 49.604C114.714 50.0092 114.808 50.4101 114.995 50.7702C115.183 51.1304 115.459 51.4384 115.797 51.6664C116.657 52.2223 117.674 52.4926 118.699 52.4382C120.14 52.427 121.58 52.3426 123.012 52.1854C124.18 52.0324 125.355 51.9436 126.533 51.9192C127.491 51.9192 128.835 52.0079 130.564 52.1854C132.293 52.3628 133.556 52.447 134.353 52.4382C135.379 52.4926 136.395 52.2223 137.255 51.6664C137.594 51.4384 137.869 51.1304 138.057 50.7702C138.245 50.4101 138.338 50.0092 138.33 49.604C138.372 48.9768 138.213 48.3524 137.873 47.821C137.435 47.3117 136.929 46.8641 136.368 46.4905C135.715 46.0203 135.159 45.5768 134.702 45.1599C134.198 44.6914 133.747 44.1694 133.359 43.6031C132.43 42.2065 131.854 40.6093 131.679 38.9461C131.346 36.3739 131.193 33.7819 131.222 31.1888V25.3609C131.222 20.0385 131.307 16.3972 131.477 14.4368C131.633 12.6057 131.938 10.7901 132.391 9.00802C132.767 7.63569 132.979 6.22453 133.023 4.80339C133.065 4.23822 132.988 3.67055 132.796 3.1367C132.603 2.60285 132.301 2.11458 131.907 1.70313C131.342 1.16018 130.598 0.838693 129.811 0.79834C128.638 0.79834 126.703 1.59669 124.007 3.19338C122.851 3.83206 121.481 4.54171 119.895 5.32231C118.737 5.83517 117.622 6.44036 116.563 7.1319C116.11 7.40508 115.731 7.78241 115.457 8.23182C115.184 8.68122 115.024 9.18943 114.991 9.71323C115 10.183 115.134 10.6421 115.38 11.0438C115.57 11.4021 115.825 11.7224 116.133 11.9885C116.495 12.284 116.876 12.5552 117.275 12.8002C118.139 13.3509 118.918 14.0232 119.586 14.796C120.334 15.9241 120.854 17.1847 121.118 18.5084C121.618 20.8656 121.838 23.2724 121.776 25.6802V31.1888C121.805 33.7819 121.652 36.3738 121.319 38.9461" fill="#F2F1E7"/>
<path d="M143.356 50.6418C146.268 52.2868 149.57 53.1362 152.923 53.1034C156.319 53.1449 159.669 52.3201 162.651 50.7083C165.588 49.0879 167.991 46.6623 169.571 43.7228C169.955 43.1624 170.199 42.5192 170.283 41.8467C170.268 41.6109 170.196 41.3821 170.072 41.1804C169.947 40.9786 169.775 40.81 169.571 40.689C169.348 40.5085 169.077 40.3974 168.791 40.3697C168.026 40.4953 167.33 40.8868 166.829 41.4741C165.683 42.3685 164.374 43.037 162.973 43.4434C161.369 43.9448 159.697 44.1962 158.015 44.1885C155.681 44.1934 153.378 43.6508 151.297 42.6051C149.134 41.5021 147.383 39.7448 146.298 37.5888C145.884 36.7297 145.538 35.84 145.264 34.9276C145.206 34.7513 145.193 34.5637 145.226 34.3812C145.258 34.1987 145.336 34.0269 145.451 33.881C145.567 33.7352 145.717 33.6196 145.888 33.5446C146.059 33.4695 146.246 33.4373 146.433 33.4507L161.24 34.595C162.364 34.5677 163.482 34.416 164.572 34.1426C165.465 33.5825 166.196 32.8033 166.695 31.8806C167.055 30.9898 167.211 30.0309 167.152 29.0731C167.152 24.5491 165.911 21.165 163.43 18.9208C160.949 16.6765 157.469 15.5544 152.99 15.5544C148.729 15.5123 144.583 16.9216 141.246 19.5461C140.067 20.4553 139.007 21.5056 138.089 22.673C135.451 25.9634 134.028 30.048 134.058 34.249C133.981 37.6282 134.826 40.9653 136.503 43.9091C138.132 46.7316 140.499 49.0667 143.356 50.6684V50.6418ZM144.955 24.6156C145.467 23.3154 146.379 22.2076 147.561 21.4489C148.604 20.755 149.826 20.3718 151.082 20.3445C151.882 20.3388 152.672 20.5173 153.39 20.866C154.108 21.2147 154.735 21.724 155.22 22.3536C156.188 23.5246 156.833 24.7753 156.967 28.0618C156.976 28.2578 156.945 28.4536 156.875 28.6373C156.806 28.821 156.699 28.9889 156.563 29.1307C156.426 29.2725 156.261 29.3853 156.079 29.4623C155.897 29.5393 155.701 29.5789 155.502 29.5787L145.116 29.4589C144.973 29.4556 144.832 29.4238 144.702 29.3653C144.572 29.3067 144.455 29.2228 144.358 29.1184C144.261 29.014 144.187 28.8913 144.14 28.7578C144.092 28.6243 144.072 28.4826 144.081 28.3413C144.134 27.0517 144.416 25.7816 144.914 24.589" fill="#F2F1E7"/>
<path d="M170.256 24.4028C170.815 24.7165 171.405 24.975 172.016 25.1746C172.753 25.415 173.464 25.727 174.139 26.106C174.752 26.5303 175.22 27.1288 175.482 27.8224C175.9 28.9177 176.087 30.0858 176.033 31.2553C176.033 37.8461 175.357 42.0242 174.004 43.7894C173.266 44.6946 172.433 45.5198 171.519 46.251C170.967 46.6668 170.474 47.1546 170.054 47.7013C169.728 48.2811 169.579 48.942 169.624 49.604C169.622 50.0273 169.723 50.4449 169.917 50.8221C170.111 51.1993 170.393 51.5253 170.739 51.7729C171.568 52.3808 172.584 52.6864 173.615 52.6378C174.962 52.6319 176.308 52.5475 177.646 52.385C178.705 52.2338 179.773 52.1494 180.844 52.1321C182.003 52.1178 183.16 52.2248 184.297 52.4515C184.557 52.4515 184.928 52.4958 185.412 52.5845C185.882 52.5845 186.326 52.5845 186.756 52.5845C187.622 52.6036 188.463 52.2942 189.107 51.7197C189.426 51.441 189.679 51.0963 189.849 50.71C190.018 50.3238 190.1 49.9053 190.088 49.4843C190.066 48.7004 189.879 47.9298 189.537 47.2223C189.17 46.4062 188.552 45.2442 187.683 43.7362C186.136 40.967 185.326 37.8531 185.332 34.6882C185.274 32.3851 185.767 30.1011 186.769 28.022C187.708 26.114 189.325 24.6166 191.311 23.8174C192.229 23.3821 193.235 23.1591 194.253 23.1654C195.681 23.1721 197.068 23.6392 198.204 24.496C199.439 25.3846 200.424 26.5708 201.066 27.9422C201.773 29.4741 202.13 31.1413 202.114 32.8254C202.098 34.3431 201.835 35.8484 201.335 37.2829C200.764 39.1293 199.984 40.9058 199.01 42.5786C198.166 43.8968 197.218 45.147 196.175 46.3175L195.785 46.7965L195.57 46.9961C194.457 48.0802 193.748 49.5065 193.56 51.0415C193.372 52.5764 193.716 54.1291 194.536 55.4453C194.828 55.9268 195.175 56.3733 195.57 56.7759C196.208 57.4311 196.975 57.9499 197.823 58.3C198.671 58.6502 199.583 58.8243 200.502 58.8117C201.448 58.833 202.389 58.6581 203.264 58.2984C204.139 57.9387 204.928 57.402 205.581 56.7226C206.228 56.094 206.741 55.3419 207.087 54.5118C207.434 53.6817 207.607 52.7908 207.596 51.8926C207.622 50.9827 207.456 50.0774 207.109 49.2344C206.762 48.3914 206.241 47.6291 205.581 46.9961C204.442 45.8591 202.932 45.1609 201.321 45.0268H202.06C203.106 45.008 204.145 45.1987 205.115 45.5874C206.085 45.9761 206.965 46.5548 207.704 47.2888C208.744 48.274 209.477 49.535 209.813 50.9213C209.947 51.4535 210.015 52.6644 211.157 52.6644H211.829C212.825 52.7176 213.811 52.4466 214.637 51.8926C214.973 51.6538 215.252 51.3458 215.456 50.9898C215.661 50.6338 215.784 50.2382 215.819 49.8302C215.927 49.0418 215.825 48.2393 215.524 47.5017C215.015 46.6076 214.367 45.7992 213.602 45.1067C212.729 44.2798 212.03 43.2893 211.546 42.1927C211.081 40.9143 210.872 39.5586 210.928 38.201C211.007 35.6475 211.245 33.1012 211.64 30.5767C211.819 29.4635 211.904 28.3375 211.896 27.2104C211.896 23.3339 210.852 20.3712 208.765 18.3221C207.617 17.2728 206.268 16.4634 204.797 15.9422C203.327 15.4209 201.765 15.1986 200.206 15.2884C197.19 15.2271 194.213 15.9767 191.593 17.4572C189.673 18.5828 188.022 20.1082 186.756 21.928C186.677 22.0361 186.564 22.1161 186.436 22.1565C186.307 22.1968 186.169 22.1953 186.041 22.1522C185.913 22.109 185.803 22.0265 185.726 21.9167C185.649 21.807 185.61 21.6757 185.614 21.5421C185.614 20.655 185.659 19.8656 185.748 19.1737C185.856 17.8342 185.932 16.9915 185.977 16.6456C186.091 15.8742 186.159 15.0966 186.178 14.317C186.194 13.9576 186.137 13.5987 186.009 13.2619C185.882 12.925 185.686 12.6174 185.435 12.3574C185.184 12.0975 184.882 11.8907 184.548 11.7495C184.214 11.6084 183.854 11.5358 183.491 11.5361C182.484 11.5928 181.531 12.0033 180.803 12.6937C179.979 13.43 179.195 14.0864 178.452 14.663C177.672 15.2608 176.861 15.8161 176.02 16.3262C175.536 16.6323 175.012 16.925 174.421 17.231L173.145 17.883C172.153 18.2978 171.212 18.8199 170.336 19.4398C169.884 19.713 169.505 20.0903 169.231 20.5397C168.957 20.9891 168.797 21.4973 168.764 22.0211C168.777 22.4903 168.912 22.9483 169.154 23.3517C169.432 23.8022 169.814 24.1808 170.269 24.4561" fill="#F2F1E7"/>
<path d="M212.863 23.1787C213.29 23.3855 213.742 23.5375 214.207 23.6311C214.88 23.7597 215.523 24.0125 216.102 24.3763C216.723 24.9293 217.148 25.6669 217.311 26.4786C217.696 28.0454 217.864 29.657 217.808 31.2687C217.808 31.7388 217.763 32.75 217.674 34.3024C217.415 37.5673 217.812 40.8506 218.843 43.9624C219.667 46.5643 221.201 48.8899 223.277 50.6818C225.191 52.2808 227.625 53.1409 230.129 53.1035C233.258 53.1405 236.334 52.3109 239.011 50.7084C241.767 49.0054 244.001 46.5902 245.474 43.7229C245.858 43.1623 246.103 42.5192 246.186 41.8468C246.172 41.611 246.099 41.3823 245.975 41.1805C245.851 40.9788 245.679 40.8101 245.474 40.6892C245.252 40.508 244.981 40.3967 244.695 40.3698C243.929 40.4954 243.234 40.8869 242.733 41.4742C241.767 42.3451 240.664 43.0551 239.468 43.5765C238.133 44.0718 236.714 44.3024 235.289 44.2551C234.51 44.2531 233.738 44.0967 233.021 43.7951C232.303 43.4935 231.653 43.0527 231.11 42.4988C229.751 41.1012 228.763 39.3913 228.235 37.5224C227.495 35.0716 227.141 32.5223 227.187 29.9647C227.187 29.0776 227.214 28.1196 227.267 27.0906C227.284 26.7623 227.368 26.4406 227.513 26.1451C227.659 25.8496 227.864 25.5864 228.115 25.3713C228.366 25.1562 228.658 24.9937 228.975 24.8936C229.291 24.7934 229.624 24.7578 229.955 24.7887L236.31 25.2544C237.751 25.4178 239.21 25.2633 240.583 24.802C241.759 24.3137 242.698 23.3933 243.203 22.234L244.345 19.9454C244.521 19.5814 244.63 19.1895 244.668 18.7878C244.668 17.9008 243.929 17.4572 242.451 17.4572L228.154 17.8431C228.154 18.056 228.307 17.1689 228.611 15.1819C228.867 14.058 229.02 12.9135 229.068 11.7624C229.123 11.2111 229.017 10.6558 228.762 10.1627C228.507 9.66962 228.114 9.25956 227.63 8.98144C227.284 8.81151 226.902 8.7249 226.515 8.72863C225.854 8.74523 225.219 8.98462 224.714 9.40723C223.937 10.0337 223.205 10.714 222.524 11.443C221.736 12.3203 220.887 13.1427 219.985 13.9046C218.506 15.0525 216.958 16.1101 215.349 17.0714C214.594 17.4503 213.874 17.8956 213.199 18.402C212.747 18.6751 212.368 19.0525 212.094 19.5019C211.82 19.9513 211.66 20.4595 211.627 20.9833C211.64 21.4524 211.775 21.9105 212.017 22.3139C212.238 22.6619 212.542 22.9499 212.904 23.1521" fill="#F2F1E7"/>
<path d="M32.0732 18.7476C32.7343 18.7997 33.3934 18.6259 33.9409 18.2553C34.6825 17.6319 35.2707 16.8492 35.6608 15.9667L36.776 13.8378C37.5089 12.257 38.6317 10.8843 40.0411 9.84605C41.2799 9.10738 42.7074 8.73781 44.1527 8.78159C47.5477 8.78159 49.2452 10.6134 49.2452 14.2769V31.1753C49.2738 33.7684 49.1211 36.3603 48.7884 38.9325C48.6455 40.5865 48.1066 42.183 47.2163 43.5896C46.8275 44.1558 46.3769 44.6779 45.8726 45.1464C45.4158 45.5367 44.8604 45.9802 44.2065 46.4769C43.6456 46.85 43.1392 47.2977 42.7016 47.8075C42.3615 48.3385 42.2015 48.9632 42.2447 49.5905C42.245 49.9769 42.3334 50.3582 42.5032 50.7061C42.6731 51.054 42.92 51.3594 43.2256 51.5997C44.0955 52.2262 45.1632 52.5236 46.2354 52.4379C46.8445 52.4379 48.5868 52.3714 51.4623 52.2383L54.069 52.1053C55.3768 52.1053 56.6802 52.1718 57.979 52.3049C59.7168 52.3936 61.0247 52.4379 61.9025 52.4379C62.9747 52.5236 64.0424 52.2262 64.9123 51.5997C65.2179 51.3594 65.4649 51.054 65.6347 50.7061C65.8045 50.3582 65.8929 49.9769 65.8932 49.5905C65.9355 48.9632 65.7755 48.3389 65.4364 47.8075C64.9985 47.298 64.4922 46.8503 63.9315 46.4769C63.2775 46.0068 62.7222 45.5633 62.2653 45.1464C61.761 44.6779 61.3104 44.1558 60.9217 43.5896C59.9521 42.2081 59.3344 40.6149 59.1211 38.9459C58.7877 36.3737 58.6351 33.7817 58.6643 31.1886V14.2902C58.6643 10.6267 60.3394 8.7949 63.6896 8.7949C65.205 8.74063 66.7063 9.09965 68.0296 9.83275C69.4751 10.8576 70.6315 12.2318 71.3888 13.8245C72.2129 15.3768 72.7996 16.4324 73.149 16.9913C73.4577 17.5108 73.869 17.9633 74.3583 18.3219C74.5464 18.4549 74.0896 19.24 73.6462 19.5726C72.4671 20.4816 71.4065 21.5319 70.4885 22.6995C67.8498 25.9893 66.4274 30.0743 66.4576 34.2755C66.3981 37.6494 67.2568 40.9769 68.9433 43.9089C70.5709 46.7322 72.9386 49.0676 75.796 50.6683C78.7088 52.3126 82.0102 53.1621 85.3629 53.1298C88.4999 53.1704 91.5858 52.3407 94.2714 50.7348C95.4437 50.0654 96.4601 49.1586 97.2543 48.0736C97.3531 47.953 97.4812 47.8591 97.6266 47.8008C97.772 47.7425 97.9299 47.7217 98.0856 47.7403C98.2414 47.7589 98.3898 47.8163 98.517 47.9072C98.6442 47.9981 98.746 48.1194 98.813 48.2599C99.1385 49.1646 99.6721 49.9819 100.372 50.6471C101.071 51.3122 101.918 51.8069 102.844 52.092C103.754 52.3402 104.678 52.5313 105.612 52.6641C106.69 52.7493 107.772 52.7493 108.85 52.6641C109.882 52.7089 110.898 52.3986 111.726 51.7859C112.077 51.5412 112.364 51.2166 112.563 50.8392C112.762 50.4618 112.866 50.0427 112.868 49.6171C112.913 48.955 112.764 48.2941 112.438 47.7144C112.018 47.1675 111.525 46.6796 110.973 46.264C110.059 45.5327 109.226 44.7076 108.487 43.8025C107.144 42.0284 106.467 37.8503 106.458 31.2684C106.405 30.0989 106.592 28.9309 107.009 27.8355C107.271 27.1419 107.74 26.5434 108.353 26.1191C109.028 25.7401 109.739 25.4281 110.476 25.1876C111.087 24.988 111.676 24.7295 112.236 24.4159C112.691 24.1406 113.073 23.7621 113.351 23.3115C113.594 22.9081 113.728 22.4501 113.741 21.9809C113.708 21.4571 113.548 20.9489 113.274 20.4995C113.001 20.0501 112.622 19.6728 112.169 19.3996C111.294 18.7797 110.352 18.2576 109.361 17.8428L108.084 17.1909C107.493 16.8893 106.96 16.5877 106.485 16.2861C105.681 15.7773 104.905 15.2266 104.161 14.6361C103.417 14.0507 102.633 13.3943 101.809 12.6669C101.081 11.9764 100.128 11.5659 99.122 11.5093C98.7516 11.5057 98.3842 11.5752 98.0411 11.7135C97.6981 11.8518 97.3862 12.0563 97.1236 12.3151C96.8611 12.5739 96.6531 12.8817 96.5117 13.2208C96.3704 13.5599 96.2985 13.9234 96.3003 14.2902C96.3003 14.716 96.5556 16.7917 96.7303 18.6545C96.7468 18.7971 96.7207 18.9413 96.655 19.0693C96.5894 19.1973 96.4872 19.3033 96.3612 19.3742C96.2352 19.4451 96.0909 19.4778 95.9463 19.4681C95.8017 19.4584 95.6631 19.4068 95.5479 19.3198C92.6329 17.0754 89.1021 15.7538 85.4167 15.5276C83.3806 15.5193 81.3567 15.8384 79.4239 16.4723C79.2743 16.5213 79.1147 16.5317 78.9599 16.5026C78.8051 16.4735 78.6604 16.4058 78.5394 16.3059C78.4184 16.2061 78.3251 16.0773 78.2682 15.9318C78.2114 15.7863 78.193 15.6289 78.2146 15.4744C78.2995 14.7724 78.3399 14.0658 78.3355 13.3588C78.3355 12.0193 78.2281 10.3162 78.0131 8.24936C77.9097 5.98715 77.2352 3.7867 76.0513 1.84927C75.5636 1.22616 74.9285 0.731511 74.2021 0.408961C73.4756 0.08641 72.6802 -0.0541241 71.886 -0.000241045C70.3671 0.10012 68.8606 0.336149 67.3847 0.704967C65.2079 1.18398 63.1297 1.5521 61.1501 1.80935C58.8005 2.08811 56.4353 2.217 54.069 2.19522C51.7161 2.21526 49.3644 2.08637 47.0282 1.80935C45.0485 1.5521 42.9703 1.18398 40.7936 0.704967C39.3145 0.329299 37.8029 0.0931757 36.2788 -0.000241045C35.4911 -0.0421832 34.7049 0.106764 33.9885 0.433687C33.272 0.760611 32.6469 1.25565 32.1672 1.87588C30.9812 3.81238 30.3066 6.01337 30.2055 8.27597C30.0118 9.97271 29.9042 11.678 29.883 13.3854C29.8181 14.7071 29.9816 16.0301 30.3667 17.2973C30.4605 17.6839 30.6743 18.0317 30.9779 18.2918C31.2816 18.552 31.6599 18.7114 32.0597 18.7476H32.0732ZM77.2337 24.5623C77.6569 23.3901 78.448 22.3829 79.4911 21.6882C80.4066 21.1161 81.4724 20.8245 82.5546 20.85C84.2962 20.888 86.0024 21.3446 87.5262 22.1805C89.1823 23.1057 90.6459 24.3339 91.8394 25.7997L93.183 27.4762C96.06 31.1566 97.3931 35.7938 96.905 40.4228C96.9815 41.1187 96.7902 41.8175 96.3693 42.3799C95.9484 42.9422 95.3288 43.3267 94.6342 43.4565C93.3091 43.9584 91.901 44.2111 90.4823 44.2016C88.148 44.2066 85.8457 43.664 83.764 42.6182C81.602 41.5145 79.8512 39.7574 78.7655 37.602C77.3172 34.9635 76.5553 32.0094 76.5485 29.0064C76.5186 27.496 76.7738 25.9933 77.3009 24.5756" fill="#F2F1E7"/>
<path d="M107.681 64.5729C104.691 62.9558 101.333 62.1223 97.9262 62.1513C94.5475 62.1366 91.2222 62.9864 88.2725 64.6182C85.3229 66.25 82.8488 68.6085 81.0901 71.4653C79.3679 74.2715 78.4655 77.4957 78.4834 80.7794C78.4725 82.7699 78.7763 84.7498 79.3836 86.6473C79.4142 86.7363 79.4122 86.8331 79.3778 86.9207C79.3433 87.0084 79.2788 87.0812 79.1955 87.1263C78.7931 87.3573 78.4228 87.6391 78.0937 87.9645C76.9466 88.8581 75.6377 89.5265 74.2374 89.9338C72.6337 90.4352 70.961 90.6866 69.2793 90.6789C66.945 90.6839 64.6427 90.1413 62.5609 89.0955C60.3984 87.9925 58.6474 86.2353 57.5625 84.0793C56.1136 81.441 55.3517 78.4868 55.3454 75.4837C55.3152 73.9732 55.5704 72.4705 56.0979 71.0529C56.5211 69.8807 57.3122 68.8735 58.3553 68.1788C59.2708 67.6067 60.3365 67.3151 61.4188 67.3405C63.0408 67.3841 64.6239 67.8425 66.0141 68.6711C67.6179 69.5659 69.0286 70.7639 70.1661 72.1972L71.5097 73.8737C72.2451 74.8557 73.0393 75.7933 73.888 76.6812C74.1039 76.9339 74.3683 77.1416 74.6658 77.2923C74.9633 77.4431 75.2881 77.5339 75.6213 77.5594C75.8241 77.5448 76.0234 77.5 76.2126 77.4263C76.6873 77.2135 77.2113 76.2865 77.7846 74.6454C78.3789 72.9016 78.8679 71.1244 79.2492 69.3231C79.5741 68.0132 79.7809 66.6774 79.8673 65.3314C79.878 65.05 79.8311 64.7695 79.7295 64.5065C79.6279 64.2435 79.4737 64.0036 79.2761 63.8012C78.8144 63.4444 78.2338 63.2734 77.6503 63.3222C77.3905 63.3222 76.5619 63.4065 75.1645 63.575C74.8157 63.603 74.4652 63.603 74.1164 63.575C73.0722 63.5266 72.0404 63.3294 71.0529 62.9896C70.0455 62.6991 69.0228 62.4636 67.9893 62.2843C66.7356 62.0961 65.4681 62.0115 64.2002 62.0315C60.8621 62.0026 57.5787 62.8718 54.7005 64.5463C51.8428 66.1898 49.4671 68.5424 47.8075 71.3722C46.9715 72.7708 46.3297 74.2746 45.8995 75.843C45.8401 76.0379 45.7256 76.2119 45.5693 76.3444C45.4131 76.4768 45.2218 76.5621 45.0182 76.5901C44.8145 76.6181 44.607 76.5877 44.4202 76.5024C44.2335 76.4172 44.0754 76.2806 43.9646 76.1091C43.1938 74.9976 42.2453 74.0179 41.1563 73.2084C37.9047 70.7956 33.2601 69.2211 27.2225 68.4848C24.0633 68.1504 20.9238 67.653 17.8169 66.9946C16.128 66.7096 14.512 66.0993 13.0603 65.1983C12.6483 64.9174 12.3109 64.542 12.077 64.1041C11.843 63.6663 11.7194 63.1789 11.7167 62.6835C11.7193 61.4336 12.1993 60.231 13.0603 59.3172C14.1422 58.1879 15.4836 57.3343 16.9704 56.829C18.7795 56.1845 20.6914 55.8689 22.6138 55.8976C25.4267 55.7494 28.2239 56.4003 30.6758 57.7737C32.7339 59.1703 34.3172 61.1509 35.2174 63.4553C35.6473 64.4931 36.0504 65.4068 36.4267 66.1963C36.6988 66.8299 37.1069 67.3975 37.6225 67.8595C38.0718 68.2003 38.6296 68.3702 39.1946 68.3385C39.685 68.3754 40.1756 68.2691 40.6055 68.0325C41.0354 67.796 41.3858 67.4398 41.6132 67.0079C42.2307 65.5907 42.5944 64.0779 42.6881 62.5372L42.9972 59.9558C43.1818 58.8021 43.2895 57.6375 43.3196 56.4697C43.3835 55.6884 43.1644 54.9101 42.7016 54.2743C42.0854 53.7187 41.2773 53.4187 40.4442 53.436C39.49 53.3609 38.5452 53.196 37.6225 52.9437C36.6418 52.6432 35.6775 52.2923 34.7336 51.8925C33.0429 51.2912 31.315 50.7979 29.5605 50.4156C27.5083 50.0114 25.4179 49.8285 23.3259 49.87C19.6316 49.8515 15.9682 50.5382 12.5363 51.8925C9.40109 53.0763 6.6252 55.0372 4.4743 57.5874C2.48783 59.9404 1.41143 62.9165 1.43762 65.9834C1.31482 68.6056 2.09668 71.1911 3.65467 73.3149C5.46315 75.4018 7.82878 76.942 10.4805 77.759C14.4982 79.0793 18.6468 79.9714 22.8556 80.4202C25.572 80.7166 28.2653 81.1922 30.9176 81.8439C32.3828 82.1505 33.7601 82.7779 34.9486 83.6801C35.3251 84.0145 35.6243 84.4253 35.826 84.8845C36.0278 85.3437 36.1272 85.8405 36.1176 86.3412C36.1018 87.5046 35.6738 88.6254 34.9083 89.508C33.9007 90.6337 32.6059 91.4701 31.1595 91.9297C29.0773 92.6155 26.89 92.9352 24.6965 92.8744C21.3278 92.9705 17.9981 92.1415 15.0758 90.4793C12.592 89.0128 10.5971 86.857 9.33837 84.2788C8.44259 82.3805 7.81107 81.0988 7.4438 80.4335C7.15429 79.837 6.74243 79.3068 6.2345 78.8767C5.71182 78.5062 5.07524 78.3275 4.43399 78.3711C3.17095 78.3711 2.11393 79.2138 1.26294 80.8992C0.32983 82.9911 -0.106837 85.267 -0.0135369 87.5521C-0.0710872 89.1215 0.10549 90.6907 0.510492 92.2091C0.763997 93.1346 1.27085 93.9726 1.97509 94.6308C2.81379 95.2909 3.74655 95.8245 4.74304 96.2141C10.2284 98.5258 16.1424 99.6726 22.1032 99.5805C26.0044 99.5997 29.8833 98.9977 33.5915 97.7975C36.9929 96.7589 40.0721 94.8817 42.5403 92.3422C43.5356 91.3061 44.3445 90.1091 44.932 88.8028C45.0193 88.6162 45.1587 88.4582 45.3337 88.3475C45.5087 88.2368 45.712 88.178 45.9196 88.178C46.1273 88.178 46.3306 88.2368 46.5056 88.3475C46.6806 88.4582 46.82 88.6162 46.9072 88.8028C47.1637 89.3763 47.4508 89.936 47.7672 90.4793C49.411 93.2627 51.7771 95.5598 54.6199 97.1322C57.5327 98.7766 60.834 99.626 64.1868 99.5938C67.5741 99.65 70.9192 98.8436 73.9015 97.252C76.839 95.6316 79.2418 93.206 80.8213 90.2664L80.9019 90.1068L81.0766 90.4261C82.7936 93.2399 85.2321 95.5536 88.1443 97.1322C91.1384 98.7806 94.5141 99.6289 97.9396 99.5938C101.349 99.6357 104.709 98.7867 107.681 97.1322C110.609 95.5039 113.051 93.1404 114.762 90.2798C116.472 87.3999 117.373 84.12 117.373 80.7794C117.373 77.4388 116.472 74.159 114.762 71.2791C113.045 68.4746 110.6 66.1772 107.681 64.6262V64.5729ZM106.338 91.2378C105.872 91.779 105.283 92.2025 104.62 92.4732C103.956 92.744 103.237 92.8541 102.522 92.7945C99.9554 92.6508 97.5463 91.5248 95.8032 89.6544C93.5519 87.5507 91.7634 85.0095 90.5495 82.1898C89.3468 79.691 88.6789 76.973 88.5877 74.2063C88.5016 72.648 88.936 71.1049 89.8239 69.8154C90.2453 69.2792 90.7921 68.8525 91.417 68.572C92.042 68.2915 92.7265 68.1657 93.4115 68.2054C95.1521 68.2678 96.8295 68.868 98.2083 69.9219C99.9268 71.1489 101.445 72.6297 102.71 74.3128C104.003 75.9669 105.069 77.7834 105.881 79.7149C106.887 82.0252 107.439 84.5046 107.507 87.0198C107.595 88.5372 107.169 90.0403 106.297 91.291" fill="#F2F1E7"/>
<path d="M161.925 92.9543C161.549 92.6138 161.117 92.3393 160.648 92.1427C160.209 91.9342 159.782 91.6986 159.372 91.4375C158.979 91.1436 158.658 90.7662 158.431 90.3331C157.079 87.9203 156.402 83.006 156.402 75.5903C156.423 72.7507 156.909 69.9332 157.84 67.2475C157.94 66.7985 158.061 66.3544 158.203 65.9169C158.377 65.3829 158.477 64.8278 158.499 64.267C158.511 63.6668 158.327 63.0787 157.975 62.5905C157.698 62.2 157.323 61.8878 156.887 61.6848C156.451 61.4818 155.969 61.3949 155.489 61.4329C154.29 61.4547 153.127 61.8402 152.156 62.5373C151.043 63.2913 149.885 63.9799 148.69 64.5997L147.521 65.2516C147.127 65.4645 146.737 65.6996 146.352 65.9569C145.054 66.6667 143.837 67.5144 142.724 68.485C142.407 68.7482 142.149 69.0729 141.964 69.4391C141.779 69.8053 141.672 70.2051 141.649 70.6139C141.619 70.9353 141.656 71.2595 141.758 71.5662C141.859 71.8729 142.024 72.1557 142.24 72.3969C142.783 72.8526 143.401 73.2127 144.068 73.4613C144.835 73.7809 145.54 74.2312 146.15 74.7919C146.683 75.4581 146.937 76.3007 146.862 77.147C146.963 80.6059 146.236 84.0392 144.739 87.1663C144.227 88.4091 143.347 89.4694 142.216 90.208C141.084 90.9465 139.753 91.3287 138.397 91.3044C137.197 91.3727 136.003 91.1027 134.951 90.5257C133.9 89.9487 133.036 89.0884 132.458 88.0445C131.121 85.5974 130.467 82.8416 130.564 80.061C130.542 78.0665 130.628 76.0723 130.819 74.0867C130.989 72.5166 131.249 70.5252 131.598 68.1124C131.834 66.9849 131.986 65.8421 132.055 64.6928C132.102 63.9386 131.92 63.1877 131.531 62.5373C131.228 62.1214 130.821 61.7902 130.35 61.5757C129.879 61.3613 129.36 61.2708 128.844 61.3131C127.69 61.3076 126.575 61.7246 125.713 62.484C124.72 63.3848 123.64 64.187 122.488 64.8791C121.333 65.571 120.625 65.979 120.365 66.1032C119.115 66.8151 117.924 67.6249 116.805 68.5249C116.492 68.7561 116.234 69.052 116.048 69.3921C115.862 69.7322 115.754 70.1083 115.73 70.4941C115.743 70.9633 115.877 71.4213 116.119 71.8247C116.546 72.4449 117.163 72.9117 117.88 73.1553C118.472 73.4388 119.039 73.7727 119.573 74.1532C120.09 74.5918 120.476 75.1625 120.688 75.8031C121.033 76.8454 121.188 77.9404 121.145 79.0365V81.9504C121.145 87.5566 122.188 91.9209 124.275 95.0433C126.363 98.1658 130.085 99.727 135.441 99.727C138.118 99.8657 140.769 99.1523 143.006 97.6912C144.996 96.1771 146.53 94.1524 147.44 91.8366C147.61 93.7349 147.807 95.2651 148.031 96.4271C148.122 97.3015 148.462 98.1322 149.012 98.8222C149.242 99.0525 149.516 99.2339 149.819 99.3552C150.121 99.4765 150.446 99.5351 150.773 99.5274C151.731 99.459 152.676 99.2621 153.581 98.9419L156.268 98.29L158.351 97.9972C159.382 97.8497 160.384 97.5444 161.32 97.0924C161.781 96.8616 162.151 96.4846 162.37 96.0216C162.589 95.5585 162.645 95.0361 162.53 94.5377C162.509 93.9879 162.316 93.4579 161.979 93.0209" fill="#F2F1E7"/>
<path d="M209.222 92.2758C208.523 91.6745 207.868 91.0254 207.26 90.3331C206.413 89.2538 205.838 87.9905 205.581 86.6474C205.263 84.4445 205.133 82.219 205.191 79.9945C205.158 78.3628 205.243 76.7308 205.446 75.1113C205.617 74.0113 205.944 72.5344 206.427 70.6805C206.812 69.3093 207.033 67.8981 207.086 66.4758C207.128 65.9107 207.051 65.343 206.858 64.8091C206.666 64.2753 206.364 63.787 205.97 63.3756C205.392 62.8207 204.626 62.4983 203.821 62.4708H203.471C203.059 62.5284 202.654 62.6265 202.262 62.7635C199.83 63.349 194.334 64.6263 190.411 65.1719C186.356 65.6487 182.279 65.9152 178.197 65.9702C177.028 66.1299 176.235 64.3469 176.369 63.176C176.369 62.5639 176.517 61.8454 176.625 61.2733C176.881 60.1493 177.033 59.0048 177.082 57.8537C177.137 57.3024 177.03 56.7471 176.775 56.254C176.52 55.7609 176.128 55.3509 175.644 55.0727C175.297 54.9028 174.915 54.8162 174.529 54.8199C173.868 54.8365 173.233 55.0759 172.728 55.4985C171.95 56.1247 171.218 56.805 170.538 57.5343C169.745 58.4119 168.892 59.2343 167.985 59.9959C166.506 61.1441 164.958 62.2016 163.349 63.1627C162.594 63.5417 161.875 63.987 161.2 64.4933C160.747 64.7664 160.368 65.1438 160.094 65.5932C159.82 66.0426 159.66 66.5508 159.627 67.0746C159.641 67.5437 159.775 68.0018 160.017 68.4052C160.239 68.7525 160.543 69.0404 160.904 69.2434C161.331 69.4496 161.782 69.6016 162.248 69.6958C162.921 69.8244 163.563 70.0772 164.142 70.441C164.763 70.9946 165.187 71.7319 165.351 72.5433C165.73 74.1065 165.893 75.7134 165.835 77.3201C165.835 77.7991 165.79 78.8103 165.701 80.3538C165.446 83.6195 165.848 86.9028 166.883 90.0138C167.708 92.6154 169.242 94.9408 171.317 96.7332C173.232 98.3322 175.666 99.1923 178.17 99.1549C181.435 99.1549 186.017 96.2276 187.683 93.1673C188.067 92.6067 188.312 91.9636 188.395 91.2911C188.381 91.0554 188.308 90.8266 188.184 90.6249C188.06 90.4231 187.888 90.2545 187.683 90.1335C187.461 89.953 187.19 89.8419 186.904 89.8142C186.38 89.8142 185.869 90.3731 184.942 90.9186C184.162 91.4449 183.239 91.7263 182.295 91.7263C181.351 91.7263 180.428 91.4449 179.648 90.9186C176.598 88.803 176.222 86.0354 175.872 83.5472C175.482 81.0459 175.271 78.5203 175.241 75.9895C175.241 74.925 175.281 73.7452 175.362 72.4501C175.426 71.9838 175.67 71.5604 176.044 71.2698C176.418 70.9791 176.891 70.8441 177.364 70.8933C177.364 70.8933 188.892 71.0929 192.023 72.2239C192.733 72.5362 193.394 72.9485 193.985 73.4481C194.548 74.0146 194.971 74.7022 195.221 75.4572C195.598 77.4934 195.774 79.5612 195.745 81.6311C195.78 83.3665 195.636 85.1008 195.315 86.8071C195.044 88.0704 194.499 89.26 193.716 90.2932C193.203 91.0149 192.561 91.6373 191.822 92.1294C191.123 92.5818 190.675 92.8524 190.478 92.9411C189.779 93.2814 189.139 93.7306 188.583 94.2716C188.168 94.7821 187.957 95.4265 187.992 96.0812C187.989 96.5034 188.087 96.9202 188.279 97.2973C188.47 97.6745 188.75 98.001 189.094 98.2501C189.922 98.8618 190.937 99.1719 191.969 99.1283C193.232 99.1283 194.778 99.044 196.605 98.8755C198.432 98.7069 199.718 98.6227 200.461 98.6227C201.883 98.623 203.302 98.7298 204.707 98.942L206.051 99.075C206.526 99.075 207.072 99.075 207.69 99.075C208.671 99.0986 209.626 98.7675 210.378 98.1436C210.747 97.8294 211.039 97.4361 211.232 96.9935C211.426 96.5509 211.515 96.0706 211.493 95.5889C211.506 94.9887 211.322 94.4006 210.969 93.9124C210.465 93.2768 209.898 92.6928 209.276 92.1693" fill="#F2F1E7"/>
<path d="M256.008 91.6238C255.137 90.8008 254.438 89.8149 253.953 88.7231C253.487 87.4448 253.277 86.0891 253.335 84.7314C253.414 82.1779 253.652 79.6317 254.047 77.1071C254.23 75.9943 254.32 74.8683 254.315 73.7408C254.315 69.8643 253.272 66.9016 251.185 64.8525C250.042 63.7978 248.696 62.982 247.228 62.4539C245.76 61.9258 244.199 61.6962 242.639 61.7788C239.623 61.7176 236.646 62.4671 234.026 63.9477C231.466 65.4794 229.386 67.6861 228.02 70.3212C228.02 68.5471 228.074 66.9947 228.181 65.6641C228.289 64.3336 228.365 63.4909 228.41 63.136C228.525 62.3647 228.592 61.5871 228.611 60.8075C228.627 60.4481 228.57 60.0891 228.442 59.7523C228.315 59.4155 228.119 59.1078 227.868 58.8479C227.617 58.588 227.315 58.3812 226.981 58.24C226.647 58.0988 226.287 58.0262 225.924 58.0266C224.916 58.0869 223.962 58.5022 223.236 59.1975C222.412 59.9338 221.629 60.5902 220.885 61.1668C220.132 61.7581 219.347 62.3089 218.534 62.8167C218.05 63.1183 217.517 63.4199 216.935 63.7215L215.658 64.3735C214.667 64.7887 213.725 65.3108 212.85 65.9303C212.397 66.2034 212.018 66.5808 211.744 67.0302C211.471 67.4796 211.311 67.9878 211.278 68.5116C211.291 68.9808 211.425 69.439 211.667 69.8422C211.945 70.2927 212.328 70.6713 212.783 70.9465C213.343 71.2599 213.932 71.5184 214.543 71.7183C215.28 71.9585 215.991 72.2705 216.666 72.6497C217.279 73.0734 217.748 73.6721 218.01 74.3661C218.425 75.4573 218.613 76.6207 218.56 77.7857C218.56 84.3765 217.884 88.559 216.532 90.3331C215.794 91.2387 214.96 92.0639 214.046 92.7947C213.493 93.2101 213.001 93.698 212.581 94.245C212.254 94.8245 212.105 95.4856 212.151 96.1477C212.15 96.571 212.25 96.9886 212.444 97.3658C212.638 97.743 212.92 98.069 213.266 98.3166C214.094 98.9293 215.11 99.2396 216.142 99.1948C217.489 99.1883 218.835 99.1039 220.173 98.942C221.232 98.7904 222.3 98.7059 223.371 98.6891C224.53 98.6748 225.688 98.7818 226.824 99.0085L227.939 99.1415C228.423 99.1415 228.853 99.1415 229.283 99.1415C230.151 99.157 230.993 98.8428 231.634 98.2634C231.954 97.9853 232.208 97.6407 232.377 97.2543C232.547 96.8679 232.628 96.4491 232.615 96.028C232.594 95.2441 232.406 94.4734 232.064 93.766C231.697 92.9499 231.074 91.7879 230.197 90.2799C228.649 87.5107 227.84 84.3967 227.845 81.2319C227.754 78.9173 228.219 76.6144 229.202 74.5125C230.166 72.6156 231.802 71.1374 233.798 70.3611C234.716 69.9258 235.722 69.7028 236.74 69.7091C238.168 69.7158 239.555 70.1829 240.691 71.0397C241.9 71.9449 242.857 73.14 243.472 74.5125C244.18 76.0442 244.537 77.7115 244.52 79.3957C244.504 80.9133 244.241 82.4184 243.741 83.8532C243.17 85.6995 242.39 87.4761 241.416 89.1489C240.594 90.4692 239.668 91.7238 238.648 92.9011C238.156 93.4704 237.706 94.0752 237.305 94.7107C237.02 95.1809 236.871 95.7194 236.875 96.2675C236.875 98.2545 237.985 99.2436 240.207 99.2347C241.171 99.2282 242.132 99.1437 243.082 98.9819C244.078 98.8225 245.084 98.738 246.092 98.7291C247.095 98.7291 248.511 98.8133 250.338 98.9819C252.166 99.1504 253.469 99.2347 254.248 99.2347C255.24 99.285 256.221 99.0141 257.043 98.463C257.379 98.2242 257.658 97.9161 257.863 97.5601C258.067 97.2041 258.19 96.8085 258.225 96.4005C258.334 95.6121 258.232 94.8094 257.93 94.072C257.422 93.1779 256.773 92.3695 256.008 91.677" fill="#F2F1E7"/>
<path d="M299.489 93.3668C299.24 92.7076 298.764 92.1564 298.146 91.81C297.424 91.5039 296.646 91.3498 295.861 91.3576C293.999 91.4319 292.151 91.7131 290.352 92.1959C288.023 92.7547 284.888 93.6417 280.947 94.857C278.251 95.7696 275.436 96.2939 272.589 96.4138C271.733 96.5041 270.868 96.4184 270.047 96.162C269.226 95.9055 268.468 95.4839 267.819 94.9235C267.629 94.7024 267.485 94.4464 267.395 94.1702C267.305 93.8939 267.271 93.6028 267.295 93.3135C267.297 92.8582 267.383 92.4071 267.55 91.983C267.694 91.5747 267.939 91.2087 268.263 90.9185C268.71 90.5207 269.287 90.2942 269.888 90.2798C270.286 90.2904 270.679 90.3576 271.057 90.4794H270.923C273.059 91.006 275.252 91.2652 277.453 91.2511C280.822 91.2844 284.16 90.6133 287.249 89.2819C290.039 88.133 292.489 86.3018 294.37 83.9596C296.045 81.8763 296.955 79.291 296.95 76.6281C296.966 74.3568 296.307 72.1311 295.055 70.228C293.715 68.2168 291.927 66.537 289.828 65.3181C291.845 65.3124 293.83 64.8142 295.606 63.8678C296.29 63.5151 296.878 63.0044 297.32 62.3791C297.762 61.7537 298.045 61.032 298.146 60.2752C298.175 59.8899 298.175 59.5029 298.146 59.1176C298.201 57.8138 297.771 56.5353 296.936 55.5251C296.177 54.6297 295.202 53.9386 294.101 53.5159C293.126 53.13 292.088 52.9226 291.038 52.9038C290.299 52.9038 289.869 53.0103 289.694 53.2232C289.508 53.7385 289.439 54.2883 289.492 54.8332C289.506 55.7244 289.439 56.6151 289.291 57.4943C289.15 58.2212 288.784 58.8864 288.243 59.397C287.091 60.3829 285.703 61.0607 284.212 61.3663C281.979 61.907 279.684 62.1575 277.386 62.1114C273.998 62.0758 270.64 62.7373 267.524 64.0541C264.731 65.1988 262.28 67.0308 260.402 69.3764C258.721 71.4325 257.802 73.9961 257.795 76.6414C257.797 78.4333 258.189 80.2038 258.945 81.8319C259.701 83.46 260.803 84.9074 262.176 86.0752L262.431 86.2748L262.754 86.5276C263.115 86.815 263.351 87.2297 263.412 87.6852C263.412 88.1198 263.085 88.5944 262.431 89.1089C259.95 91.3088 258.709 93.3978 258.709 95.3759C258.704 96.0928 258.86 96.8017 259.166 97.4516C260.078 99.3571 261.465 101.001 263.197 102.228C261.823 103.026 260.658 104.134 259.797 105.462C258.965 106.634 258.498 108.021 258.454 109.453C258.458 110.528 258.79 111.577 259.408 112.461C260.13 113.46 261.109 114.25 262.243 114.749C264.808 115.743 267.553 116.197 270.305 116.08C274.405 116.054 278.479 115.436 282.398 114.244C286.28 113.151 289.868 111.22 292.905 108.589C295.084 106.779 296.906 104.587 298.28 102.122C299.299 100.296 299.869 98.2588 299.946 96.1743C299.958 95.261 299.779 94.3552 299.422 93.5131L299.489 93.3668ZM271.205 68.2321C271.52 67.828 271.929 67.5055 272.397 67.2923C272.865 67.0791 273.378 66.9815 273.893 67.008C274.954 67.0607 275.994 67.3207 276.953 67.7728C277.912 68.2249 278.772 68.8603 279.482 69.6425C281.297 71.4034 282.728 73.5136 283.688 75.843C284.47 77.6251 284.925 79.5311 285.031 81.4714C285.095 82.65 284.749 83.8146 284.051 84.7712C283.683 85.1938 283.221 85.5248 282.7 85.7375C282.179 85.9501 281.616 86.0385 281.054 85.9953C279.073 85.8892 277.211 85.0201 275.868 83.5737C274.131 81.9443 272.757 79.9726 271.837 77.7857C270.93 75.8159 270.441 73.683 270.399 71.5186C270.33 70.3284 270.651 69.1481 271.313 68.1523L271.205 68.2321ZM289.237 106.127C288.079 107.319 286.658 108.23 285.085 108.788C280.121 110.469 274.704 110.275 269.875 108.243C267.585 107.18 265.751 105.345 264.702 103.067C266.865 104.068 269.235 104.556 271.622 104.49C273.662 104.484 275.696 104.279 277.695 103.878C279.782 103.47 282.371 102.876 285.461 102.095C286.341 101.872 287.242 101.743 288.149 101.71C289.716 101.71 290.5 102.335 290.5 103.586C290.346 104.54 289.873 105.417 289.157 106.074" fill="#F2F1E7"/>
<path d="M251.077 59.2507C252.059 59.8064 253.171 60.0956 254.302 60.089C255.424 60.1011 256.53 59.8261 257.513 59.2907C258.476 58.7714 259.28 58.0035 259.838 57.0686C260.416 56.1029 260.714 54.9978 260.698 53.8752C260.703 52.7917 260.406 51.7278 259.838 50.8016C259.262 49.8592 258.449 49.0807 257.479 48.542C256.509 48.0034 255.414 47.7229 254.302 47.7279C253.171 47.716 252.057 47.9909 251.064 48.5263C250.1 49.0437 249.293 49.8061 248.726 50.735C248.158 51.6836 247.859 52.7659 247.859 53.8685C247.859 54.9711 248.158 56.0535 248.726 57.0021C249.295 57.9397 250.101 58.7147 251.064 59.2507H251.077ZM250.083 51.5068C250.509 50.803 251.116 50.2243 251.843 49.8302C252.587 49.4236 253.425 49.2129 254.275 49.2182C255.114 49.2155 255.938 49.4287 256.669 49.8369C257.399 50.2451 258.009 50.8343 258.44 51.5467C258.867 52.2446 259.09 53.046 259.085 53.8619C259.098 54.7022 258.88 55.5301 258.454 56.2569C258.037 56.9599 257.433 57.5354 256.707 57.9202C255.961 58.3216 255.124 58.5277 254.275 58.5189C253.423 58.525 252.584 58.3093 251.843 57.8935C251.118 57.4912 250.511 56.9088 250.083 56.2037C249.654 55.4913 249.428 54.6777 249.428 53.8486C249.428 53.0195 249.654 52.2058 250.083 51.4935" fill="#F2F1E7"/>
<path d="M255.363 56.6162C255.187 56.5111 255.04 56.3649 254.933 56.1904C254.811 55.9763 254.703 55.754 254.611 55.5251C254.522 55.2948 254.415 55.0723 254.288 54.8598C254.191 54.7018 254.051 54.5731 253.885 54.4873C253.798 54.4426 253.702 54.4155 253.603 54.4075C253.469 54.4075 253.402 54.5139 253.402 54.7268C253.383 54.9126 253.383 55.0998 253.402 55.2856C253.425 55.4475 253.485 55.6021 253.576 55.738C253.622 55.8064 253.676 55.8689 253.738 55.9243L253.939 56.0707C254.004 56.1168 254.062 56.1704 254.114 56.2303C254.135 56.2997 254.135 56.3739 254.114 56.4432C254.115 56.4932 254.103 56.5427 254.08 56.587C254.056 56.6312 254.022 56.6688 253.979 56.6961C253.876 56.7633 253.754 56.796 253.63 56.7892H253.187H252.703H252.286H251.776C251.652 56.796 251.53 56.7633 251.426 56.6961C251.384 56.6688 251.35 56.6312 251.326 56.587C251.302 56.5427 251.291 56.4932 251.292 56.4432C251.269 56.374 251.269 56.2995 251.292 56.2303C251.343 56.17 251.402 56.1164 251.467 56.0707L251.668 55.9243C251.729 55.8683 251.783 55.8058 251.83 55.738C251.935 55.5734 251.999 55.3865 252.018 55.1925C252.038 54.8868 252.038 54.5801 252.018 54.2744V53.5293C252.039 53.2236 252.039 52.9169 252.018 52.6112C252.001 52.4127 251.936 52.2211 251.83 52.0523C251.729 51.9309 251.621 51.8154 251.507 51.7064L251.359 51.5467C251.344 51.4946 251.344 51.4391 251.359 51.387C251.358 51.3352 251.37 51.2839 251.393 51.2375C251.417 51.1912 251.451 51.1511 251.494 51.1209C251.594 51.0461 251.718 51.0084 251.843 51.0145L252.488 51.1076C252.777 51.1633 253.068 51.2033 253.361 51.2274C253.491 51.2402 253.621 51.2402 253.751 51.2274L254.235 51.1076L254.745 50.9879C254.884 50.9744 255.023 50.9744 255.162 50.9879C255.391 50.9899 255.616 51.0445 255.82 51.1475C256.027 51.2452 256.207 51.3913 256.344 51.5733C256.476 51.7456 256.547 51.956 256.546 52.1721C256.548 52.6367 256.37 53.0846 256.049 53.4228C255.566 53.8597 254.962 54.1426 254.315 54.2345C254.603 54.2267 254.886 54.3107 255.122 54.474C255.307 54.606 255.459 54.7791 255.565 54.9796C255.678 55.2068 255.772 55.4426 255.847 55.6848C255.886 55.836 255.94 55.9831 256.008 56.1239C256.025 56.1636 256.052 56.1975 256.088 56.2212C256.124 56.2449 256.167 56.2574 256.21 56.257C256.344 56.257 256.411 56.1638 256.411 55.9908C256.356 55.5553 256.214 55.1349 255.995 54.7534C255.951 54.6667 255.928 54.571 255.928 54.474C255.927 54.3977 255.943 54.3222 255.976 54.253C256.008 54.1839 256.056 54.123 256.116 54.0748C256.274 53.9576 256.47 53.9009 256.667 53.9151C256.781 53.9085 256.896 53.9264 257.002 53.9678C257.109 54.0091 257.205 54.0729 257.285 54.1546C257.447 54.3533 257.529 54.6048 257.513 54.8598C257.565 55.4177 257.423 55.9762 257.11 56.4432C256.969 56.6032 256.792 56.7294 256.595 56.8123C256.397 56.8953 256.183 56.9329 255.968 56.9222C255.719 56.9311 255.472 56.8712 255.256 56.7493L255.363 56.6162ZM253.321 53.7821C253.34 53.7914 253.36 53.7963 253.381 53.7963C253.402 53.7963 253.423 53.7914 253.442 53.7821C253.917 53.7176 254.374 53.5593 254.786 53.3164C254.952 53.2322 255.093 53.1048 255.192 52.9478C255.292 52.7909 255.346 52.6101 255.35 52.4249C255.395 52.3409 255.415 52.2455 255.405 52.1507C255.396 52.0558 255.358 51.966 255.296 51.8927C255.138 51.7879 254.949 51.7366 254.759 51.7463H254.517C254.247 51.7816 253.992 51.8872 253.778 52.0523C253.619 52.1914 253.51 52.3784 253.469 52.5846C253.416 52.8832 253.393 53.1863 253.402 53.4894C253.393 53.5104 253.388 53.533 253.388 53.5559C253.388 53.5787 253.393 53.6013 253.402 53.6224" fill="#F2F1E7"/>
</svg>
