<svg width="223" height="86" viewBox="0 0 223 86" fill="none" xmlns="http://www.w3.org/2000/svg">
<path d="M90.1408 28.8737C90.0342 30.0999 89.6336 31.2834 88.9722 32.3264C88.6832 32.7462 88.3483 33.1332 87.9734 33.4805C87.6338 33.7699 87.221 34.0987 86.7349 34.467C86.3181 34.7438 85.9417 35.0757 85.6163 35.4535C85.3642 35.8474 85.2452 36.3103 85.2767 36.7753C85.2705 37.0757 85.3404 37.3729 85.4799 37.6399C85.6194 37.9069 85.8242 38.1353 86.0757 38.3043C86.7151 38.7164 87.4707 38.9168 88.2331 38.8765C89.3043 38.8682 90.3745 38.8057 91.4392 38.6891C92.3071 38.5757 93.1808 38.5098 94.056 38.4918C94.7685 38.4918 95.7673 38.5575 97.0524 38.6891C98.3375 38.8206 99.2764 38.8831 99.869 38.8765C100.631 38.9168 101.387 38.7164 102.026 38.3043C102.278 38.1353 102.483 37.9069 102.622 37.6399C102.762 37.3729 102.832 37.0757 102.825 36.7753C102.857 36.3103 102.738 35.8474 102.486 35.4535C102.16 35.0759 101.784 34.744 101.367 34.467C100.881 34.1184 100.468 33.7896 100.129 33.4805C99.7538 33.1332 99.4189 32.7462 99.1299 32.3264C98.4396 31.291 98.0114 30.1068 97.8814 28.8737C97.6335 26.9668 97.5201 25.0451 97.5418 23.1227V18.8019C97.5418 14.8561 97.6051 12.1565 97.7316 10.7031C97.8471 9.3455 98.0743 7.99947 98.4108 6.67828C98.6899 5.66086 98.8474 4.61467 98.8802 3.56106C98.9116 3.14205 98.8541 2.7212 98.7113 2.32541C98.5686 1.92963 98.3437 1.56763 98.0512 1.26259C97.6312 0.860061 97.0776 0.621714 96.4931 0.591797C95.6208 0.591797 94.1826 1.18368 92.1783 2.36743C91.3194 2.84094 90.3006 3.36705 89.122 3.94578C88.2609 4.326 87.4326 4.77467 86.645 5.28737C86.3087 5.4899 86.0268 5.76964 85.8233 6.10282C85.6199 6.436 85.5009 6.81278 85.4764 7.20111C85.4831 7.54942 85.5831 7.88978 85.7661 8.18758C85.9071 8.45317 86.0968 8.69064 86.3254 8.88797C86.5945 9.10706 86.8781 9.30809 87.1744 9.48971C87.8167 9.89799 88.3954 10.3965 88.8923 10.9694C89.448 11.8057 89.8347 12.7403 90.0309 13.7216C90.4024 15.4692 90.5666 17.2536 90.5203 19.0387V23.1227C90.5416 25.0451 90.4281 26.9667 90.1807 28.8737" fill="#83BFCB"/>
<path d="M106.561 37.545C108.726 38.7646 111.18 39.3943 113.672 39.37C116.197 39.4008 118.687 38.7893 120.904 37.5943C123.087 36.393 124.873 34.5947 126.047 32.4154C126.333 32 126.515 31.5231 126.577 31.0245C126.566 30.8497 126.512 30.6801 126.42 30.5305C126.328 30.381 126.2 30.2559 126.047 30.1663C125.882 30.0324 125.681 29.95 125.468 29.9295C124.899 30.0226 124.382 30.3128 124.01 30.7483C123.158 31.4114 122.184 31.907 121.143 32.2082C119.951 32.58 118.708 32.7664 117.458 32.7607C115.723 32.7643 114.011 32.3621 112.464 31.5868C110.856 30.769 109.555 29.4662 108.748 27.8678C108.44 27.2309 108.183 26.5712 107.979 25.8949C107.936 25.7641 107.927 25.625 107.951 25.4897C107.975 25.3544 108.033 25.2271 108.119 25.1189C108.204 25.0108 108.316 24.9251 108.443 24.8695C108.57 24.8138 108.709 24.7899 108.848 24.7999L119.855 25.6482C120.691 25.628 121.521 25.5155 122.332 25.3128C122.996 24.8976 123.539 24.3199 123.91 23.6359C124.178 22.9754 124.294 22.2645 124.25 21.5544C124.25 18.2004 123.327 15.6915 121.483 14.0277C119.638 12.3638 117.052 11.5319 113.722 11.5319C110.555 11.5007 107.473 12.5455 104.993 14.4913C104.117 15.1654 103.328 15.9441 102.646 16.8095C100.685 19.2489 99.6277 22.2772 99.6493 25.3918C99.5924 27.897 100.22 30.371 101.467 32.5535C102.678 34.6461 104.437 36.3773 106.561 37.5647V37.545ZM107.749 18.2498C108.13 17.2858 108.808 16.4645 109.687 15.902C110.462 15.3876 111.37 15.1034 112.304 15.0832C112.899 15.079 113.486 15.2114 114.02 15.4699C114.554 15.7284 115.019 16.106 115.38 16.5728C116.099 17.4409 116.579 18.3681 116.679 20.8047C116.685 20.95 116.662 21.0951 116.611 21.2313C116.559 21.3675 116.48 21.492 116.378 21.5971C116.276 21.7022 116.154 21.7859 116.018 21.843C115.883 21.9001 115.737 21.9294 115.59 21.9293L107.869 21.8405C107.763 21.838 107.658 21.8144 107.562 21.771C107.465 21.7276 107.378 21.6654 107.306 21.588C107.234 21.5106 107.179 21.4197 107.144 21.3207C107.108 21.2217 107.094 21.1166 107.1 21.0119C107.14 20.0558 107.349 19.1141 107.72 18.23" fill="#83BFCB"/>
<path d="M126.557 18.0919C126.973 18.3244 127.411 18.516 127.865 18.664C128.413 18.8422 128.941 19.0735 129.443 19.3545C129.899 19.6691 130.247 20.1128 130.442 20.6271C130.752 21.4391 130.892 22.3051 130.851 23.1721C130.851 28.0584 130.349 31.1559 129.343 32.4646C128.794 33.1358 128.175 33.7475 127.496 34.2896C127.085 34.5979 126.719 34.9596 126.407 35.3648C126.164 35.7947 126.053 36.2847 126.087 36.7755C126.086 37.0893 126.161 37.3989 126.305 37.6785C126.449 37.9582 126.659 38.1999 126.916 38.3834C127.533 38.8341 128.288 39.0607 129.054 39.0246C130.055 39.0203 131.056 38.9577 132.05 38.8372C132.838 38.7252 133.632 38.6626 134.427 38.6498C135.289 38.6391 136.149 38.7185 136.994 38.8865C137.187 38.8865 137.463 38.9194 137.823 38.9852C138.173 38.9852 138.502 38.9852 138.822 38.9852C139.466 38.9993 140.091 38.77 140.57 38.344C140.807 38.1374 140.995 37.8818 141.121 37.5955C141.247 37.3091 141.308 36.9988 141.299 36.6867C141.283 36.1056 141.143 35.5343 140.889 35.0097C140.616 34.4047 140.157 33.5432 139.511 32.4252C138.361 30.3721 137.759 28.0636 137.763 25.7172C137.721 24.0097 138.087 22.3164 138.832 20.775C139.53 19.3605 140.732 18.2503 142.208 17.6578C142.89 17.3351 143.638 17.1698 144.395 17.1744C145.456 17.1794 146.487 17.5257 147.331 18.1609C148.249 18.8197 148.982 19.6992 149.459 20.7158C149.984 21.8516 150.25 23.0876 150.238 24.3362C150.227 25.4614 150.031 26.5773 149.659 27.6408C149.234 29.0097 148.655 30.3268 147.931 31.567C147.303 32.5442 146.599 33.4711 145.823 34.3389L145.534 34.6941L145.374 34.842C144.546 35.6458 144.02 36.7032 143.88 37.8412C143.74 38.9792 143.996 40.1303 144.605 41.1061C144.822 41.4631 145.08 41.7941 145.374 42.0925C145.848 42.5783 146.418 42.9629 147.048 43.2225C147.679 43.4821 148.356 43.6112 149.039 43.6018C149.743 43.6176 150.443 43.488 151.093 43.2213C151.743 42.9546 152.329 42.5567 152.815 42.0531C153.296 41.587 153.677 41.0294 153.935 40.414C154.192 39.7986 154.321 39.1381 154.313 38.4722C154.332 37.7976 154.209 37.1264 153.951 36.5014C153.693 35.8764 153.306 35.3113 152.815 34.842C151.969 33.999 150.846 33.4814 149.649 33.3821H150.198C150.976 33.3681 151.748 33.5095 152.469 33.7976C153.19 34.0858 153.844 34.5149 154.393 35.059C155.167 35.7894 155.711 36.7243 155.961 37.7521C156.061 38.1467 156.111 39.0444 156.96 39.0444H157.459C158.2 39.0838 158.933 38.8829 159.547 38.4722C159.796 38.2952 160.004 38.0668 160.156 37.8029C160.308 37.5389 160.4 37.2456 160.426 36.9432C160.506 36.3587 160.43 35.7637 160.206 35.2169C159.828 34.554 159.346 33.9547 158.778 33.4412C158.128 32.8282 157.609 32.0938 157.249 31.2809C156.904 30.3331 156.748 29.328 156.79 28.3215C156.849 26.4284 157.026 24.5407 157.319 22.669C157.452 21.8437 157.515 21.0089 157.509 20.1733C157.509 17.2994 156.733 15.1029 155.182 13.5837C154.329 12.8058 153.326 12.2057 152.233 11.8193C151.14 11.4328 149.979 11.268 148.82 11.3346C146.578 11.2892 144.365 11.8448 142.417 12.9425C140.99 13.777 139.763 14.9079 138.822 16.257C138.763 16.3372 138.679 16.3965 138.584 16.4264C138.488 16.4564 138.385 16.4552 138.29 16.4233C138.196 16.3913 138.113 16.3301 138.056 16.2487C137.999 16.1673 137.97 16.07 137.973 15.971C137.973 15.3133 138.006 14.728 138.073 14.215C138.153 13.222 138.209 12.5972 138.243 12.3408C138.328 11.7689 138.378 11.1924 138.392 10.6144C138.404 10.348 138.362 10.0819 138.267 9.83215C138.172 9.58244 138.027 9.35433 137.84 9.16162C137.653 8.96891 137.429 8.81559 137.181 8.71094C136.932 8.60628 136.665 8.55247 136.395 8.55274C135.647 8.59475 134.938 8.89908 134.397 9.41096C133.785 9.9568 133.202 10.4435 132.649 10.8709C132.07 11.3142 131.466 11.7258 130.841 12.104C130.482 12.3309 130.092 12.5479 129.653 12.7748L128.704 13.2582C127.967 13.5657 127.267 13.9528 126.617 14.4123C126.28 14.6149 125.998 14.8946 125.795 15.2278C125.591 15.561 125.472 15.9377 125.448 16.3261C125.458 16.6739 125.558 17.0135 125.738 17.3125C125.944 17.6466 126.228 17.9272 126.567 18.1313" fill="#83BFCB"/>
<path d="M158.228 17.1843C158.545 17.3375 158.881 17.4503 159.227 17.5197C159.727 17.615 160.205 17.8024 160.635 18.0721C161.097 18.4821 161.413 19.0289 161.534 19.6307C161.821 20.7923 161.945 21.9871 161.904 23.182C161.904 23.5305 161.87 24.2803 161.804 25.4311C161.611 27.8516 161.907 30.2858 162.673 32.5929C163.285 34.5219 164.426 36.246 165.969 37.5745C167.392 38.76 169.201 39.3976 171.063 39.3699C173.388 39.3973 175.675 38.7823 177.665 37.5942C179.713 36.3316 181.374 34.5411 182.469 32.4153C182.755 31.9997 182.936 31.5229 182.998 31.0244C182.987 30.8496 182.934 30.68 182.841 30.5304C182.749 30.3809 182.621 30.2558 182.469 30.1662C182.304 30.0318 182.102 29.9494 181.89 29.9294C181.32 30.0225 180.803 30.3128 180.431 30.7482C179.713 31.3938 178.893 31.9202 178.004 32.3068C177.012 32.674 175.957 32.8449 174.898 32.8099C174.319 32.8084 173.745 32.6925 173.212 32.4688C172.678 32.2452 172.195 31.9184 171.792 31.5078C170.781 30.4717 170.047 29.2039 169.654 27.8184C169.104 26.0014 168.841 24.1114 168.875 22.2153C168.875 21.5576 168.895 20.8474 168.935 20.0845C168.948 19.841 169.01 19.6026 169.118 19.3835C169.226 19.1644 169.378 18.9693 169.565 18.8098C169.752 18.6503 169.969 18.5298 170.204 18.4556C170.439 18.3814 170.687 18.355 170.933 18.3779L175.657 18.7232C176.728 18.8443 177.813 18.7297 178.833 18.3878C179.707 18.0257 180.405 17.3433 180.781 16.4839L181.63 14.7872C181.76 14.5173 181.842 14.2268 181.87 13.929C181.87 13.2713 181.32 12.9425 180.222 12.9425L169.594 13.2286C169.594 13.3864 169.708 12.7288 169.934 11.2556C170.124 10.4224 170.238 9.57385 170.274 8.72042C170.315 8.31172 170.235 7.90004 170.046 7.53447C169.857 7.16891 169.565 6.8649 169.205 6.65871C168.947 6.53272 168.663 6.46851 168.376 6.47128C167.885 6.48358 167.413 6.66106 167.038 6.97437C166.459 7.43882 165.915 7.94319 165.41 8.48367C164.823 9.13405 164.193 9.74381 163.522 10.3086C162.423 11.1597 161.272 11.9437 160.076 12.6564C159.514 12.9373 158.98 13.2675 158.478 13.6429C158.142 13.8454 157.86 14.1251 157.656 14.4583C157.453 14.7915 157.334 15.1683 157.309 15.5566C157.319 15.9044 157.419 16.244 157.599 16.5431C157.763 16.8011 157.99 17.0147 158.258 17.1646" fill="#83BFCB"/>
<path d="M23.841 13.8993C24.3324 13.9379 24.8223 13.8091 25.2293 13.5343C25.7805 13.0721 26.2178 12.4918 26.5077 11.8376L27.3367 10.2593C27.8815 9.08729 28.7162 8.06957 29.7638 7.29987C30.6846 6.75223 31.7457 6.47824 32.8201 6.51069C35.3437 6.51069 36.6055 7.86873 36.6055 10.5848V23.1129C36.6268 25.0354 36.5133 26.957 36.2659 28.864C36.1597 30.0902 35.7591 31.2738 35.0973 32.3166C34.8084 32.7364 34.4734 33.1235 34.0986 33.4708C33.759 33.7601 33.3461 34.089 32.8601 34.4572C32.4431 34.7338 32.0667 35.0658 31.7414 35.4437C31.4886 35.8374 31.3697 36.3005 31.4018 36.7656C31.4021 37.052 31.4677 37.3348 31.594 37.5927C31.7202 37.8506 31.9038 38.077 32.1309 38.2551C32.7776 38.7197 33.5712 38.9401 34.3682 38.8766C34.821 38.8766 36.1161 38.8273 38.2535 38.7286L40.1912 38.63C41.1633 38.63 42.1322 38.6793 43.0977 38.778C44.3894 38.8437 45.3616 38.8766 46.0141 38.8766C46.8111 38.9401 47.6048 38.7197 48.2514 38.2551C48.4786 38.077 48.6621 37.8506 48.7884 37.5927C48.9146 37.3348 48.9803 37.052 48.9805 36.7656C49.012 36.3005 48.8931 35.8377 48.6409 35.4437C48.3155 35.0659 47.9391 34.734 47.5223 34.4572C47.0362 34.1087 46.6234 33.7799 46.2838 33.4708C45.9089 33.1235 45.574 32.7364 45.285 32.3166C44.5643 31.2924 44.1052 30.1112 43.9466 28.8739C43.6988 26.9669 43.5853 25.0452 43.607 23.1228V10.5947C43.607 7.87859 44.8522 6.52056 47.3425 6.52056C48.4689 6.48033 49.5849 6.7465 50.5686 7.29C51.6431 8.04979 52.5027 9.0686 53.0656 10.2494C53.6782 11.4003 54.1143 12.1829 54.374 12.5972C54.6035 12.9823 54.9092 13.3178 55.2729 13.5836C55.4127 13.6823 55.0732 14.2643 54.7436 14.5109C53.8671 15.1848 53.0787 15.9635 52.3964 16.8291C50.4349 19.2682 49.3776 22.2967 49.4 25.4114C49.3559 27.9127 49.9941 30.3796 51.2478 32.5534C52.4576 34.6465 54.2176 36.3779 56.3416 37.5646C58.5068 38.7837 60.9608 39.4135 63.453 39.3896C65.7849 39.4196 68.0787 38.8046 70.075 37.6139C70.9464 37.1176 71.7019 36.4453 72.2923 35.641C72.3657 35.5515 72.4609 35.4819 72.569 35.4387C72.6771 35.3955 72.7945 35.3801 72.9102 35.3939C73.026 35.4077 73.1363 35.4502 73.2309 35.5176C73.3254 35.585 73.4011 35.675 73.4509 35.7791C73.6928 36.4499 74.0895 37.0558 74.6096 37.5489C75.1297 38.042 75.7588 38.4088 76.4473 38.6201C77.1234 38.8042 77.8106 38.9459 78.5048 39.0443C79.3059 39.1074 80.1108 39.1074 80.9119 39.0443C81.6791 39.0775 82.4343 38.8475 83.0493 38.3932C83.3107 38.2118 83.5242 37.9711 83.6719 37.6913C83.8196 37.4115 83.8972 37.1008 83.8983 36.7853C83.932 36.2945 83.821 35.8045 83.5786 35.3747C83.2667 34.9692 82.9005 34.6075 82.49 34.2994C81.8105 33.7572 81.1912 33.1455 80.6422 32.4744C79.6434 31.1592 79.1407 28.0617 79.134 23.1819C79.0942 22.3149 79.2335 21.449 79.5435 20.6369C79.7384 20.1226 80.0867 19.6789 80.5423 19.3643C81.044 19.0833 81.5726 18.852 82.1204 18.6738C82.5744 18.5258 83.0127 18.3342 83.4288 18.1017C83.767 17.8976 84.0512 17.6169 84.2578 17.2829C84.4379 16.9838 84.5376 16.6443 84.5475 16.2964C84.523 15.9081 84.404 15.5313 84.2006 15.1981C83.9971 14.865 83.7153 14.5852 83.3789 14.3827C82.7283 13.9231 82.0282 13.536 81.2914 13.2285L80.3426 12.7452C79.9031 12.5216 79.5069 12.298 79.154 12.0744C78.5565 11.6972 77.9797 11.2889 77.4261 10.8511C76.8734 10.4171 76.2908 9.93044 75.6782 9.39117C75.1371 8.87929 74.4287 8.57496 73.6806 8.53295C73.4053 8.53033 73.1322 8.5818 72.8772 8.68436C72.6221 8.78692 72.3903 8.93853 72.1951 9.13037C72 9.32221 71.8454 9.55045 71.7403 9.80183C71.6352 10.0532 71.5818 10.3227 71.5832 10.5947C71.5832 10.9103 71.7729 12.4492 71.9028 13.8303C71.9151 13.936 71.8956 14.0429 71.8468 14.1378C71.798 14.2327 71.7221 14.3113 71.6284 14.3639C71.5347 14.4164 71.4275 14.4406 71.32 14.4334C71.2125 14.4263 71.1095 14.388 71.0238 14.3235C68.857 12.6595 66.2324 11.6797 63.493 11.5121C61.9795 11.5059 60.4751 11.7424 59.0384 12.2125C58.9272 12.2488 58.8085 12.2565 58.6934 12.2349C58.5784 12.2133 58.4708 12.1631 58.3809 12.0891C58.2909 12.0151 58.2215 11.9196 58.1793 11.8117C58.1371 11.7039 58.1233 11.5872 58.1394 11.4726C58.2025 10.9522 58.2326 10.4283 58.2293 9.90413C58.2293 8.91109 58.1494 7.64842 57.9896 6.11611C57.9128 4.43895 57.4114 2.80759 56.5314 1.37121C56.1689 0.909258 55.6968 0.542534 55.1568 0.303401C54.6168 0.0642688 54.0255 -0.0399202 53.4351 2.75504e-05C52.3062 0.0744333 51.1863 0.24942 50.0892 0.522854C48.4712 0.877981 46.9264 1.1509 45.4548 1.34162C43.7083 1.54829 41.9501 1.64384 40.1912 1.62769C38.4422 1.64255 36.6941 1.547 34.9575 1.34162C33.486 1.1509 31.9412 0.877981 30.3231 0.522854C29.2237 0.244342 28.1 0.0692848 26.9672 2.75504e-05C26.3816 -0.0310675 25.7972 0.0793585 25.2647 0.321733C24.7321 0.564108 24.2674 0.931116 23.9109 1.39094C23.0293 2.82663 22.5278 4.45839 22.4527 6.13584C22.3087 7.39376 22.2287 8.65803 22.2129 9.92386C22.1647 10.9038 22.2863 11.8846 22.5725 12.8241C22.6422 13.1107 22.8011 13.3685 23.0268 13.5614C23.2525 13.7543 23.5338 13.8724 23.831 13.8993H23.841ZM57.4103 18.2102C57.7249 17.3411 58.3129 16.5944 59.0883 16.0794C59.7688 15.6552 60.561 15.439 61.3655 15.4579C62.6601 15.4861 63.9283 15.8247 65.0611 16.4444C66.2921 17.1303 67.38 18.0408 68.2672 19.1276L69.266 20.3705C71.4045 23.0991 72.3954 26.537 72.0326 29.9688C72.0895 30.4847 71.9473 31.0028 71.6344 31.4198C71.3215 31.8367 70.861 32.1217 70.3447 32.218C69.3596 32.5901 68.313 32.7774 67.2584 32.7704C65.5232 32.7741 63.8119 32.3718 62.2644 31.5965C60.6574 30.7782 59.356 29.4756 58.5489 27.8775C57.4724 25.9214 56.906 23.7313 56.9009 21.505C56.8787 20.3851 57.0684 19.2711 57.4603 18.22" fill="#83BFCB"/>
<path d="M80.043 47.8732C77.8203 46.6743 75.3242 46.0563 72.7917 46.0779C70.2802 46.067 67.8085 46.697 65.6159 47.9068C63.4233 49.1165 61.5842 50.8651 60.2769 52.9831C58.9967 55.0635 58.326 57.4539 58.3392 59.8884C58.3312 61.3641 58.557 62.8319 59.0084 64.2387C59.0312 64.3047 59.0297 64.3765 59.0041 64.4414C58.9785 64.5064 58.9305 64.5604 58.8686 64.5938C58.5695 64.7651 58.2942 64.974 58.0496 65.2153C57.1969 65.8777 56.224 66.3733 55.1831 66.6752C53.991 67.047 52.7476 67.2334 51.4975 67.2277C49.7624 67.2313 48.051 66.8291 46.5036 66.0538C44.8961 65.236 43.5945 63.9332 42.7881 62.3348C41.7111 60.3789 41.1447 58.1887 41.1401 55.9622C41.1176 54.8424 41.3073 53.7283 41.6994 52.6773C42.014 51.8083 42.602 51.0616 43.3774 50.5465C44.0579 50.1224 44.8501 49.9062 45.6546 49.9251C46.8603 49.9574 48.0371 50.2972 49.0705 50.9115C50.2626 51.5749 51.3112 52.4631 52.1567 53.5257L53.1555 54.7686C53.7022 55.4967 54.2925 56.1917 54.9234 56.8501C55.0839 57.0374 55.2804 57.1914 55.5015 57.3031C55.7227 57.4149 55.9641 57.4822 56.2118 57.5011C56.3625 57.4903 56.5107 57.457 56.6513 57.4025C57.0042 57.2446 57.3937 56.5574 57.8199 55.3408C58.2616 54.0479 58.6251 52.7303 58.9085 51.3949C59.15 50.4238 59.3037 49.4334 59.368 48.4355C59.3759 48.2269 59.3411 48.0189 59.2656 47.824C59.19 47.629 59.0754 47.4512 58.9285 47.3011C58.5854 47.0366 58.1537 46.9097 57.72 46.9459C57.5269 46.9459 56.911 47.0084 55.8722 47.1334C55.613 47.1541 55.3524 47.1541 55.0932 47.1334C54.3169 47.0975 53.55 46.9513 52.8159 46.6993C52.0671 46.484 51.3069 46.3094 50.5387 46.1765C49.6067 46.0369 48.6646 45.9742 47.7221 45.9891C45.2408 45.9676 42.8001 46.612 40.6606 47.8535C38.5364 49.0719 36.7705 50.8161 35.5368 52.9141C34.9154 53.9509 34.4384 55.0658 34.1186 56.2286C34.0744 56.3731 33.9893 56.5021 33.8732 56.6003C33.757 56.6985 33.6149 56.7617 33.4635 56.7825C33.3121 56.8033 33.1578 56.7807 33.019 56.7175C32.8802 56.6543 32.7626 56.5531 32.6803 56.4259C32.1073 55.6018 31.4023 54.8755 30.5928 54.2754C28.1758 52.4866 24.7233 51.3193 20.2354 50.7734C17.887 50.5255 15.5533 50.1567 13.2438 49.6686C11.9884 49.4573 10.7872 49.0048 9.70812 48.3369C9.40184 48.1286 9.15106 47.8503 8.97716 47.5257C8.80325 47.201 8.71137 46.8397 8.70933 46.4724C8.71128 45.5458 9.06809 44.6542 9.70812 43.9767C10.5123 43.1395 11.5094 42.5066 12.6146 42.132C13.9594 41.6542 15.3805 41.4203 16.8095 41.4415C18.9005 41.3316 20.9797 41.8142 22.8023 42.8324C24.3322 43.8678 25.5091 45.3362 26.1782 47.0446C26.4978 47.814 26.7974 48.4914 27.0771 49.0767C27.2794 49.5465 27.5827 49.9673 27.966 50.3098C28.3 50.5625 28.7146 50.6885 29.1346 50.6649C29.4991 50.6923 29.8638 50.6134 30.1834 50.4381C30.5029 50.2627 30.7634 49.9986 30.9324 49.6785C31.3914 48.6277 31.6618 47.5062 31.7315 46.3639L31.9612 44.4502C32.0984 43.5948 32.1785 42.7314 32.2009 41.8656C32.2483 41.2864 32.0855 40.7094 31.7414 40.238C31.2834 39.8261 30.6828 39.6037 30.0635 39.6165C29.3542 39.5608 28.6519 39.4386 27.966 39.2515C27.237 39.0288 26.5202 38.7686 25.8186 38.4722C24.5618 38.0264 23.2774 37.6607 21.9733 37.3772C20.4478 37.0776 18.8939 36.942 17.3389 36.9728C14.5927 36.9591 11.8697 37.4682 9.31859 38.4722C6.98809 39.3499 4.92468 40.8036 3.32585 42.6943C1.84924 44.4388 1.04912 46.6452 1.06858 48.9189C0.977297 50.8629 1.55848 52.7798 2.71659 54.3543C4.06089 55.9015 5.81935 57.0434 7.79044 57.6491C10.777 58.6279 13.8607 59.2893 16.9893 59.622C19.0084 59.8418 21.0105 60.1944 22.982 60.6775C24.0712 60.9049 25.095 61.37 25.9784 62.0389C26.2582 62.2868 26.4807 62.5913 26.6306 62.9318C26.7806 63.2722 26.8545 63.6406 26.8474 64.0118C26.8356 64.8743 26.5175 65.7052 25.9485 66.3596C25.1995 67.1941 24.237 67.8143 23.1618 68.1549C21.6141 68.6634 19.9881 68.9004 18.3576 68.8553C15.8536 68.9265 13.3785 68.312 11.2063 67.0797C9.35998 65.9924 7.87715 64.3941 6.94147 62.4828C6.27561 61.0754 5.80618 60.1251 5.53318 59.6319C5.31797 59.1897 5.01183 58.7966 4.63426 58.4777C4.24574 58.2031 3.77255 58.0705 3.29588 58.1029C2.35702 58.1029 1.57131 58.7276 0.938738 59.9771C0.245123 61.5281 -0.079466 63.2154 -0.0101129 64.9095C-0.0528919 66.073 0.0783639 67.2364 0.379415 68.3621C0.567854 69.0482 0.944617 69.6695 1.4681 70.1575C2.09153 70.6469 2.78488 71.0425 3.52561 71.3314C7.60309 73.0452 11.9992 73.8954 16.43 73.8271C19.3299 73.8413 22.2132 73.395 24.9696 72.5052C27.498 71.7352 29.7869 70.3435 31.6216 68.4607C32.3614 67.6926 32.9627 66.8052 33.3994 65.8367C33.4643 65.6984 33.5679 65.5813 33.698 65.4992C33.828 65.4171 33.9792 65.3735 34.1335 65.3735C34.2879 65.3735 34.439 65.4171 34.5691 65.4992C34.6992 65.5813 34.8028 65.6984 34.8677 65.8367C35.0583 66.2619 35.2717 66.6768 35.5069 67.0797C36.7288 69.1432 38.4876 70.8462 40.6007 72.012C42.7659 73.2311 45.2199 73.8609 47.7121 73.837C50.23 73.8786 52.7165 73.2808 54.9334 72.1008C57.1169 70.8994 58.903 69.1012 60.0771 66.9219L60.1371 66.8035L60.2669 67.0402C61.5432 69.1263 63.3558 70.8417 65.5205 72.012C67.7461 73.2341 70.2554 73.863 72.8017 73.837C75.336 73.8681 77.8337 73.2386 80.043 72.012C82.219 70.8048 84.0345 69.0525 85.3066 66.9317C86.5773 64.7966 87.2473 62.365 87.2473 59.8884C87.2473 57.4117 86.5773 54.9801 85.3066 52.845C84.0299 50.7658 82.2123 49.0626 80.043 47.9127V47.8732ZM79.0442 67.642C78.6983 68.0432 78.2606 68.3572 77.7672 68.5579C77.2739 68.7586 76.7393 68.8403 76.2076 68.7961C74.3001 68.6896 72.5093 67.8548 71.2137 66.4681C69.5402 64.9084 68.2107 63.0244 67.3084 60.934C66.4144 59.0815 65.9179 57.0663 65.8502 55.0152C65.7861 53.8599 66.1091 52.7159 66.769 51.7599C67.0823 51.3623 67.4887 51.046 67.9533 50.838C68.4178 50.6301 68.9266 50.5368 69.4358 50.5663C70.7297 50.6125 71.9765 51.0575 73.0015 51.8388C74.2789 52.7485 75.4073 53.8464 76.3474 55.0941C77.3088 56.3205 78.1014 57.6672 78.7046 59.0992C79.4529 60.812 79.8631 62.6501 79.9131 64.5149C79.9788 65.6398 79.6624 66.7542 79.0142 67.6814" fill="#83BFCB"/>
<path d="M120.364 68.9146C120.085 68.6622 119.764 68.4587 119.415 68.3129C119.088 68.1583 118.771 67.9837 118.466 67.7901C118.174 67.5722 117.935 67.2924 117.767 66.9713C116.762 65.1825 116.259 61.5392 116.259 56.0413C116.274 53.9361 116.635 51.8472 117.328 49.8561C117.402 49.5232 117.492 49.194 117.597 48.8697C117.727 48.4737 117.801 48.0622 117.817 47.6464C117.827 47.2015 117.69 46.7654 117.428 46.4035C117.222 46.114 116.943 45.8826 116.619 45.732C116.295 45.5815 115.937 45.5171 115.58 45.5453C114.689 45.5614 113.824 45.8472 113.103 46.364C112.275 46.9231 111.414 47.4336 110.526 47.8931L109.657 48.3764C109.364 48.5343 109.074 48.7085 108.788 48.8993C107.823 49.4255 106.919 50.054 106.091 50.7735C105.856 50.9687 105.664 51.2094 105.526 51.4809C105.389 51.7524 105.309 52.0488 105.292 52.3519C105.27 52.5902 105.297 52.8305 105.373 53.0579C105.449 53.2853 105.571 53.4949 105.732 53.6737C106.136 54.0116 106.595 54.2786 107.09 54.4629C107.661 54.6998 108.185 55.0337 108.638 55.4494C109.034 55.9433 109.223 56.568 109.168 57.1954C109.242 59.7597 108.702 62.3051 107.59 64.6235C107.209 65.5449 106.555 66.331 105.713 66.8785C104.872 67.4261 103.883 67.7095 102.875 67.6914C101.983 67.7421 101.095 67.5419 100.314 67.1141C99.5323 66.6863 98.8898 66.0485 98.4606 65.2746C97.4667 63.4604 96.9806 61.4173 97.0523 59.3558C97.0364 57.8771 97.0998 56.3986 97.2421 54.9266C97.3686 53.7625 97.5617 52.2861 97.8214 50.4973C97.9961 49.6614 98.1096 48.8142 98.1609 47.9621C98.1958 47.4029 98.0601 46.8463 97.7714 46.364C97.5457 46.0557 97.2433 45.8102 96.8933 45.6512C96.5433 45.4922 96.1577 45.4251 95.7738 45.4565C94.9162 45.4524 94.0874 45.7616 93.4467 46.3246C92.7083 46.9924 91.9054 47.5871 91.0496 48.1002C90.1906 48.6132 89.6646 48.9157 89.4715 49.0078C88.5422 49.5356 87.6571 50.1359 86.8247 50.8031C86.5921 50.9746 86.4002 51.194 86.2622 51.4461C86.1242 51.6982 86.0435 51.977 86.0256 52.2631C86.0355 52.6109 86.1352 52.9505 86.3153 53.2496C86.6321 53.7093 87.0911 54.0554 87.6237 54.236C88.0641 54.4462 88.4852 54.6938 88.8822 54.9759C89.2666 55.3011 89.5533 55.7241 89.7112 56.1991C89.9678 56.9718 90.0828 57.7836 90.0508 58.5962V60.7566C90.0508 64.9129 90.8265 68.1485 92.3779 70.4634C93.9294 72.7783 96.6961 73.9357 100.678 73.9357C102.667 74.0386 104.638 73.5097 106.301 72.4264C107.78 71.3039 108.92 69.8029 109.597 68.086C109.724 69.4934 109.87 70.6278 110.037 71.4893C110.104 72.1375 110.357 72.7534 110.766 73.2649C110.936 73.4357 111.14 73.5702 111.365 73.6601C111.59 73.75 111.831 73.7935 112.074 73.7878C112.787 73.7371 113.489 73.5911 114.162 73.3537L116.159 72.8704L117.707 72.6533C118.474 72.5439 119.218 72.3176 119.915 71.9825C120.257 71.8114 120.532 71.5319 120.695 71.1886C120.858 70.8453 120.899 70.458 120.814 70.0885C120.798 69.6809 120.655 69.288 120.404 68.964" fill="#83BFCB"/>
<path d="M155.522 68.4114C155.002 67.9656 154.515 67.4844 154.063 66.9712C153.434 66.1709 153.006 65.2344 152.815 64.2387C152.579 62.6054 152.482 60.9555 152.525 59.3063C152.5 58.0966 152.564 56.8867 152.715 55.686C152.842 54.8705 153.085 53.7756 153.444 52.4011C153.73 51.3845 153.895 50.3383 153.934 49.2838C153.965 48.8648 153.907 48.444 153.765 48.0482C153.622 47.6524 153.397 47.2904 153.105 46.9854C152.674 46.574 152.105 46.335 151.506 46.3146H151.247C150.941 46.3573 150.639 46.43 150.348 46.5316C148.54 46.9657 144.455 47.9127 141.539 48.3171C138.525 48.6707 135.494 48.8682 132.46 48.909C131.591 49.0274 131.001 47.7055 131.101 46.8374C131.101 46.3836 131.211 45.851 131.291 45.4268C131.481 44.5935 131.595 43.745 131.631 42.8916C131.671 42.4829 131.592 42.0712 131.403 41.7056C131.213 41.3401 130.921 41.036 130.562 40.8298C130.304 40.7039 130.02 40.6397 129.733 40.6424C129.242 40.6547 128.77 40.8322 128.394 41.1455C127.816 41.6097 127.272 42.1141 126.766 42.6548C126.177 43.3054 125.543 43.9152 124.869 44.4798C123.77 45.331 122.619 46.1151 121.423 46.8276C120.861 47.1085 120.327 47.4387 119.825 47.814C119.488 48.0165 119.207 48.2963 119.003 48.6295C118.8 48.9627 118.681 49.3394 118.656 49.7278C118.666 50.0756 118.766 50.4151 118.946 50.7142C119.111 50.9717 119.337 51.1851 119.605 51.3357C119.922 51.4886 120.258 51.6013 120.604 51.6711C121.104 51.7664 121.582 51.9538 122.012 52.2235C122.474 52.634 122.789 53.1806 122.911 53.7821C123.193 54.9411 123.314 56.1324 123.271 57.3235C123.271 57.6787 123.237 58.4284 123.171 59.5727C122.982 61.9938 123.28 64.428 124.05 66.7344C124.663 68.6632 125.803 70.3872 127.346 71.7161C128.769 72.9015 130.578 73.5391 132.44 73.5114C134.867 73.5114 138.272 71.3412 139.511 69.0723C139.797 68.6567 139.978 68.18 140.04 67.6814C140.03 67.5066 139.976 67.337 139.883 67.1875C139.791 67.0379 139.663 66.9128 139.511 66.8232C139.346 66.6894 139.144 66.607 138.932 66.5864C138.542 66.5864 138.163 67.0008 137.473 67.4052C136.893 67.7954 136.208 68.004 135.506 68.004C134.804 68.004 134.118 67.7954 133.538 67.4052C131.271 65.8367 130.991 63.7849 130.732 61.9402C130.441 60.0858 130.284 58.2134 130.262 56.3371C130.262 55.5479 130.292 54.6732 130.352 53.7131C130.399 53.3673 130.581 53.0534 130.859 52.838C131.137 52.6225 131.489 52.5224 131.84 52.5589C131.84 52.5589 140.41 52.7069 142.737 53.5454C143.265 53.7769 143.756 54.0826 144.195 54.4529C144.614 54.873 144.928 55.3827 145.114 55.9425C145.395 57.452 145.525 58.9851 145.504 60.5197C145.53 61.8062 145.423 63.092 145.184 64.357C144.983 65.2936 144.577 66.1756 143.996 66.9416C143.614 67.4766 143.137 67.938 142.587 68.3029C142.068 68.6383 141.735 68.8389 141.588 68.9046C141.069 69.1569 140.593 69.49 140.18 69.8911C139.871 70.2696 139.715 70.7473 139.741 71.2327C139.738 71.5457 139.811 71.8547 139.954 72.1343C140.096 72.4139 140.304 72.656 140.56 72.8406C141.175 73.2941 141.93 73.5241 142.697 73.4917C143.636 73.4917 144.785 73.4292 146.143 73.3043C147.501 73.1793 148.457 73.1168 149.009 73.1168C150.066 73.1171 151.121 73.1963 152.166 73.3536L153.164 73.4522C153.517 73.4522 153.924 73.4522 154.383 73.4522C155.112 73.4697 155.822 73.2242 156.381 72.7617C156.655 72.5287 156.872 72.2372 157.016 71.909C157.16 71.5809 157.226 71.2248 157.21 70.8677C157.219 70.4227 157.082 69.9867 156.82 69.6248C156.445 69.1535 156.024 68.7206 155.562 68.3325" fill="#83BFCB"/>
<path d="M190.3 67.928C189.651 67.3178 189.132 66.587 188.771 65.7775C188.425 64.8298 188.269 63.8247 188.312 62.8181C188.371 60.925 188.548 59.0373 188.841 57.1657C188.978 56.3407 189.044 55.5059 189.041 54.6699C189.041 51.796 188.265 49.5995 186.714 48.0803C185.864 47.2984 184.864 46.6936 183.773 46.302C182.681 45.9105 181.521 45.7403 180.362 45.8016C178.12 45.7562 175.907 46.3119 173.959 47.4095C172.056 48.5451 170.51 50.1811 169.495 52.1347C169.495 50.8194 169.535 49.6685 169.615 48.6821C169.694 47.6956 169.751 47.0709 169.784 46.8078C169.87 46.236 169.92 45.6594 169.934 45.0815C169.946 44.815 169.904 44.5489 169.809 44.2992C169.714 44.0495 169.569 43.8214 169.382 43.6287C169.195 43.436 168.971 43.2826 168.722 43.178C168.474 43.0733 168.207 43.0195 167.937 43.0198C167.187 43.0645 166.479 43.3724 165.939 43.8879C165.326 44.4337 164.744 44.9204 164.191 45.3478C163.631 45.7862 163.048 46.1946 162.443 46.571C162.084 46.7946 161.688 47.0182 161.255 47.2418L160.306 47.7252C159.569 48.033 158.869 48.4201 158.218 48.8794C157.882 49.0819 157.6 49.3616 157.397 49.6948C157.193 50.028 157.074 50.4048 157.05 50.7931C157.059 51.141 157.159 51.4807 157.339 51.7796C157.546 52.1136 157.83 52.3943 158.168 52.5983C158.585 52.8307 159.023 53.0223 159.477 53.1705C160.025 53.3486 160.553 53.5799 161.055 53.861C161.511 54.1751 161.859 54.619 162.054 55.1336C162.363 55.9425 162.502 56.805 162.463 57.6688C162.463 62.5551 161.961 65.6559 160.955 66.9711C160.407 67.6426 159.787 68.2543 159.107 68.7961C158.697 69.1041 158.33 69.4658 158.019 69.8713C157.776 70.301 157.665 70.7911 157.699 71.282C157.698 71.5958 157.772 71.9054 157.916 72.185C158.061 72.4647 158.27 72.7063 158.528 72.8899C159.143 73.3442 159.898 73.5742 160.665 73.541C161.667 73.5362 162.668 73.4736 163.662 73.3536C164.449 73.2412 165.243 73.1786 166.039 73.1661C166.901 73.1555 167.761 73.2348 168.606 73.4029L169.435 73.5015C169.794 73.5015 170.114 73.5015 170.434 73.5015C171.079 73.513 171.704 73.28 172.181 72.8505C172.419 72.6443 172.608 72.3889 172.734 72.1024C172.86 71.8159 172.92 71.5054 172.911 71.1932C172.895 70.612 172.755 70.0406 172.501 69.5162C172.228 68.9112 171.765 68.0497 171.113 66.9317C169.963 64.8786 169.361 62.57 169.365 60.2237C169.297 58.5077 169.643 56.8004 170.374 55.2421C171.09 53.8357 172.306 52.7398 173.79 52.1643C174.472 51.8416 175.22 51.6763 175.977 51.6809C177.038 51.6859 178.069 52.0322 178.913 52.6674C179.813 53.3385 180.524 54.2245 180.981 55.2421C181.507 56.3776 181.773 57.6137 181.76 58.8624C181.748 59.9875 181.552 61.1034 181.181 62.1671C180.756 63.5359 180.177 64.853 179.453 66.0932C178.841 67.0721 178.153 68.0022 177.395 68.875C177.029 69.297 176.695 69.7455 176.396 70.2166C176.185 70.5652 176.074 70.9644 176.077 71.3708C176.077 72.8439 176.902 73.5772 178.554 73.5706C179.27 73.5658 179.985 73.5031 180.691 73.3832C181.431 73.265 182.179 73.2023 182.928 73.1957C183.674 73.1957 184.726 73.2582 186.085 73.3832C187.443 73.5081 188.412 73.5706 188.991 73.5706C189.728 73.6079 190.457 73.407 191.069 72.9984C191.318 72.8214 191.526 72.593 191.678 72.3291C191.83 72.0651 191.922 71.7719 191.948 71.4694C192.028 70.8849 191.952 70.2898 191.728 69.7431C191.35 69.0802 190.868 68.4809 190.3 67.9675" fill="#83BFCB"/>
<path d="M222.62 69.2203C222.435 68.7316 222.082 68.323 221.622 68.0662C221.085 67.8392 220.507 67.725 219.924 67.7308C218.539 67.7859 217.166 67.9944 215.829 68.3522C214.097 68.7665 211.767 69.4242 208.837 70.3252C206.833 71.0017 204.741 71.3904 202.625 71.4793C201.988 71.5463 201.345 71.4827 200.735 71.2926C200.125 71.1025 199.561 70.7899 199.079 70.3745C198.938 70.2106 198.831 70.0208 198.764 69.816C198.697 69.6111 198.672 69.3953 198.689 69.1809C198.691 68.8433 198.755 68.5089 198.879 68.1944C198.986 67.8917 199.168 67.6203 199.409 67.4052C199.741 67.1103 200.17 66.9424 200.617 66.9317C200.912 66.9396 201.205 66.9894 201.486 67.0797H201.386C202.974 67.4701 204.604 67.6623 206.24 67.6518C208.744 67.6765 211.225 67.179 213.521 66.1919C215.596 65.3401 217.417 63.9825 218.815 62.246C220.06 60.7016 220.736 58.7848 220.733 56.8106C220.745 55.1268 220.255 53.4766 219.324 52.0657C218.328 50.5746 216.999 49.3293 215.439 48.4256C216.938 48.4214 218.414 48.0521 219.734 47.3504C220.242 47.0889 220.679 46.7103 221.008 46.2467C221.336 45.7831 221.547 45.248 221.622 44.6869C221.643 44.4013 221.643 44.1144 221.622 43.8287C221.663 42.8621 221.343 41.9142 220.723 41.1653C220.158 40.5015 219.433 39.9891 218.615 39.6757C217.89 39.3896 217.119 39.2359 216.338 39.2219C215.789 39.2219 215.469 39.3008 215.339 39.4587C215.201 39.8408 215.15 40.2484 215.189 40.6523C215.2 41.3131 215.149 41.9734 215.04 42.6252C214.935 43.1641 214.663 43.6573 214.261 44.0359C213.404 44.7667 212.373 45.2693 211.264 45.4958C209.604 45.8967 207.899 46.0824 206.19 46.0483C203.672 46.0219 201.176 46.5123 198.859 47.4885C196.783 48.3372 194.961 49.6954 193.566 51.4344C192.316 52.9587 191.633 54.8593 191.628 56.8205C191.629 58.149 191.921 59.4616 192.483 60.6686C193.045 61.8756 193.864 62.9487 194.884 63.8145L195.074 63.9625L195.313 64.1499C195.582 64.363 195.758 64.6705 195.803 65.0081C195.803 65.3304 195.56 65.6822 195.074 66.0636C193.229 67.6946 192.307 69.2433 192.307 70.7099C192.304 71.2413 192.42 71.7669 192.647 72.2488C193.325 73.6614 194.356 74.8802 195.643 75.7902C194.621 76.3816 193.756 77.2029 193.116 78.1873C192.498 79.0562 192.15 80.085 192.117 81.1467C192.12 81.9435 192.368 82.7207 192.826 83.3761C193.364 84.1168 194.091 84.7025 194.934 85.0728C196.84 85.8098 198.881 86.1458 200.927 86.0593C203.974 86.0402 207.003 85.5816 209.916 84.698C212.801 83.8883 215.469 82.4564 217.726 80.5055C219.346 79.164 220.7 77.5387 221.721 75.7113C222.479 74.3576 222.903 72.8471 222.96 71.3018C222.969 70.6247 222.836 69.9531 222.57 69.3288L222.62 69.2203ZM201.596 50.586C201.83 50.2864 202.134 50.0473 202.481 49.8893C202.829 49.7312 203.211 49.6588 203.593 49.6785C204.382 49.7176 205.155 49.9103 205.868 50.2455C206.581 50.5807 207.22 51.0518 207.748 51.6317C209.097 52.9371 210.161 54.5016 210.875 56.2286C211.456 57.5498 211.794 58.9628 211.873 60.4013C211.921 61.2751 211.663 62.1386 211.144 62.8478C210.871 63.1611 210.527 63.4065 210.14 63.5641C209.753 63.7218 209.334 63.7873 208.917 63.7553C207.444 63.6766 206.06 63.0323 205.062 61.9599C203.77 60.7519 202.75 59.2902 202.065 57.6688C201.391 56.2085 201.028 54.6272 200.997 53.0226C200.946 52.1402 201.184 51.2651 201.676 50.5268L201.596 50.586ZM215 78.6805C214.138 79.5642 213.082 80.2394 211.913 80.6534C208.223 81.8997 204.197 81.7556 200.607 80.249C198.905 79.4611 197.542 78.1009 196.762 76.4116C198.37 77.154 200.131 77.5154 201.905 77.4672C203.422 77.4621 204.934 77.3101 206.42 77.0134C207.971 76.7109 209.896 76.2703 212.193 75.6915C212.847 75.526 213.516 75.4301 214.191 75.4055C215.356 75.4055 215.938 75.8691 215.938 76.7964C215.824 77.5043 215.472 78.1538 214.94 78.6411" fill="#83BFCB"/>
<path d="M186.634 43.9273C187.364 44.3393 188.19 44.5537 189.031 44.5488C189.865 44.5578 190.687 44.3539 191.418 43.9569C192.134 43.572 192.731 43.0027 193.146 42.3095C193.576 41.5936 193.797 40.7743 193.785 39.942C193.789 39.1387 193.568 38.35 193.146 37.6633C192.718 36.9646 192.114 36.3875 191.393 35.9881C190.671 35.5888 189.858 35.3808 189.031 35.3846C188.191 35.3757 187.362 35.5795 186.624 35.9764C185.908 36.36 185.308 36.9253 184.886 37.614C184.464 38.3172 184.241 39.1196 184.241 39.9371C184.241 40.7545 184.464 41.5569 184.886 42.2602C185.309 42.9554 185.908 43.5299 186.624 43.9273H186.634ZM185.895 38.1861C186.211 37.6643 186.663 37.2353 187.203 36.9432C187.757 36.6417 188.379 36.4855 189.011 36.4894C189.634 36.4874 190.247 36.6455 190.79 36.9481C191.333 37.2508 191.787 37.6876 192.107 38.2157C192.424 38.7332 192.59 39.3273 192.587 39.9322C192.596 40.5551 192.434 41.169 192.117 41.7078C191.807 42.229 191.358 42.6556 190.819 42.9409C190.264 43.2385 189.642 43.3913 189.011 43.3848C188.378 43.3893 187.754 43.2294 187.203 42.9211C186.664 42.6229 186.213 42.1911 185.895 41.6683C185.576 41.1402 185.408 40.5369 185.408 39.9223C185.408 39.3076 185.576 38.7044 185.895 38.1762" fill="#83BFCB"/>
<path d="M189.82 41.9742C189.689 41.8962 189.579 41.7879 189.501 41.6585C189.409 41.4998 189.329 41.335 189.261 41.1653C189.195 40.9945 189.115 40.8295 189.021 40.672C188.948 40.5549 188.845 40.4594 188.722 40.3958C188.656 40.3627 188.585 40.3426 188.512 40.3366C188.412 40.3366 188.362 40.4155 188.362 40.5734C188.348 40.7112 188.348 40.8499 188.362 40.9877C188.379 41.1077 188.424 41.2223 188.492 41.3231C188.526 41.3738 188.566 41.4201 188.612 41.4612L188.761 41.5697C188.809 41.6039 188.853 41.6436 188.891 41.6881C188.907 41.7395 188.907 41.7945 188.891 41.8459C188.892 41.883 188.884 41.9197 188.866 41.9525C188.849 41.9853 188.823 42.0131 188.791 42.0334C188.715 42.0832 188.624 42.1074 188.532 42.1024H188.202H187.843H187.533H187.153C187.062 42.1074 186.971 42.0832 186.894 42.0334C186.862 42.0131 186.837 41.9853 186.819 41.9525C186.802 41.9197 186.793 41.883 186.794 41.8459C186.777 41.7946 186.777 41.7394 186.794 41.6881C186.832 41.6434 186.876 41.6036 186.924 41.5697L187.074 41.4612C187.118 41.4196 187.159 41.3733 187.193 41.3231C187.272 41.201 187.319 41.0625 187.333 40.9186C187.349 40.692 187.349 40.4646 187.333 40.238V39.6856C187.349 39.4589 187.349 39.2315 187.333 39.0049C187.321 38.8578 187.273 38.7157 187.193 38.5906C187.119 38.5006 187.038 38.415 186.954 38.3341L186.844 38.2157C186.832 38.1771 186.832 38.136 186.844 38.0974C186.843 38.0589 186.852 38.0209 186.869 37.9865C186.886 37.9521 186.912 37.9225 186.944 37.9001C187.018 37.8446 187.11 37.8167 187.203 37.8211L187.683 37.8902C187.897 37.9315 188.114 37.9611 188.332 37.979C188.428 37.9885 188.525 37.9885 188.622 37.979L188.981 37.8902L189.361 37.8014C189.464 37.7915 189.567 37.7915 189.67 37.8014C189.841 37.8029 190.008 37.8434 190.16 37.9198C190.314 37.9922 190.447 38.1005 190.549 38.2355C190.647 38.3632 190.7 38.5192 190.699 38.6794C190.701 39.0239 190.569 39.3559 190.33 39.6066C189.971 39.9306 189.522 40.1403 189.041 40.2084C189.255 40.2027 189.465 40.2649 189.64 40.386C189.778 40.4838 189.891 40.6122 189.97 40.7608C190.054 40.9293 190.124 41.1041 190.18 41.2836C190.209 41.3957 190.249 41.5048 190.3 41.6092C190.312 41.6386 190.332 41.6637 190.359 41.6813C190.386 41.6989 190.417 41.7081 190.449 41.7078C190.549 41.7078 190.599 41.6388 190.599 41.5105C190.558 41.1877 190.453 40.876 190.29 40.5931C190.257 40.5288 190.24 40.4579 190.24 40.386C190.239 40.3294 190.251 40.2734 190.275 40.2222C190.299 40.1709 190.335 40.1257 190.38 40.09C190.497 40.0031 190.643 39.9611 190.789 39.9716C190.874 39.9667 190.959 39.98 191.038 40.0106C191.118 40.0413 191.189 40.0886 191.248 40.1492C191.369 40.2965 191.43 40.4829 191.418 40.672C191.457 41.0856 191.351 41.4997 191.119 41.8459C191.013 41.9645 190.882 42.0581 190.735 42.1196C190.588 42.181 190.429 42.2089 190.27 42.201C190.085 42.2076 189.901 42.1632 189.74 42.0728L189.82 41.9742ZM188.302 39.873C188.316 39.8799 188.331 39.8835 188.347 39.8835C188.363 39.8835 188.378 39.8799 188.392 39.873C188.745 39.8252 189.085 39.7078 189.391 39.5277C189.515 39.4653 189.619 39.3709 189.693 39.2545C189.767 39.1381 189.807 39.0041 189.81 38.8668C189.844 38.8046 189.858 38.7338 189.851 38.6635C189.844 38.5932 189.816 38.5266 189.77 38.4722C189.652 38.3946 189.512 38.3565 189.371 38.3637H189.191C188.991 38.3899 188.801 38.4682 188.642 38.5906C188.523 38.6937 188.443 38.8323 188.412 38.9852C188.373 39.2066 188.356 39.4313 188.362 39.656C188.355 39.6716 188.352 39.6884 188.352 39.7053C188.352 39.7222 188.355 39.739 188.362 39.7546" fill="#83BFCB"/>
</svg>
