<svg width="16" height="24" viewBox="0 0 16 24" fill="none" xmlns="http://www.w3.org/2000/svg">
<path d="M10.5842 8.53596L10.6184 9.25H11.3333H13.9116H14.6928L14.661 8.4695C14.5733 6.31505 13.3256 4.31092 10.9166 3.49263V1.5V0.75H10.1666H6.66662H5.91662V1.5V3.43873C3.71956 4.09341 1.83329 5.70286 1.83329 8.23167C1.83329 9.82597 2.50932 11.0442 3.63624 11.9443C4.72769 12.8162 6.22479 13.379 7.8915 13.7793L7.89159 13.7793C9.29989 14.1173 10.0259 14.5094 10.3967 14.8579C10.7262 15.1676 10.8166 15.4808 10.8166 15.8617C10.8166 16.0923 10.7359 16.3974 10.4549 16.6519C10.1709 16.9092 9.58765 17.2 8.41662 17.2C7.3173 17.2 6.66788 16.9538 6.29255 16.6547C5.93163 16.3671 5.73615 15.9606 5.68672 15.4304L5.62329 14.75H4.93996H2.37329H1.58107L1.62441 15.541C1.77603 18.3081 3.71452 19.9063 5.91662 20.5519V22.5V23.25H6.66662H10.1666H10.9166V22.5V20.5902C11.9175 20.3246 12.847 19.8771 13.5712 19.2059C14.4589 18.3832 15 17.2572 15 15.85C15 13.9333 14.1601 12.6093 12.9526 11.6999C11.7874 10.8223 10.2929 10.3384 8.95529 9.99078C7.64885 9.65123 6.89199 9.32964 6.46961 9.0171C6.26954 8.86906 6.16491 8.73748 6.10662 8.62527C6.04951 8.51535 6.01662 8.38527 6.01662 8.20833C6.01662 7.83408 6.17767 7.51623 6.53379 7.2657C6.91124 7.00016 7.53245 6.8 8.41662 6.8C9.34513 6.8 9.84292 7.02175 10.1157 7.27636C10.3851 7.52791 10.5548 7.92364 10.5842 8.53596Z" stroke="#83BFCB" stroke-width="1.5"/>
</svg>
