<svg xmlns="http://www.w3.org/2000/svg" viewBox="0 0 24.54 23.46"><defs><style>.cls-1{fill:#f3f1e7;}</style></defs><g id="Слой_2" data-name="Слой 2"><g id="Ebene_2" data-name="Ebene 2"><path class="cls-1" d="M.67,10.26l7,3.21a1.13,1.13,0,0,1,.52,1.59L4.4,21.74a1.15,1.15,0,0,0,1.84,1.34l5.19-5.63a1.14,1.14,0,0,1,1.68,0l5.19,5.63a1.15,1.15,0,0,0,1.84-1.34L16.4,15.06a1.13,1.13,0,0,1,.52-1.59l7-3.21a1.14,1.14,0,0,0-.7-2.16L15.66,9.6a1.14,1.14,0,0,1-1.36-1L13.41,1a1.15,1.15,0,0,0-2.28,0l-.89,7.6a1.14,1.14,0,0,1-1.36,1L1.37,8.1A1.14,1.14,0,0,0,.67,10.26Z"/></g></g></svg>